<?xml version="1.0" encoding="utf-8" standalone="no"?>
<!DOCTYPE svg PUBLIC "-//W3C//DTD SVG 1.1//EN"
  "http://www.w3.org/Graphics/SVG/1.1/DTD/svg11.dtd">
<svg xmlns:xlink="http://www.w3.org/1999/xlink" width="576pt" height="288pt" viewBox="0 0 576 288" xmlns="http://www.w3.org/2000/svg" version="1.1">
 <metadata>
  <rdf:RDF xmlns:dc="http://purl.org/dc/elements/1.1/" xmlns:cc="http://creativecommons.org/ns#" xmlns:rdf="http://www.w3.org/1999/02/22-rdf-syntax-ns#">
   <cc:Work>
    <dc:type rdf:resource="http://purl.org/dc/dcmitype/StillImage"/>
    <dc:date>2025-05-29T04:31:25.163234</dc:date>
    <dc:format>image/svg+xml</dc:format>
    <dc:creator>
     <cc:Agent>
      <dc:title>Matplotlib v3.7.5, https://matplotlib.org/</dc:title>
     </cc:Agent>
    </dc:creator>
   </cc:Work>
  </rdf:RDF>
 </metadata>
 <defs>
  <style type="text/css">*{stroke-linejoin: round; stroke-linecap: butt}</style>
 </defs>
 <g id="figure_1">
  <g id="patch_1">
   <path d="M 0 288 
L 576 288 
L 576 0 
L 0 0 
z
" style="fill: #ffffff"/>
  </g>
  <g id="axes_1">
   <g id="patch_2">
    <path d="M 48.86 242.56 
L 279.9 242.56 
L 279.9 16.2 
L 48.86 16.2 
z
" style="fill: #ffffff"/>
   </g>
   <g id="PathCollection_1">
    <defs>
     <path id="med794599c8" d="M 0 2.236068 
C 0.593012 2.236068 1.161816 2.000462 1.581139 1.581139 
C 2.000462 1.161816 2.236068 0.593012 2.236068 0 
C 2.236068 -0.593012 2.000462 -1.161816 1.581139 -1.581139 
C 1.161816 -2.000462 0.593012 -2.236068 0 -2.236068 
C -0.593012 -2.236068 -1.161816 -2.000462 -1.581139 -1.581139 
C -2.000462 -1.161816 -2.236068 -0.593012 -2.236068 0 
C -2.236068 0.593012 -2.000462 1.161816 -1.581139 1.581139 
C -1.161816 2.000462 -0.593012 2.236068 0 2.236068 
z
" style="stroke: #87ceeb"/>
    </defs>
    <g clip-path="url(#pd65a6a977d)">
     <use xlink:href="#med794599c8" x="59.361818" y="26.489091" style="fill: #87ceeb; stroke: #87ceeb"/>
     <use xlink:href="#med794599c8" x="63.648275" y="76.849198" style="fill: #87ceeb; stroke: #87ceeb"/>
     <use xlink:href="#med794599c8" x="67.934731" y="100.164063" style="fill: #87ceeb; stroke: #87ceeb"/>
     <use xlink:href="#med794599c8" x="72.221187" y="113.608401" style="fill: #87ceeb; stroke: #87ceeb"/>
     <use xlink:href="#med794599c8" x="76.507644" y="122.355319" style="fill: #87ceeb; stroke: #87ceeb"/>
     <use xlink:href="#med794599c8" x="80.7941" y="128.500591" style="fill: #87ceeb; stroke: #87ceeb"/>
     <use xlink:href="#med794599c8" x="85.080557" y="133.054675" style="fill: #87ceeb; stroke: #87ceeb"/>
     <use xlink:href="#med794599c8" x="89.367013" y="136.564741" style="fill: #87ceeb; stroke: #87ceeb"/>
     <use xlink:href="#med794599c8" x="93.653469" y="139.352878" style="fill: #87ceeb; stroke: #87ceeb"/>
     <use xlink:href="#med794599c8" x="97.939926" y="141.621041" style="fill: #87ceeb; stroke: #87ceeb"/>
     <use xlink:href="#med794599c8" x="102.226382" y="143.502282" style="fill: #87ceeb; stroke: #87ceeb"/>
     <use xlink:href="#med794599c8" x="106.512839" y="145.087826" style="fill: #87ceeb; stroke: #87ceeb"/>
     <use xlink:href="#med794599c8" x="110.799295" y="146.442312" style="fill: #87ceeb; stroke: #87ceeb"/>
     <use xlink:href="#med794599c8" x="115.085751" y="147.612815" style="fill: #87ceeb; stroke: #87ceeb"/>
     <use xlink:href="#med794599c8" x="119.372208" y="148.634439" style="fill: #87ceeb; stroke: #87ceeb"/>
     <use xlink:href="#med794599c8" x="123.658664" y="149.533889" style="fill: #87ceeb; stroke: #87ceeb"/>
     <use xlink:href="#med794599c8" x="127.945121" y="150.331845" style="fill: #87ceeb; stroke: #87ceeb"/>
     <use xlink:href="#med794599c8" x="132.231577" y="151.044568" style="fill: #87ceeb; stroke: #87ceeb"/>
     <use xlink:href="#med794599c8" x="136.518033" y="151.685022" style="fill: #87ceeb; stroke: #87ceeb"/>
     <use xlink:href="#med794599c8" x="140.80449" y="152.263669" style="fill: #87ceeb; stroke: #87ceeb"/>
     <use xlink:href="#med794599c8" x="145.090946" y="152.789043" style="fill: #87ceeb; stroke: #87ceeb"/>
     <use xlink:href="#med794599c8" x="149.377403" y="153.268178" style="fill: #87ceeb; stroke: #87ceeb"/>
     <use xlink:href="#med794599c8" x="153.663859" y="153.70692" style="fill: #87ceeb; stroke: #87ceeb"/>
     <use xlink:href="#med794599c8" x="157.950315" y="154.110172" style="fill: #87ceeb; stroke: #87ceeb"/>
     <use xlink:href="#med794599c8" x="162.236772" y="154.482072" style="fill: #87ceeb; stroke: #87ceeb"/>
     <use xlink:href="#med794599c8" x="166.523228" y="154.826139" style="fill: #87ceeb; stroke: #87ceeb"/>
     <use xlink:href="#med794599c8" x="170.809685" y="155.145385" style="fill: #87ceeb; stroke: #87ceeb"/>
     <use xlink:href="#med794599c8" x="175.096141" y="155.442403" style="fill: #87ceeb; stroke: #87ceeb"/>
     <use xlink:href="#med794599c8" x="179.382597" y="155.719436" style="fill: #87ceeb; stroke: #87ceeb"/>
     <use xlink:href="#med794599c8" x="183.669054" y="155.978436" style="fill: #87ceeb; stroke: #87ceeb"/>
     <use xlink:href="#med794599c8" x="187.95551" y="156.221107" style="fill: #87ceeb; stroke: #87ceeb"/>
     <use xlink:href="#med794599c8" x="192.241967" y="156.448947" style="fill: #87ceeb; stroke: #87ceeb"/>
     <use xlink:href="#med794599c8" x="196.528423" y="156.663274" style="fill: #87ceeb; stroke: #87ceeb"/>
     <use xlink:href="#med794599c8" x="200.814879" y="156.865258" style="fill: #87ceeb; stroke: #87ceeb"/>
     <use xlink:href="#med794599c8" x="205.101336" y="157.055933" style="fill: #87ceeb; stroke: #87ceeb"/>
     <use xlink:href="#med794599c8" x="209.387792" y="157.236224" style="fill: #87ceeb; stroke: #87ceeb"/>
     <use xlink:href="#med794599c8" x="213.674249" y="157.406957" style="fill: #87ceeb; stroke: #87ceeb"/>
     <use xlink:href="#med794599c8" x="217.960705" y="157.568872" style="fill: #87ceeb; stroke: #87ceeb"/>
     <use xlink:href="#med794599c8" x="222.247161" y="157.722635" style="fill: #87ceeb; stroke: #87ceeb"/>
     <use xlink:href="#med794599c8" x="226.533618" y="157.868846" style="fill: #87ceeb; stroke: #87ceeb"/>
     <use xlink:href="#med794599c8" x="230.820074" y="158.008049" style="fill: #87ceeb; stroke: #87ceeb"/>
     <use xlink:href="#med794599c8" x="235.106531" y="158.140736" style="fill: #87ceeb; stroke: #87ceeb"/>
     <use xlink:href="#med794599c8" x="239.392987" y="158.267353" style="fill: #87ceeb; stroke: #87ceeb"/>
     <use xlink:href="#med794599c8" x="243.679443" y="158.388308" style="fill: #87ceeb; stroke: #87ceeb"/>
     <use xlink:href="#med794599c8" x="247.9659" y="158.503973" style="fill: #87ceeb; stroke: #87ceeb"/>
     <use xlink:href="#med794599c8" x="252.252356" y="158.614686" style="fill: #87ceeb; stroke: #87ceeb"/>
     <use xlink:href="#med794599c8" x="256.538813" y="158.72076" style="fill: #87ceeb; stroke: #87ceeb"/>
     <use xlink:href="#med794599c8" x="260.825269" y="158.82248" style="fill: #87ceeb; stroke: #87ceeb"/>
     <use xlink:href="#med794599c8" x="265.111725" y="158.920108" style="fill: #87ceeb; stroke: #87ceeb"/>
     <use xlink:href="#med794599c8" x="269.398182" y="159.013887" style="fill: #87ceeb; stroke: #87ceeb"/>
    </g>
   </g>
   <g id="PathCollection_2">
    <defs>
     <path id="m0c1b47cdf4" d="M 0 2.236068 
C 0.593012 2.236068 1.161816 2.000462 1.581139 1.581139 
C 2.000462 1.161816 2.236068 0.593012 2.236068 0 
C 2.236068 -0.593012 2.000462 -1.161816 1.581139 -1.581139 
C 1.161816 -2.000462 0.593012 -2.236068 0 -2.236068 
C -0.593012 -2.236068 -1.161816 -2.000462 -1.581139 -1.581139 
C -2.000462 -1.161816 -2.236068 -0.593012 -2.236068 0 
C -2.236068 0.593012 -2.000462 1.161816 -1.581139 1.581139 
C -1.161816 2.000462 -0.593012 2.236068 0 2.236068 
z
" style="stroke: #ff8c00"/>
    </defs>
    <g clip-path="url(#pd65a6a977d)">
     <use xlink:href="#m0c1b47cdf4" x="59.361818" y="232.270909" style="fill: #ff8c00; stroke: #ff8c00"/>
     <use xlink:href="#m0c1b47cdf4" x="63.648275" y="207.090855" style="fill: #ff8c00; stroke: #ff8c00"/>
     <use xlink:href="#m0c1b47cdf4" x="67.934731" y="195.433423" style="fill: #ff8c00; stroke: #ff8c00"/>
     <use xlink:href="#m0c1b47cdf4" x="72.221187" y="188.711254" style="fill: #ff8c00; stroke: #ff8c00"/>
     <use xlink:href="#m0c1b47cdf4" x="76.507644" y="184.337795" style="fill: #ff8c00; stroke: #ff8c00"/>
     <use xlink:href="#m0c1b47cdf4" x="80.7941" y="181.265159" style="fill: #ff8c00; stroke: #ff8c00"/>
     <use xlink:href="#m0c1b47cdf4" x="85.080557" y="178.988117" style="fill: #ff8c00; stroke: #ff8c00"/>
     <use xlink:href="#m0c1b47cdf4" x="89.367013" y="177.233084" style="fill: #ff8c00; stroke: #ff8c00"/>
     <use xlink:href="#m0c1b47cdf4" x="93.653469" y="175.839016" style="fill: #ff8c00; stroke: #ff8c00"/>
     <use xlink:href="#m0c1b47cdf4" x="97.939926" y="174.704934" style="fill: #ff8c00; stroke: #ff8c00"/>
     <use xlink:href="#m0c1b47cdf4" x="102.226382" y="173.764314" style="fill: #ff8c00; stroke: #ff8c00"/>
     <use xlink:href="#m0c1b47cdf4" x="106.512839" y="172.971541" style="fill: #ff8c00; stroke: #ff8c00"/>
     <use xlink:href="#m0c1b47cdf4" x="110.799295" y="172.294299" style="fill: #ff8c00; stroke: #ff8c00"/>
     <use xlink:href="#m0c1b47cdf4" x="115.085751" y="171.709047" style="fill: #ff8c00; stroke: #ff8c00"/>
     <use xlink:href="#m0c1b47cdf4" x="119.372208" y="171.198235" style="fill: #ff8c00; stroke: #ff8c00"/>
     <use xlink:href="#m0c1b47cdf4" x="123.658664" y="170.74851" style="fill: #ff8c00; stroke: #ff8c00"/>
     <use xlink:href="#m0c1b47cdf4" x="127.945121" y="170.349532" style="fill: #ff8c00; stroke: #ff8c00"/>
     <use xlink:href="#m0c1b47cdf4" x="132.231577" y="169.99317" style="fill: #ff8c00; stroke: #ff8c00"/>
     <use xlink:href="#m0c1b47cdf4" x="136.518033" y="169.672943" style="fill: #ff8c00; stroke: #ff8c00"/>
     <use xlink:href="#m0c1b47cdf4" x="140.80449" y="169.38362" style="fill: #ff8c00; stroke: #ff8c00"/>
     <use xlink:href="#m0c1b47cdf4" x="145.090946" y="169.120933" style="fill: #ff8c00; stroke: #ff8c00"/>
     <use xlink:href="#m0c1b47cdf4" x="149.377403" y="168.881366" style="fill: #ff8c00; stroke: #ff8c00"/>
     <use xlink:href="#m0c1b47cdf4" x="153.663859" y="168.661994" style="fill: #ff8c00; stroke: #ff8c00"/>
     <use xlink:href="#m0c1b47cdf4" x="157.950315" y="168.460369" style="fill: #ff8c00; stroke: #ff8c00"/>
     <use xlink:href="#m0c1b47cdf4" x="162.236772" y="168.274419" style="fill: #ff8c00; stroke: #ff8c00"/>
     <use xlink:href="#m0c1b47cdf4" x="166.523228" y="168.102385" style="fill: #ff8c00; stroke: #ff8c00"/>
     <use xlink:href="#m0c1b47cdf4" x="170.809685" y="167.942762" style="fill: #ff8c00; stroke: #ff8c00"/>
     <use xlink:href="#m0c1b47cdf4" x="175.096141" y="167.794253" style="fill: #ff8c00; stroke: #ff8c00"/>
     <use xlink:href="#m0c1b47cdf4" x="179.382597" y="167.655736" style="fill: #ff8c00; stroke: #ff8c00"/>
     <use xlink:href="#m0c1b47cdf4" x="183.669054" y="167.526237" style="fill: #ff8c00; stroke: #ff8c00"/>
     <use xlink:href="#m0c1b47cdf4" x="187.95551" y="167.404901" style="fill: #ff8c00; stroke: #ff8c00"/>
     <use xlink:href="#m0c1b47cdf4" x="192.241967" y="167.290981" style="fill: #ff8c00; stroke: #ff8c00"/>
     <use xlink:href="#m0c1b47cdf4" x="196.528423" y="167.183817" style="fill: #ff8c00; stroke: #ff8c00"/>
     <use xlink:href="#m0c1b47cdf4" x="200.814879" y="167.082826" style="fill: #ff8c00; stroke: #ff8c00"/>
     <use xlink:href="#m0c1b47cdf4" x="205.101336" y="166.987488" style="fill: #ff8c00; stroke: #ff8c00"/>
     <use xlink:href="#m0c1b47cdf4" x="209.387792" y="166.897342" style="fill: #ff8c00; stroke: #ff8c00"/>
     <use xlink:href="#m0c1b47cdf4" x="213.674249" y="166.811976" style="fill: #ff8c00; stroke: #ff8c00"/>
     <use xlink:href="#m0c1b47cdf4" x="217.960705" y="166.731019" style="fill: #ff8c00; stroke: #ff8c00"/>
     <use xlink:href="#m0c1b47cdf4" x="222.247161" y="166.654137" style="fill: #ff8c00; stroke: #ff8c00"/>
     <use xlink:href="#m0c1b47cdf4" x="226.533618" y="166.581031" style="fill: #ff8c00; stroke: #ff8c00"/>
     <use xlink:href="#m0c1b47cdf4" x="230.820074" y="166.51143" style="fill: #ff8c00; stroke: #ff8c00"/>
     <use xlink:href="#m0c1b47cdf4" x="235.106531" y="166.445087" style="fill: #ff8c00; stroke: #ff8c00"/>
     <use xlink:href="#m0c1b47cdf4" x="239.392987" y="166.381778" style="fill: #ff8c00; stroke: #ff8c00"/>
     <use xlink:href="#m0c1b47cdf4" x="243.679443" y="166.3213" style="fill: #ff8c00; stroke: #ff8c00"/>
     <use xlink:href="#m0c1b47cdf4" x="247.9659" y="166.263468" style="fill: #ff8c00; stroke: #ff8c00"/>
     <use xlink:href="#m0c1b47cdf4" x="252.252356" y="166.208111" style="fill: #ff8c00; stroke: #ff8c00"/>
     <use xlink:href="#m0c1b47cdf4" x="256.538813" y="166.155074" style="fill: #ff8c00; stroke: #ff8c00"/>
     <use xlink:href="#m0c1b47cdf4" x="260.825269" y="166.104215" style="fill: #ff8c00; stroke: #ff8c00"/>
     <use xlink:href="#m0c1b47cdf4" x="265.111725" y="166.0554" style="fill: #ff8c00; stroke: #ff8c00"/>
     <use xlink:href="#m0c1b47cdf4" x="269.398182" y="166.008511" style="fill: #ff8c00; stroke: #ff8c00"/>
    </g>
   </g>
   <g id="PathCollection_3">
    <defs>
     <path id="m85cdeee171" d="M 0 2.236068 
C 0.593012 2.236068 1.161816 2.000462 1.581139 1.581139 
C 2.000462 1.161816 2.236068 0.593012 2.236068 0 
C 2.236068 -0.593012 2.000462 -1.161816 1.581139 -1.581139 
C 1.161816 -2.000462 0.593012 -2.236068 0 -2.236068 
C -0.593012 -2.236068 -1.161816 -2.000462 -1.581139 -1.581139 
C -2.000462 -1.161816 -2.236068 -0.593012 -2.236068 0 
C -2.236068 0.593012 -2.000462 1.161816 -1.581139 1.581139 
C -1.161816 2.000462 -0.593012 2.236068 0 2.236068 
z
" style="stroke: #708090"/>
    </defs>
    <g clip-path="url(#pd65a6a977d)">
     <use xlink:href="#m85cdeee171" x="59.361818" y="229.905601" style="fill: #708090; stroke: #708090"/>
     <use xlink:href="#m85cdeee171" x="63.648275" y="212.735215" style="fill: #708090; stroke: #708090"/>
     <use xlink:href="#m85cdeee171" x="67.934731" y="202.634988" style="fill: #708090; stroke: #708090"/>
     <use xlink:href="#m85cdeee171" x="72.221187" y="195.983619" style="fill: #708090; stroke: #708090"/>
     <use xlink:href="#m85cdeee171" x="76.507644" y="191.272233" style="fill: #708090; stroke: #708090"/>
     <use xlink:href="#m85cdeee171" x="80.7941" y="187.760108" style="fill: #708090; stroke: #708090"/>
     <use xlink:href="#m85cdeee171" x="85.080557" y="185.041044" style="fill: #708090; stroke: #708090"/>
     <use xlink:href="#m85cdeee171" x="89.367013" y="182.873674" style="fill: #708090; stroke: #708090"/>
     <use xlink:href="#m85cdeee171" x="93.653469" y="181.105557" style="fill: #708090; stroke: #708090"/>
     <use xlink:href="#m85cdeee171" x="97.939926" y="179.635676" style="fill: #708090; stroke: #708090"/>
     <use xlink:href="#m85cdeee171" x="102.226382" y="178.394443" style="fill: #708090; stroke: #708090"/>
     <use xlink:href="#m85cdeee171" x="106.512839" y="177.332358" style="fill: #708090; stroke: #708090"/>
     <use xlink:href="#m85cdeee171" x="110.799295" y="176.413245" style="fill: #708090; stroke: #708090"/>
     <use xlink:href="#m85cdeee171" x="115.085751" y="175.610056" style="fill: #708090; stroke: #708090"/>
     <use xlink:href="#m85cdeee171" x="119.372208" y="174.902161" style="fill: #708090; stroke: #708090"/>
     <use xlink:href="#m85cdeee171" x="123.658664" y="174.273551" style="fill: #708090; stroke: #708090"/>
     <use xlink:href="#m85cdeee171" x="127.945121" y="173.711611" style="fill: #708090; stroke: #708090"/>
     <use xlink:href="#m85cdeee171" x="132.231577" y="173.206269" style="fill: #708090; stroke: #708090"/>
     <use xlink:href="#m85cdeee171" x="136.518033" y="172.749385" style="fill: #708090; stroke: #708090"/>
     <use xlink:href="#m85cdeee171" x="140.80449" y="172.334307" style="fill: #708090; stroke: #708090"/>
     <use xlink:href="#m85cdeee171" x="145.090946" y="171.955549" style="fill: #708090; stroke: #708090"/>
     <use xlink:href="#m85cdeee171" x="149.377403" y="171.608542" style="fill: #708090; stroke: #708090"/>
     <use xlink:href="#m85cdeee171" x="153.663859" y="171.289456" style="fill: #708090; stroke: #708090"/>
     <use xlink:href="#m85cdeee171" x="157.950315" y="170.99505" style="fill: #708090; stroke: #708090"/>
     <use xlink:href="#m85cdeee171" x="162.236772" y="170.722569" style="fill: #708090; stroke: #708090"/>
     <use xlink:href="#m85cdeee171" x="166.523228" y="170.46965" style="fill: #708090; stroke: #708090"/>
     <use xlink:href="#m85cdeee171" x="170.809685" y="170.23426" style="fill: #708090; stroke: #708090"/>
     <use xlink:href="#m85cdeee171" x="175.096141" y="170.014638" style="fill: #708090; stroke: #708090"/>
     <use xlink:href="#m85cdeee171" x="179.382597" y="169.80925" style="fill: #708090; stroke: #708090"/>
     <use xlink:href="#m85cdeee171" x="183.669054" y="169.616757" style="fill: #708090; stroke: #708090"/>
     <use xlink:href="#m85cdeee171" x="187.95551" y="169.435981" style="fill: #708090; stroke: #708090"/>
     <use xlink:href="#m85cdeee171" x="192.241967" y="169.265884" style="fill: #708090; stroke: #708090"/>
     <use xlink:href="#m85cdeee171" x="196.528423" y="169.105546" style="fill: #708090; stroke: #708090"/>
     <use xlink:href="#m85cdeee171" x="200.814879" y="168.954151" style="fill: #708090; stroke: #708090"/>
     <use xlink:href="#m85cdeee171" x="205.101336" y="168.810972" style="fill: #708090; stroke: #708090"/>
     <use xlink:href="#m85cdeee171" x="209.387792" y="168.675357" style="fill: #708090; stroke: #708090"/>
     <use xlink:href="#m85cdeee171" x="213.674249" y="168.546722" style="fill: #708090; stroke: #708090"/>
     <use xlink:href="#m85cdeee171" x="217.960705" y="168.424542" style="fill: #708090; stroke: #708090"/>
     <use xlink:href="#m85cdeee171" x="222.247161" y="168.308343" style="fill: #708090; stroke: #708090"/>
     <use xlink:href="#m85cdeee171" x="226.533618" y="168.197695" style="fill: #708090; stroke: #708090"/>
     <use xlink:href="#m85cdeee171" x="230.820074" y="168.092212" style="fill: #708090; stroke: #708090"/>
     <use xlink:href="#m85cdeee171" x="235.106531" y="167.991539" style="fill: #708090; stroke: #708090"/>
     <use xlink:href="#m85cdeee171" x="239.392987" y="167.895354" style="fill: #708090; stroke: #708090"/>
     <use xlink:href="#m85cdeee171" x="243.679443" y="167.803364" style="fill: #708090; stroke: #708090"/>
     <use xlink:href="#m85cdeee171" x="247.9659" y="167.715301" style="fill: #708090; stroke: #708090"/>
     <use xlink:href="#m85cdeee171" x="252.252356" y="167.630918" style="fill: #708090; stroke: #708090"/>
     <use xlink:href="#m85cdeee171" x="256.538813" y="167.549989" style="fill: #708090; stroke: #708090"/>
     <use xlink:href="#m85cdeee171" x="260.825269" y="167.472307" style="fill: #708090; stroke: #708090"/>
     <use xlink:href="#m85cdeee171" x="265.111725" y="167.397679" style="fill: #708090; stroke: #708090"/>
     <use xlink:href="#m85cdeee171" x="269.398182" y="167.32593" style="fill: #708090; stroke: #708090"/>
    </g>
   </g>
   <g id="matplotlib.axis_1">
    <g id="xtick_1">
     <g id="line2d_1">
      <path d="M 59.361818 242.56 
L 59.361818 16.2 
" clip-path="url(#pd65a6a977d)" style="fill: none; stroke: #b0b0b0; stroke-width: 0.8; stroke-linecap: square"/>
     </g>
     <g id="line2d_2">
      <defs>
       <path id="mb4ef13f993" d="M 0 0 
L 0 3.5 
" style="stroke: #000000; stroke-width: 0.8"/>
      </defs>
      <g>
       <use xlink:href="#mb4ef13f993" x="59.361818" y="242.56" style="stroke: #000000; stroke-width: 0.8"/>
      </g>
     </g>
     <g id="text_1">
      <!-- 0 -->
      <g transform="translate(56.861818 256.50375) scale(0.1 -0.1)">
       <defs>
        <path id="TimesNewRomanPSMT-30" d="M 231 2094 
Q 231 2819 450 3342 
Q 669 3866 1031 4122 
Q 1313 4325 1613 4325 
Q 2100 4325 2488 3828 
Q 2972 3213 2972 2159 
Q 2972 1422 2759 906 
Q 2547 391 2217 158 
Q 1888 -75 1581 -75 
Q 975 -75 572 641 
Q 231 1244 231 2094 
z
M 844 2016 
Q 844 1141 1059 588 
Q 1238 122 1591 122 
Q 1759 122 1940 273 
Q 2122 425 2216 781 
Q 2359 1319 2359 2297 
Q 2359 3022 2209 3506 
Q 2097 3866 1919 4016 
Q 1791 4119 1609 4119 
Q 1397 4119 1231 3928 
Q 1006 3669 925 3112 
Q 844 2556 844 2016 
z
" transform="scale(0.015625)"/>
       </defs>
       <use xlink:href="#TimesNewRomanPSMT-30"/>
      </g>
     </g>
    </g>
    <g id="xtick_2">
     <g id="line2d_3">
      <path d="M 145.090946 242.56 
L 145.090946 16.2 
" clip-path="url(#pd65a6a977d)" style="fill: none; stroke: #b0b0b0; stroke-width: 0.8; stroke-linecap: square"/>
     </g>
     <g id="line2d_4">
      <g>
       <use xlink:href="#mb4ef13f993" x="145.090946" y="242.56" style="stroke: #000000; stroke-width: 0.8"/>
      </g>
     </g>
     <g id="text_2">
      <!-- 20 -->
      <g transform="translate(140.090946 256.50375) scale(0.1 -0.1)">
       <defs>
        <path id="TimesNewRomanPSMT-32" d="M 2934 816 
L 2638 0 
L 138 0 
L 138 116 
Q 1241 1122 1691 1759 
Q 2141 2397 2141 2925 
Q 2141 3328 1894 3587 
Q 1647 3847 1303 3847 
Q 991 3847 742 3664 
Q 494 3481 375 3128 
L 259 3128 
Q 338 3706 661 4015 
Q 984 4325 1469 4325 
Q 1984 4325 2329 3994 
Q 2675 3663 2675 3213 
Q 2675 2891 2525 2569 
Q 2294 2063 1775 1497 
Q 997 647 803 472 
L 1909 472 
Q 2247 472 2383 497 
Q 2519 522 2628 598 
Q 2738 675 2819 816 
L 2934 816 
z
" transform="scale(0.015625)"/>
       </defs>
       <use xlink:href="#TimesNewRomanPSMT-32"/>
       <use xlink:href="#TimesNewRomanPSMT-30" x="50"/>
      </g>
     </g>
    </g>
    <g id="xtick_3">
     <g id="line2d_5">
      <path d="M 230.820074 242.56 
L 230.820074 16.2 
" clip-path="url(#pd65a6a977d)" style="fill: none; stroke: #b0b0b0; stroke-width: 0.8; stroke-linecap: square"/>
     </g>
     <g id="line2d_6">
      <g>
       <use xlink:href="#mb4ef13f993" x="230.820074" y="242.56" style="stroke: #000000; stroke-width: 0.8"/>
      </g>
     </g>
     <g id="text_3">
      <!-- 40 -->
      <g transform="translate(225.820074 256.50375) scale(0.1 -0.1)">
       <defs>
        <path id="TimesNewRomanPSMT-34" d="M 2978 1563 
L 2978 1119 
L 2409 1119 
L 2409 0 
L 1894 0 
L 1894 1119 
L 100 1119 
L 100 1519 
L 2066 4325 
L 2409 4325 
L 2409 1563 
L 2978 1563 
z
M 1894 1563 
L 1894 3666 
L 406 1563 
L 1894 1563 
z
" transform="scale(0.015625)"/>
       </defs>
       <use xlink:href="#TimesNewRomanPSMT-34"/>
       <use xlink:href="#TimesNewRomanPSMT-30" x="50"/>
      </g>
     </g>
    </g>
    <g id="text_4">
     <!-- Diffusion Steps -->
     <g transform="translate(133.2175 269.586563) scale(0.1 -0.1)">
      <defs>
       <path id="TimesNewRomanPSMT-44" d="M 109 0 
L 109 116 
L 269 116 
Q 538 116 650 288 
Q 719 391 719 750 
L 719 3488 
Q 719 3884 631 3984 
Q 509 4122 269 4122 
L 109 4122 
L 109 4238 
L 1834 4238 
Q 2784 4238 3279 4022 
Q 3775 3806 4076 3303 
Q 4378 2800 4378 2141 
Q 4378 1256 3841 663 
Q 3238 0 2003 0 
L 109 0 
z
M 1319 306 
Q 1716 219 1984 219 
Q 2709 219 3187 728 
Q 3666 1238 3666 2109 
Q 3666 2988 3187 3494 
Q 2709 4000 1959 4000 
Q 1678 4000 1319 3909 
L 1319 306 
z
" transform="scale(0.015625)"/>
       <path id="TimesNewRomanPSMT-69" d="M 928 4444 
Q 1059 4444 1151 4351 
Q 1244 4259 1244 4128 
Q 1244 3997 1151 3903 
Q 1059 3809 928 3809 
Q 797 3809 703 3903 
Q 609 3997 609 4128 
Q 609 4259 701 4351 
Q 794 4444 928 4444 
z
M 1188 2947 
L 1188 647 
Q 1188 378 1227 289 
Q 1266 200 1342 156 
Q 1419 113 1622 113 
L 1622 0 
L 231 0 
L 231 113 
Q 441 113 512 153 
Q 584 194 626 287 
Q 669 381 669 647 
L 669 1750 
Q 669 2216 641 2353 
Q 619 2453 572 2492 
Q 525 2531 444 2531 
Q 356 2531 231 2484 
L 188 2597 
L 1050 2947 
L 1188 2947 
z
" transform="scale(0.015625)"/>
       <path id="TimesNewRomanPSMT-66" d="M 1319 2638 
L 1319 756 
Q 1319 356 1406 250 
Q 1522 113 1716 113 
L 1975 113 
L 1975 0 
L 266 0 
L 266 113 
L 394 113 
Q 519 113 622 175 
Q 725 238 764 344 
Q 803 450 803 756 
L 803 2638 
L 247 2638 
L 247 2863 
L 803 2863 
L 803 3050 
Q 803 3478 940 3775 
Q 1078 4072 1361 4255 
Q 1644 4438 1997 4438 
Q 2325 4438 2600 4225 
Q 2781 4084 2781 3909 
Q 2781 3816 2700 3733 
Q 2619 3650 2525 3650 
Q 2453 3650 2373 3701 
Q 2294 3753 2178 3923 
Q 2063 4094 1966 4153 
Q 1869 4213 1750 4213 
Q 1606 4213 1506 4136 
Q 1406 4059 1362 3898 
Q 1319 3738 1319 3069 
L 1319 2863 
L 2056 2863 
L 2056 2638 
L 1319 2638 
z
" transform="scale(0.015625)"/>
       <path id="TimesNewRomanPSMT-75" d="M 2709 2863 
L 2709 1128 
Q 2709 631 2732 520 
Q 2756 409 2807 365 
Q 2859 322 2928 322 
Q 3025 322 3147 375 
L 3191 266 
L 2334 -88 
L 2194 -88 
L 2194 519 
Q 1825 119 1631 15 
Q 1438 -88 1222 -88 
Q 981 -88 804 51 
Q 628 191 559 409 
Q 491 628 491 1028 
L 491 2306 
Q 491 2509 447 2587 
Q 403 2666 317 2708 
Q 231 2750 6 2747 
L 6 2863 
L 1009 2863 
L 1009 947 
Q 1009 547 1148 422 
Q 1288 297 1484 297 
Q 1619 297 1789 381 
Q 1959 466 2194 703 
L 2194 2325 
Q 2194 2569 2105 2655 
Q 2016 2741 1734 2747 
L 1734 2863 
L 2709 2863 
z
" transform="scale(0.015625)"/>
       <path id="TimesNewRomanPSMT-73" d="M 2050 2947 
L 2050 1972 
L 1947 1972 
Q 1828 2431 1642 2597 
Q 1456 2763 1169 2763 
Q 950 2763 815 2647 
Q 681 2531 681 2391 
Q 681 2216 781 2091 
Q 878 1963 1175 1819 
L 1631 1597 
Q 2266 1288 2266 781 
Q 2266 391 1970 151 
Q 1675 -88 1309 -88 
Q 1047 -88 709 6 
Q 606 38 541 38 
Q 469 38 428 -44 
L 325 -44 
L 325 978 
L 428 978 
Q 516 541 762 319 
Q 1009 97 1316 97 
Q 1531 97 1667 223 
Q 1803 350 1803 528 
Q 1803 744 1651 891 
Q 1500 1038 1047 1263 
Q 594 1488 453 1669 
Q 313 1847 313 2119 
Q 313 2472 555 2709 
Q 797 2947 1181 2947 
Q 1350 2947 1591 2875 
Q 1750 2828 1803 2828 
Q 1853 2828 1881 2850 
Q 1909 2872 1947 2947 
L 2050 2947 
z
" transform="scale(0.015625)"/>
       <path id="TimesNewRomanPSMT-6f" d="M 1600 2947 
Q 2250 2947 2644 2453 
Q 2978 2031 2978 1484 
Q 2978 1100 2793 706 
Q 2609 313 2286 112 
Q 1963 -88 1566 -88 
Q 919 -88 538 428 
Q 216 863 216 1403 
Q 216 1797 411 2186 
Q 606 2575 925 2761 
Q 1244 2947 1600 2947 
z
M 1503 2744 
Q 1338 2744 1170 2645 
Q 1003 2547 900 2300 
Q 797 2053 797 1666 
Q 797 1041 1045 587 
Q 1294 134 1700 134 
Q 2003 134 2200 384 
Q 2397 634 2397 1244 
Q 2397 2006 2069 2444 
Q 1847 2744 1503 2744 
z
" transform="scale(0.015625)"/>
       <path id="TimesNewRomanPSMT-6e" d="M 1034 2341 
Q 1538 2947 1994 2947 
Q 2228 2947 2397 2830 
Q 2566 2713 2666 2444 
Q 2734 2256 2734 1869 
L 2734 647 
Q 2734 375 2778 278 
Q 2813 200 2889 156 
Q 2966 113 3172 113 
L 3172 0 
L 1756 0 
L 1756 113 
L 1816 113 
Q 2016 113 2095 173 
Q 2175 234 2206 353 
Q 2219 400 2219 647 
L 2219 1819 
Q 2219 2209 2117 2386 
Q 2016 2563 1775 2563 
Q 1403 2563 1034 2156 
L 1034 647 
Q 1034 356 1069 288 
Q 1113 197 1189 155 
Q 1266 113 1500 113 
L 1500 0 
L 84 0 
L 84 113 
L 147 113 
Q 366 113 442 223 
Q 519 334 519 647 
L 519 1709 
Q 519 2225 495 2337 
Q 472 2450 423 2490 
Q 375 2531 294 2531 
Q 206 2531 84 2484 
L 38 2597 
L 900 2947 
L 1034 2947 
L 1034 2341 
z
" transform="scale(0.015625)"/>
       <path id="TimesNewRomanPSMT-20" transform="scale(0.015625)"/>
       <path id="TimesNewRomanPSMT-53" d="M 2934 4334 
L 2934 2869 
L 2819 2869 
Q 2763 3291 2617 3541 
Q 2472 3791 2203 3937 
Q 1934 4084 1647 4084 
Q 1322 4084 1109 3886 
Q 897 3688 897 3434 
Q 897 3241 1031 3081 
Q 1225 2847 1953 2456 
Q 2547 2138 2764 1967 
Q 2981 1797 3098 1565 
Q 3216 1334 3216 1081 
Q 3216 600 2842 251 
Q 2469 -97 1881 -97 
Q 1697 -97 1534 -69 
Q 1438 -53 1133 45 
Q 828 144 747 144 
Q 669 144 623 97 
Q 578 50 556 -97 
L 441 -97 
L 441 1356 
L 556 1356 
Q 638 900 775 673 
Q 913 447 1195 297 
Q 1478 147 1816 147 
Q 2206 147 2432 353 
Q 2659 559 2659 841 
Q 2659 997 2573 1156 
Q 2488 1316 2306 1453 
Q 2184 1547 1640 1851 
Q 1097 2156 867 2337 
Q 638 2519 519 2737 
Q 400 2956 400 3219 
Q 400 3675 750 4004 
Q 1100 4334 1641 4334 
Q 1978 4334 2356 4169 
Q 2531 4091 2603 4091 
Q 2684 4091 2736 4139 
Q 2788 4188 2819 4334 
L 2934 4334 
z
" transform="scale(0.015625)"/>
       <path id="TimesNewRomanPSMT-74" d="M 1031 3803 
L 1031 2863 
L 1700 2863 
L 1700 2644 
L 1031 2644 
L 1031 788 
Q 1031 509 1111 412 
Q 1191 316 1316 316 
Q 1419 316 1516 380 
Q 1613 444 1666 569 
L 1788 569 
Q 1678 263 1478 108 
Q 1278 -47 1066 -47 
Q 922 -47 784 33 
Q 647 113 581 261 
Q 516 409 516 719 
L 516 2644 
L 63 2644 
L 63 2747 
Q 234 2816 414 2980 
Q 594 3144 734 3369 
Q 806 3488 934 3803 
L 1031 3803 
z
" transform="scale(0.015625)"/>
       <path id="TimesNewRomanPSMT-65" d="M 681 1784 
Q 678 1147 991 784 
Q 1303 422 1725 422 
Q 2006 422 2214 576 
Q 2422 731 2563 1106 
L 2659 1044 
Q 2594 616 2278 264 
Q 1963 -88 1488 -88 
Q 972 -88 605 314 
Q 238 716 238 1394 
Q 238 2128 614 2539 
Q 991 2950 1559 2950 
Q 2041 2950 2350 2633 
Q 2659 2316 2659 1784 
L 681 1784 
z
M 681 1966 
L 2006 1966 
Q 1991 2241 1941 2353 
Q 1863 2528 1708 2628 
Q 1553 2728 1384 2728 
Q 1125 2728 920 2526 
Q 716 2325 681 1966 
z
" transform="scale(0.015625)"/>
       <path id="TimesNewRomanPSMT-70" d="M -6 2578 
L 875 2934 
L 994 2934 
L 994 2266 
Q 1216 2644 1439 2795 
Q 1663 2947 1909 2947 
Q 2341 2947 2628 2609 
Q 2981 2197 2981 1534 
Q 2981 794 2556 309 
Q 2206 -88 1675 -88 
Q 1444 -88 1275 -22 
Q 1150 25 994 166 
L 994 -706 
Q 994 -1000 1030 -1079 
Q 1066 -1159 1155 -1206 
Q 1244 -1253 1478 -1253 
L 1478 -1369 
L -22 -1369 
L -22 -1253 
L 56 -1253 
Q 228 -1256 350 -1188 
Q 409 -1153 442 -1076 
Q 475 -1000 475 -688 
L 475 2019 
Q 475 2297 450 2372 
Q 425 2447 370 2484 
Q 316 2522 222 2522 
Q 147 2522 31 2478 
L -6 2578 
z
M 994 2081 
L 994 1013 
Q 994 666 1022 556 
Q 1066 375 1236 237 
Q 1406 100 1666 100 
Q 1978 100 2172 344 
Q 2425 663 2425 1241 
Q 2425 1897 2138 2250 
Q 1938 2494 1663 2494 
Q 1513 2494 1366 2419 
Q 1253 2363 994 2081 
z
" transform="scale(0.015625)"/>
      </defs>
      <use xlink:href="#TimesNewRomanPSMT-44"/>
      <use xlink:href="#TimesNewRomanPSMT-69" x="72.216797"/>
      <use xlink:href="#TimesNewRomanPSMT-66" x="100"/>
      <use xlink:href="#TimesNewRomanPSMT-66" x="131.550781"/>
      <use xlink:href="#TimesNewRomanPSMT-75" x="164.851562"/>
      <use xlink:href="#TimesNewRomanPSMT-73" x="214.851562"/>
      <use xlink:href="#TimesNewRomanPSMT-69" x="253.767578"/>
      <use xlink:href="#TimesNewRomanPSMT-6f" x="281.550781"/>
      <use xlink:href="#TimesNewRomanPSMT-6e" x="331.550781"/>
      <use xlink:href="#TimesNewRomanPSMT-20" x="381.550781"/>
      <use xlink:href="#TimesNewRomanPSMT-53" x="406.550781"/>
      <use xlink:href="#TimesNewRomanPSMT-74" x="462.166016"/>
      <use xlink:href="#TimesNewRomanPSMT-65" x="489.949219"/>
      <use xlink:href="#TimesNewRomanPSMT-70" x="534.333984"/>
      <use xlink:href="#TimesNewRomanPSMT-73" x="584.333984"/>
     </g>
    </g>
   </g>
   <g id="matplotlib.axis_2">
    <g id="ytick_1">
     <g id="line2d_7">
      <path d="M 48.86 241.732142 
L 279.9 241.732142 
" clip-path="url(#pd65a6a977d)" style="fill: none; stroke: #b0b0b0; stroke-width: 0.8; stroke-linecap: square"/>
     </g>
     <g id="line2d_8">
      <defs>
       <path id="m23406a2aa2" d="M 0 0 
L -3.5 0 
" style="stroke: #000000; stroke-width: 0.8"/>
      </defs>
      <g>
       <use xlink:href="#m23406a2aa2" x="48.86" y="241.732142" style="stroke: #000000; stroke-width: 0.8"/>
      </g>
     </g>
     <g id="text_5">
      <!-- 0.0 -->
      <g transform="translate(29.36 245.204017) scale(0.1 -0.1)">
       <defs>
        <path id="TimesNewRomanPSMT-2e" d="M 800 606 
Q 947 606 1047 504 
Q 1147 403 1147 259 
Q 1147 116 1045 14 
Q 944 -88 800 -88 
Q 656 -88 554 14 
Q 453 116 453 259 
Q 453 406 554 506 
Q 656 606 800 606 
z
" transform="scale(0.015625)"/>
       </defs>
       <use xlink:href="#TimesNewRomanPSMT-30"/>
       <use xlink:href="#TimesNewRomanPSMT-2e" x="50"/>
       <use xlink:href="#TimesNewRomanPSMT-30" x="75"/>
      </g>
     </g>
    </g>
    <g id="ytick_2">
     <g id="line2d_9">
      <path d="M 48.86 194.425977 
L 279.9 194.425977 
" clip-path="url(#pd65a6a977d)" style="fill: none; stroke: #b0b0b0; stroke-width: 0.8; stroke-linecap: square"/>
     </g>
     <g id="line2d_10">
      <g>
       <use xlink:href="#m23406a2aa2" x="48.86" y="194.425977" style="stroke: #000000; stroke-width: 0.8"/>
      </g>
     </g>
     <g id="text_6">
      <!-- 0.2 -->
      <g transform="translate(29.36 197.897852) scale(0.1 -0.1)">
       <use xlink:href="#TimesNewRomanPSMT-30"/>
       <use xlink:href="#TimesNewRomanPSMT-2e" x="50"/>
       <use xlink:href="#TimesNewRomanPSMT-32" x="75"/>
      </g>
     </g>
    </g>
    <g id="ytick_3">
     <g id="line2d_11">
      <path d="M 48.86 147.119812 
L 279.9 147.119812 
" clip-path="url(#pd65a6a977d)" style="fill: none; stroke: #b0b0b0; stroke-width: 0.8; stroke-linecap: square"/>
     </g>
     <g id="line2d_12">
      <g>
       <use xlink:href="#m23406a2aa2" x="48.86" y="147.119812" style="stroke: #000000; stroke-width: 0.8"/>
      </g>
     </g>
     <g id="text_7">
      <!-- 0.4 -->
      <g transform="translate(29.36 150.591687) scale(0.1 -0.1)">
       <use xlink:href="#TimesNewRomanPSMT-30"/>
       <use xlink:href="#TimesNewRomanPSMT-2e" x="50"/>
       <use xlink:href="#TimesNewRomanPSMT-34" x="75"/>
      </g>
     </g>
    </g>
    <g id="ytick_4">
     <g id="line2d_13">
      <path d="M 48.86 99.813647 
L 279.9 99.813647 
" clip-path="url(#pd65a6a977d)" style="fill: none; stroke: #b0b0b0; stroke-width: 0.8; stroke-linecap: square"/>
     </g>
     <g id="line2d_14">
      <g>
       <use xlink:href="#m23406a2aa2" x="48.86" y="99.813647" style="stroke: #000000; stroke-width: 0.8"/>
      </g>
     </g>
     <g id="text_8">
      <!-- 0.6 -->
      <g transform="translate(29.36 103.285522) scale(0.1 -0.1)">
       <defs>
        <path id="TimesNewRomanPSMT-36" d="M 2869 4325 
L 2869 4209 
Q 2456 4169 2195 4045 
Q 1934 3922 1679 3669 
Q 1425 3416 1258 3105 
Q 1091 2794 978 2366 
Q 1428 2675 1881 2675 
Q 2316 2675 2634 2325 
Q 2953 1975 2953 1425 
Q 2953 894 2631 456 
Q 2244 -75 1606 -75 
Q 1172 -75 869 213 
Q 275 772 275 1663 
Q 275 2231 503 2743 
Q 731 3256 1154 3653 
Q 1578 4050 1965 4187 
Q 2353 4325 2688 4325 
L 2869 4325 
z
M 925 2138 
Q 869 1716 869 1456 
Q 869 1156 980 804 
Q 1091 453 1309 247 
Q 1469 100 1697 100 
Q 1969 100 2183 356 
Q 2397 613 2397 1088 
Q 2397 1622 2184 2012 
Q 1972 2403 1581 2403 
Q 1463 2403 1327 2353 
Q 1191 2303 925 2138 
z
" transform="scale(0.015625)"/>
       </defs>
       <use xlink:href="#TimesNewRomanPSMT-30"/>
       <use xlink:href="#TimesNewRomanPSMT-2e" x="50"/>
       <use xlink:href="#TimesNewRomanPSMT-36" x="75"/>
      </g>
     </g>
    </g>
    <g id="ytick_5">
     <g id="line2d_15">
      <path d="M 48.86 52.507482 
L 279.9 52.507482 
" clip-path="url(#pd65a6a977d)" style="fill: none; stroke: #b0b0b0; stroke-width: 0.8; stroke-linecap: square"/>
     </g>
     <g id="line2d_16">
      <g>
       <use xlink:href="#m23406a2aa2" x="48.86" y="52.507482" style="stroke: #000000; stroke-width: 0.8"/>
      </g>
     </g>
     <g id="text_9">
      <!-- 0.8 -->
      <g transform="translate(29.36 55.979357) scale(0.1 -0.1)">
       <defs>
        <path id="TimesNewRomanPSMT-38" d="M 1228 2134 
Q 725 2547 579 2797 
Q 434 3047 434 3316 
Q 434 3728 753 4026 
Q 1072 4325 1600 4325 
Q 2113 4325 2425 4047 
Q 2738 3769 2738 3413 
Q 2738 3175 2569 2928 
Q 2400 2681 1866 2347 
Q 2416 1922 2594 1678 
Q 2831 1359 2831 1006 
Q 2831 559 2490 242 
Q 2150 -75 1597 -75 
Q 994 -75 656 303 
Q 388 606 388 966 
Q 388 1247 577 1523 
Q 766 1800 1228 2134 
z
M 1719 2469 
Q 2094 2806 2194 3001 
Q 2294 3197 2294 3444 
Q 2294 3772 2109 3958 
Q 1925 4144 1606 4144 
Q 1288 4144 1088 3959 
Q 888 3775 888 3528 
Q 888 3366 970 3203 
Q 1053 3041 1206 2894 
L 1719 2469 
z
M 1375 2016 
Q 1116 1797 991 1539 
Q 866 1281 866 981 
Q 866 578 1086 336 
Q 1306 94 1647 94 
Q 1984 94 2187 284 
Q 2391 475 2391 747 
Q 2391 972 2272 1150 
Q 2050 1481 1375 2016 
z
" transform="scale(0.015625)"/>
       </defs>
       <use xlink:href="#TimesNewRomanPSMT-30"/>
       <use xlink:href="#TimesNewRomanPSMT-2e" x="50"/>
       <use xlink:href="#TimesNewRomanPSMT-38" x="75"/>
      </g>
     </g>
    </g>
    <g id="text_10">
     <!-- Membership Degree -->
     <g transform="translate(23.202187 170.338594) rotate(-90) scale(0.1 -0.1)">
      <defs>
       <path id="TimesNewRomanPSMT-4d" d="M 2619 0 
L 981 3566 
L 981 734 
Q 981 344 1066 247 
Q 1181 116 1431 116 
L 1581 116 
L 1581 0 
L 106 0 
L 106 116 
L 256 116 
Q 525 116 638 278 
Q 706 378 706 734 
L 706 3503 
Q 706 3784 644 3909 
Q 600 4000 483 4061 
Q 366 4122 106 4122 
L 106 4238 
L 1306 4238 
L 2844 922 
L 4356 4238 
L 5556 4238 
L 5556 4122 
L 5409 4122 
Q 5138 4122 5025 3959 
Q 4956 3859 4956 3503 
L 4956 734 
Q 4956 344 5044 247 
Q 5159 116 5409 116 
L 5556 116 
L 5556 0 
L 3756 0 
L 3756 116 
L 3906 116 
Q 4178 116 4288 278 
Q 4356 378 4356 734 
L 4356 3566 
L 2722 0 
L 2619 0 
z
" transform="scale(0.015625)"/>
       <path id="TimesNewRomanPSMT-6d" d="M 1050 2338 
Q 1363 2650 1419 2697 
Q 1559 2816 1721 2881 
Q 1884 2947 2044 2947 
Q 2313 2947 2506 2790 
Q 2700 2634 2766 2338 
Q 3088 2713 3309 2830 
Q 3531 2947 3766 2947 
Q 3994 2947 4170 2830 
Q 4347 2713 4450 2447 
Q 4519 2266 4519 1878 
L 4519 647 
Q 4519 378 4559 278 
Q 4591 209 4675 161 
Q 4759 113 4950 113 
L 4950 0 
L 3538 0 
L 3538 113 
L 3597 113 
Q 3781 113 3884 184 
Q 3956 234 3988 344 
Q 4000 397 4000 647 
L 4000 1878 
Q 4000 2228 3916 2372 
Q 3794 2572 3525 2572 
Q 3359 2572 3192 2489 
Q 3025 2406 2788 2181 
L 2781 2147 
L 2788 2013 
L 2788 647 
Q 2788 353 2820 281 
Q 2853 209 2943 161 
Q 3034 113 3253 113 
L 3253 0 
L 1806 0 
L 1806 113 
Q 2044 113 2133 169 
Q 2222 225 2256 338 
Q 2272 391 2272 647 
L 2272 1878 
Q 2272 2228 2169 2381 
Q 2031 2581 1784 2581 
Q 1616 2581 1450 2491 
Q 1191 2353 1050 2181 
L 1050 647 
Q 1050 366 1089 281 
Q 1128 197 1204 155 
Q 1281 113 1516 113 
L 1516 0 
L 100 0 
L 100 113 
Q 297 113 375 155 
Q 453 197 493 289 
Q 534 381 534 647 
L 534 1741 
Q 534 2213 506 2350 
Q 484 2453 437 2492 
Q 391 2531 309 2531 
Q 222 2531 100 2484 
L 53 2597 
L 916 2947 
L 1050 2947 
L 1050 2338 
z
" transform="scale(0.015625)"/>
       <path id="TimesNewRomanPSMT-62" d="M 984 2369 
Q 1400 2947 1881 2947 
Q 2322 2947 2650 2570 
Q 2978 2194 2978 1541 
Q 2978 778 2472 313 
Q 2038 -88 1503 -88 
Q 1253 -88 995 3 
Q 738 94 469 275 
L 469 3241 
Q 469 3728 445 3840 
Q 422 3953 372 3993 
Q 322 4034 247 4034 
Q 159 4034 28 3984 
L -16 4094 
L 844 4444 
L 984 4444 
L 984 2369 
z
M 984 2169 
L 984 456 
Q 1144 300 1314 220 
Q 1484 141 1663 141 
Q 1947 141 2192 453 
Q 2438 766 2438 1363 
Q 2438 1913 2192 2208 
Q 1947 2503 1634 2503 
Q 1469 2503 1303 2419 
Q 1178 2356 984 2169 
z
" transform="scale(0.015625)"/>
       <path id="TimesNewRomanPSMT-72" d="M 1038 2947 
L 1038 2303 
Q 1397 2947 1775 2947 
Q 1947 2947 2059 2842 
Q 2172 2738 2172 2600 
Q 2172 2478 2090 2393 
Q 2009 2309 1897 2309 
Q 1788 2309 1652 2417 
Q 1516 2525 1450 2525 
Q 1394 2525 1328 2463 
Q 1188 2334 1038 2041 
L 1038 669 
Q 1038 431 1097 309 
Q 1138 225 1241 169 
Q 1344 113 1538 113 
L 1538 0 
L 72 0 
L 72 113 
Q 291 113 397 181 
Q 475 231 506 341 
Q 522 394 522 644 
L 522 1753 
Q 522 2253 501 2348 
Q 481 2444 426 2487 
Q 372 2531 291 2531 
Q 194 2531 72 2484 
L 41 2597 
L 906 2947 
L 1038 2947 
z
" transform="scale(0.015625)"/>
       <path id="TimesNewRomanPSMT-68" d="M 1041 4444 
L 1041 2350 
Q 1388 2731 1591 2839 
Q 1794 2947 1997 2947 
Q 2241 2947 2416 2812 
Q 2591 2678 2675 2391 
Q 2734 2191 2734 1659 
L 2734 647 
Q 2734 375 2778 275 
Q 2809 200 2884 156 
Q 2959 113 3159 113 
L 3159 0 
L 1753 0 
L 1753 113 
L 1819 113 
Q 2019 113 2097 173 
Q 2175 234 2206 353 
Q 2216 403 2216 647 
L 2216 1659 
Q 2216 2128 2167 2275 
Q 2119 2422 2012 2495 
Q 1906 2569 1756 2569 
Q 1603 2569 1437 2487 
Q 1272 2406 1041 2159 
L 1041 647 
Q 1041 353 1073 281 
Q 1106 209 1195 161 
Q 1284 113 1503 113 
L 1503 0 
L 84 0 
L 84 113 
Q 275 113 384 172 
Q 447 203 484 290 
Q 522 378 522 647 
L 522 3238 
Q 522 3728 498 3840 
Q 475 3953 426 3993 
Q 378 4034 297 4034 
Q 231 4034 84 3984 
L 41 4094 
L 897 4444 
L 1041 4444 
z
" transform="scale(0.015625)"/>
       <path id="TimesNewRomanPSMT-67" d="M 966 1044 
Q 703 1172 562 1401 
Q 422 1631 422 1909 
Q 422 2334 742 2640 
Q 1063 2947 1563 2947 
Q 1972 2947 2272 2747 
L 2878 2747 
Q 3013 2747 3034 2739 
Q 3056 2731 3066 2713 
Q 3084 2684 3084 2613 
Q 3084 2531 3069 2500 
Q 3059 2484 3036 2475 
Q 3013 2466 2878 2466 
L 2506 2466 
Q 2681 2241 2681 1891 
Q 2681 1491 2375 1206 
Q 2069 922 1553 922 
Q 1341 922 1119 984 
Q 981 866 932 777 
Q 884 688 884 625 
Q 884 572 936 522 
Q 988 472 1138 450 
Q 1225 438 1575 428 
Q 2219 413 2409 384 
Q 2700 344 2873 169 
Q 3047 -6 3047 -263 
Q 3047 -616 2716 -925 
Q 2228 -1381 1444 -1381 
Q 841 -1381 425 -1109 
Q 191 -953 191 -784 
Q 191 -709 225 -634 
Q 278 -519 444 -313 
Q 466 -284 763 25 
Q 600 122 533 198 
Q 466 275 466 372 
Q 466 481 555 628 
Q 644 775 966 1044 
z
M 1509 2797 
Q 1278 2797 1122 2612 
Q 966 2428 966 2047 
Q 966 1553 1178 1281 
Q 1341 1075 1591 1075 
Q 1828 1075 1981 1253 
Q 2134 1431 2134 1813 
Q 2134 2309 1919 2591 
Q 1759 2797 1509 2797 
z
M 934 0 
Q 788 -159 713 -296 
Q 638 -434 638 -550 
Q 638 -700 819 -813 
Q 1131 -1006 1722 -1006 
Q 2284 -1006 2551 -807 
Q 2819 -609 2819 -384 
Q 2819 -222 2659 -153 
Q 2497 -84 2016 -72 
Q 1313 -53 934 0 
z
" transform="scale(0.015625)"/>
      </defs>
      <use xlink:href="#TimesNewRomanPSMT-4d"/>
      <use xlink:href="#TimesNewRomanPSMT-65" x="88.916016"/>
      <use xlink:href="#TimesNewRomanPSMT-6d" x="133.300781"/>
      <use xlink:href="#TimesNewRomanPSMT-62" x="211.083984"/>
      <use xlink:href="#TimesNewRomanPSMT-65" x="261.083984"/>
      <use xlink:href="#TimesNewRomanPSMT-72" x="305.46875"/>
      <use xlink:href="#TimesNewRomanPSMT-73" x="338.769531"/>
      <use xlink:href="#TimesNewRomanPSMT-68" x="377.685547"/>
      <use xlink:href="#TimesNewRomanPSMT-69" x="427.685547"/>
      <use xlink:href="#TimesNewRomanPSMT-70" x="455.46875"/>
      <use xlink:href="#TimesNewRomanPSMT-20" x="505.46875"/>
      <use xlink:href="#TimesNewRomanPSMT-44" x="530.46875"/>
      <use xlink:href="#TimesNewRomanPSMT-65" x="602.685547"/>
      <use xlink:href="#TimesNewRomanPSMT-67" x="647.070312"/>
      <use xlink:href="#TimesNewRomanPSMT-72" x="697.070312"/>
      <use xlink:href="#TimesNewRomanPSMT-65" x="730.371094"/>
      <use xlink:href="#TimesNewRomanPSMT-65" x="774.755859"/>
     </g>
    </g>
   </g>
   <g id="line2d_17">
    <path d="M 59.361818 163.67697 
L 63.648275 163.67697 
L 67.934731 163.67697 
L 72.221187 163.67697 
L 76.507644 163.67697 
L 80.7941 163.67697 
L 85.080557 163.67697 
L 89.367013 163.67697 
L 93.653469 163.67697 
L 97.939926 163.67697 
L 102.226382 163.67697 
L 106.512839 163.67697 
L 110.799295 163.67697 
L 115.085751 163.67697 
L 119.372208 163.67697 
L 123.658664 163.67697 
L 127.945121 163.67697 
L 132.231577 163.67697 
L 136.518033 163.67697 
L 140.80449 163.67697 
L 145.090946 163.67697 
L 149.377403 163.67697 
L 153.663859 163.67697 
L 157.950315 163.67697 
L 162.236772 163.67697 
L 166.523228 163.67697 
L 170.809685 163.67697 
L 175.096141 163.67697 
L 179.382597 163.67697 
L 183.669054 163.67697 
L 187.95551 163.67697 
L 192.241967 163.67697 
L 196.528423 163.67697 
L 200.814879 163.67697 
L 205.101336 163.67697 
L 209.387792 163.67697 
L 213.674249 163.67697 
L 217.960705 163.67697 
L 222.247161 163.67697 
L 226.533618 163.67697 
L 230.820074 163.67697 
L 235.106531 163.67697 
L 239.392987 163.67697 
L 243.679443 163.67697 
L 247.9659 163.67697 
L 252.252356 163.67697 
L 256.538813 163.67697 
L 260.825269 163.67697 
L 265.111725 163.67697 
L 269.398182 163.67697 
" clip-path="url(#pd65a6a977d)" style="fill: none; stroke-dasharray: 3.7,1.6; stroke-dashoffset: 0; stroke: #ff0000"/>
   </g>
   <g id="patch_3">
    <path d="M 48.86 242.56 
L 48.86 16.2 
" style="fill: none; stroke: #000000; stroke-width: 0.8; stroke-linejoin: miter; stroke-linecap: square"/>
   </g>
   <g id="patch_4">
    <path d="M 279.9 242.56 
L 279.9 16.2 
" style="fill: none; stroke: #000000; stroke-width: 0.8; stroke-linejoin: miter; stroke-linecap: square"/>
   </g>
   <g id="patch_5">
    <path d="M 48.86 242.56 
L 279.9 242.56 
" style="fill: none; stroke: #000000; stroke-width: 0.8; stroke-linejoin: miter; stroke-linecap: square"/>
   </g>
   <g id="patch_6">
    <path d="M 48.86 16.2 
L 279.9 16.2 
" style="fill: none; stroke: #000000; stroke-width: 0.8; stroke-linejoin: miter; stroke-linecap: square"/>
   </g>
   <g id="legend_1">
    <g id="patch_7">
     <path d="M 201.473437 66.617188 
L 272.9 66.617188 
Q 274.9 66.617188 274.9 64.617188 
L 274.9 23.2 
Q 274.9 21.2 272.9 21.2 
L 201.473437 21.2 
Q 199.473437 21.2 199.473437 23.2 
L 199.473437 64.617188 
Q 199.473437 66.617188 201.473437 66.617188 
z
" style="fill: #ffffff; opacity: 0.8; stroke: #cccccc; stroke-linejoin: miter"/>
    </g>
    <g id="PathCollection_4">
     <g>
      <use xlink:href="#med794599c8" x="213.473437" y="29.575" style="fill: #87ceeb; stroke: #87ceeb"/>
     </g>
    </g>
    <g id="text_11">
     <!-- landspace -->
     <g transform="translate(231.473437 32.2) scale(0.1 -0.1)">
      <defs>
       <path id="TimesNewRomanPSMT-6c" d="M 1184 4444 
L 1184 647 
Q 1184 378 1223 290 
Q 1263 203 1344 158 
Q 1425 113 1647 113 
L 1647 0 
L 244 0 
L 244 113 
Q 441 113 512 153 
Q 584 194 625 287 
Q 666 381 666 647 
L 666 3247 
Q 666 3731 644 3842 
Q 622 3953 573 3993 
Q 525 4034 450 4034 
Q 369 4034 244 3984 
L 191 4094 
L 1044 4444 
L 1184 4444 
z
" transform="scale(0.015625)"/>
       <path id="TimesNewRomanPSMT-61" d="M 1822 413 
Q 1381 72 1269 19 
Q 1100 -59 909 -59 
Q 613 -59 420 144 
Q 228 347 228 678 
Q 228 888 322 1041 
Q 450 1253 767 1440 
Q 1084 1628 1822 1897 
L 1822 2009 
Q 1822 2438 1686 2597 
Q 1550 2756 1291 2756 
Q 1094 2756 978 2650 
Q 859 2544 859 2406 
L 866 2225 
Q 866 2081 792 2003 
Q 719 1925 600 1925 
Q 484 1925 411 2006 
Q 338 2088 338 2228 
Q 338 2497 613 2722 
Q 888 2947 1384 2947 
Q 1766 2947 2009 2819 
Q 2194 2722 2281 2516 
Q 2338 2381 2338 1966 
L 2338 994 
Q 2338 584 2353 492 
Q 2369 400 2405 369 
Q 2441 338 2488 338 
Q 2538 338 2575 359 
Q 2641 400 2828 588 
L 2828 413 
Q 2478 -56 2159 -56 
Q 2006 -56 1915 50 
Q 1825 156 1822 413 
z
M 1822 616 
L 1822 1706 
Q 1350 1519 1213 1441 
Q 966 1303 859 1153 
Q 753 1003 753 825 
Q 753 600 887 451 
Q 1022 303 1197 303 
Q 1434 303 1822 616 
z
" transform="scale(0.015625)"/>
       <path id="TimesNewRomanPSMT-64" d="M 2222 322 
Q 2013 103 1813 7 
Q 1613 -88 1381 -88 
Q 913 -88 563 304 
Q 213 697 213 1313 
Q 213 1928 600 2439 
Q 988 2950 1597 2950 
Q 1975 2950 2222 2709 
L 2222 3238 
Q 2222 3728 2198 3840 
Q 2175 3953 2125 3993 
Q 2075 4034 2000 4034 
Q 1919 4034 1784 3984 
L 1744 4094 
L 2597 4444 
L 2738 4444 
L 2738 1134 
Q 2738 631 2761 520 
Q 2784 409 2836 365 
Q 2888 322 2956 322 
Q 3041 322 3181 375 
L 3216 266 
L 2366 -88 
L 2222 -88 
L 2222 322 
z
M 2222 541 
L 2222 2016 
Q 2203 2228 2109 2403 
Q 2016 2578 1861 2667 
Q 1706 2756 1559 2756 
Q 1284 2756 1069 2509 
Q 784 2184 784 1559 
Q 784 928 1059 592 
Q 1334 256 1672 256 
Q 1956 256 2222 541 
z
" transform="scale(0.015625)"/>
       <path id="TimesNewRomanPSMT-63" d="M 2631 1088 
Q 2516 522 2178 217 
Q 1841 -88 1431 -88 
Q 944 -88 581 321 
Q 219 731 219 1428 
Q 219 2103 620 2525 
Q 1022 2947 1584 2947 
Q 2006 2947 2278 2723 
Q 2550 2500 2550 2259 
Q 2550 2141 2473 2067 
Q 2397 1994 2259 1994 
Q 2075 1994 1981 2113 
Q 1928 2178 1911 2362 
Q 1894 2547 1784 2644 
Q 1675 2738 1481 2738 
Q 1169 2738 978 2506 
Q 725 2200 725 1697 
Q 725 1184 976 792 
Q 1228 400 1656 400 
Q 1963 400 2206 609 
Q 2378 753 2541 1131 
L 2631 1088 
z
" transform="scale(0.015625)"/>
      </defs>
      <use xlink:href="#TimesNewRomanPSMT-6c"/>
      <use xlink:href="#TimesNewRomanPSMT-61" x="27.783203"/>
      <use xlink:href="#TimesNewRomanPSMT-6e" x="72.167969"/>
      <use xlink:href="#TimesNewRomanPSMT-64" x="122.167969"/>
      <use xlink:href="#TimesNewRomanPSMT-73" x="172.167969"/>
      <use xlink:href="#TimesNewRomanPSMT-70" x="211.083984"/>
      <use xlink:href="#TimesNewRomanPSMT-61" x="261.083984"/>
      <use xlink:href="#TimesNewRomanPSMT-63" x="305.46875"/>
      <use xlink:href="#TimesNewRomanPSMT-65" x="349.853516"/>
     </g>
    </g>
    <g id="PathCollection_5">
     <g>
      <use xlink:href="#m0c1b47cdf4" x="213.473437" y="43.714062" style="fill: #ff8c00; stroke: #ff8c00"/>
     </g>
    </g>
    <g id="text_12">
     <!-- animal -->
     <g transform="translate(231.473437 46.339062) scale(0.1 -0.1)">
      <use xlink:href="#TimesNewRomanPSMT-61"/>
      <use xlink:href="#TimesNewRomanPSMT-6e" x="44.384766"/>
      <use xlink:href="#TimesNewRomanPSMT-69" x="94.384766"/>
      <use xlink:href="#TimesNewRomanPSMT-6d" x="122.167969"/>
      <use xlink:href="#TimesNewRomanPSMT-61" x="199.951172"/>
      <use xlink:href="#TimesNewRomanPSMT-6c" x="244.335938"/>
     </g>
    </g>
    <g id="PathCollection_6">
     <g>
      <use xlink:href="#m85cdeee171" x="213.473437" y="57.853125" style="fill: #708090; stroke: #708090"/>
     </g>
    </g>
    <g id="text_13">
     <!-- human -->
     <g transform="translate(231.473437 60.478125) scale(0.1 -0.1)">
      <use xlink:href="#TimesNewRomanPSMT-68"/>
      <use xlink:href="#TimesNewRomanPSMT-75" x="50"/>
      <use xlink:href="#TimesNewRomanPSMT-6d" x="100"/>
      <use xlink:href="#TimesNewRomanPSMT-61" x="177.783203"/>
      <use xlink:href="#TimesNewRomanPSMT-6e" x="222.167969"/>
     </g>
    </g>
   </g>
  </g>
  <g id="axes_2">
   <g id="patch_8">
    <path d="M 328.76 242.56 
L 559.8 242.56 
L 559.8 16.2 
L 328.76 16.2 
z
" style="fill: #ffffff"/>
   </g>
   <g id="patch_9">
    <path d="M 339.261818 242.56 
L 341.802581 242.56 
L 341.802581 46.381333 
L 339.261818 46.381333 
z
" clip-path="url(#pf1edf83d98)" style="fill: #87ceeb; opacity: 0.6"/>
   </g>
   <g id="patch_10">
    <path d="M 343.496422 242.56 
L 346.037185 242.56 
L 346.037185 92.280974 
L 343.496422 92.280974 
z
" clip-path="url(#pf1edf83d98)" style="fill: #87ceeb; opacity: 0.6"/>
   </g>
   <g id="patch_11">
    <path d="M 347.731026 242.56 
L 350.271789 242.56 
L 350.271789 113.530808 
L 347.731026 113.530808 
z
" clip-path="url(#pf1edf83d98)" style="fill: #87ceeb; opacity: 0.6"/>
   </g>
   <g id="patch_12">
    <path d="M 351.96563 242.56 
L 354.506393 242.56 
L 354.506393 125.784361 
L 351.96563 125.784361 
z
" clip-path="url(#pf1edf83d98)" style="fill: #87ceeb; opacity: 0.6"/>
   </g>
   <g id="patch_13">
    <path d="M 356.200235 242.56 
L 358.740997 242.56 
L 358.740997 133.756553 
L 356.200235 133.756553 
z
" clip-path="url(#pf1edf83d98)" style="fill: #87ceeb; opacity: 0.6"/>
   </g>
   <g id="patch_14">
    <path d="M 360.434839 242.56 
L 362.975601 242.56 
L 362.975601 139.357529 
L 360.434839 139.357529 
z
" clip-path="url(#pf1edf83d98)" style="fill: #87ceeb; opacity: 0.6"/>
   </g>
   <g id="patch_15">
    <path d="M 364.669443 242.56 
L 367.210205 242.56 
L 367.210205 143.508252 
L 364.669443 143.508252 
z
" clip-path="url(#pf1edf83d98)" style="fill: #87ceeb; opacity: 0.6"/>
   </g>
   <g id="patch_16">
    <path d="M 368.904047 242.56 
L 371.444809 242.56 
L 371.444809 146.707426 
L 368.904047 146.707426 
z
" clip-path="url(#pf1edf83d98)" style="fill: #87ceeb; opacity: 0.6"/>
   </g>
   <g id="patch_17">
    <path d="M 373.138651 242.56 
L 375.679413 242.56 
L 375.679413 149.248613 
L 373.138651 149.248613 
z
" clip-path="url(#pf1edf83d98)" style="fill: #87ceeb; opacity: 0.6"/>
   </g>
   <g id="patch_18">
    <path d="M 377.373255 242.56 
L 379.914018 242.56 
L 379.914018 151.315882 
L 377.373255 151.315882 
z
" clip-path="url(#pf1edf83d98)" style="fill: #87ceeb; opacity: 0.6"/>
   </g>
   <g id="patch_19">
    <path d="M 381.607859 242.56 
L 384.148622 242.56 
L 384.148622 153.030499 
L 381.607859 153.030499 
z
" clip-path="url(#pf1edf83d98)" style="fill: #87ceeb; opacity: 0.6"/>
   </g>
   <g id="patch_20">
    <path d="M 385.842463 242.56 
L 388.383226 242.56 
L 388.383226 154.475609 
L 385.842463 154.475609 
z
" clip-path="url(#pf1edf83d98)" style="fill: #87ceeb; opacity: 0.6"/>
   </g>
   <g id="patch_21">
    <path d="M 390.077067 242.56 
L 392.61783 242.56 
L 392.61783 155.710126 
L 390.077067 155.710126 
z
" clip-path="url(#pf1edf83d98)" style="fill: #87ceeb; opacity: 0.6"/>
   </g>
   <g id="patch_22">
    <path d="M 394.311672 242.56 
L 396.852434 242.56 
L 396.852434 156.776956 
L 394.311672 156.776956 
z
" clip-path="url(#pf1edf83d98)" style="fill: #87ceeb; opacity: 0.6"/>
   </g>
   <g id="patch_23">
    <path d="M 398.546276 242.56 
L 401.087038 242.56 
L 401.087038 157.708094 
L 398.546276 157.708094 
z
" clip-path="url(#pf1edf83d98)" style="fill: #87ceeb; opacity: 0.6"/>
   </g>
   <g id="patch_24">
    <path d="M 402.78088 242.56 
L 405.321642 242.56 
L 405.321642 158.527878 
L 402.78088 158.527878 
z
" clip-path="url(#pf1edf83d98)" style="fill: #87ceeb; opacity: 0.6"/>
   </g>
   <g id="patch_25">
    <path d="M 407.015484 242.56 
L 409.556246 242.56 
L 409.556246 159.255158 
L 407.015484 159.255158 
z
" clip-path="url(#pf1edf83d98)" style="fill: #87ceeb; opacity: 0.6"/>
   </g>
   <g id="patch_26">
    <path d="M 411.250088 242.56 
L 413.79085 242.56 
L 413.79085 159.904754 
L 411.250088 159.904754 
z
" clip-path="url(#pf1edf83d98)" style="fill: #87ceeb; opacity: 0.6"/>
   </g>
   <g id="patch_27">
    <path d="M 415.484692 242.56 
L 418.025455 242.56 
L 418.025455 160.488482 
L 415.484692 160.488482 
z
" clip-path="url(#pf1edf83d98)" style="fill: #87ceeb; opacity: 0.6"/>
   </g>
   <g id="patch_28">
    <path d="M 419.719296 242.56 
L 422.260059 242.56 
L 422.260059 161.015877 
L 419.719296 161.015877 
z
" clip-path="url(#pf1edf83d98)" style="fill: #87ceeb; opacity: 0.6"/>
   </g>
   <g id="patch_29">
    <path d="M 423.9539 242.56 
L 426.494663 242.56 
L 426.494663 161.494718 
L 423.9539 161.494718 
z
" clip-path="url(#pf1edf83d98)" style="fill: #87ceeb; opacity: 0.6"/>
   </g>
   <g id="patch_30">
    <path d="M 428.188504 242.56 
L 430.729267 242.56 
L 430.729267 161.931415 
L 428.188504 161.931415 
z
" clip-path="url(#pf1edf83d98)" style="fill: #87ceeb; opacity: 0.6"/>
   </g>
   <g id="patch_31">
    <path d="M 432.423109 242.56 
L 434.963871 242.56 
L 434.963871 162.331298 
L 432.423109 162.331298 
z
" clip-path="url(#pf1edf83d98)" style="fill: #87ceeb; opacity: 0.6"/>
   </g>
   <g id="patch_32">
    <path d="M 436.657713 242.56 
L 439.198475 242.56 
L 439.198475 162.698833 
L 436.657713 162.698833 
z
" clip-path="url(#pf1edf83d98)" style="fill: #87ceeb; opacity: 0.6"/>
   </g>
   <g id="patch_33">
    <path d="M 440.892317 242.56 
L 443.433079 242.56 
L 443.433079 163.037793 
L 440.892317 163.037793 
z
" clip-path="url(#pf1edf83d98)" style="fill: #87ceeb; opacity: 0.6"/>
   </g>
   <g id="patch_34">
    <path d="M 445.126921 242.56 
L 447.667683 242.56 
L 447.667683 163.351386 
L 445.126921 163.351386 
z
" clip-path="url(#pf1edf83d98)" style="fill: #87ceeb; opacity: 0.6"/>
   </g>
   <g id="patch_35">
    <path d="M 449.361525 242.56 
L 451.902287 242.56 
L 451.902287 163.642356 
L 449.361525 163.642356 
z
" clip-path="url(#pf1edf83d98)" style="fill: #87ceeb; opacity: 0.6"/>
   </g>
   <g id="patch_36">
    <path d="M 453.596129 242.56 
L 456.136891 242.56 
L 456.136891 163.913066 
L 453.596129 163.913066 
z
" clip-path="url(#pf1edf83d98)" style="fill: #87ceeb; opacity: 0.6"/>
   </g>
   <g id="patch_37">
    <path d="M 457.830733 242.56 
L 460.371496 242.56 
L 460.371496 164.165562 
L 457.830733 164.165562 
z
" clip-path="url(#pf1edf83d98)" style="fill: #87ceeb; opacity: 0.6"/>
   </g>
   <g id="patch_38">
    <path d="M 462.065337 242.56 
L 464.6061 242.56 
L 464.6061 164.401622 
L 462.065337 164.401622 
z
" clip-path="url(#pf1edf83d98)" style="fill: #87ceeb; opacity: 0.6"/>
   </g>
   <g id="patch_39">
    <path d="M 466.299941 242.56 
L 468.840704 242.56 
L 468.840704 164.622799 
L 466.299941 164.622799 
z
" clip-path="url(#pf1edf83d98)" style="fill: #87ceeb; opacity: 0.6"/>
   </g>
   <g id="patch_40">
    <path d="M 470.534545 242.56 
L 473.075308 242.56 
L 473.075308 164.830459 
L 470.534545 164.830459 
z
" clip-path="url(#pf1edf83d98)" style="fill: #87ceeb; opacity: 0.6"/>
   </g>
   <g id="patch_41">
    <path d="M 474.76915 242.56 
L 477.309912 242.56 
L 477.309912 165.025803 
L 474.76915 165.025803 
z
" clip-path="url(#pf1edf83d98)" style="fill: #87ceeb; opacity: 0.6"/>
   </g>
   <g id="patch_42">
    <path d="M 479.003754 242.56 
L 481.544516 242.56 
L 481.544516 165.209897 
L 479.003754 165.209897 
z
" clip-path="url(#pf1edf83d98)" style="fill: #87ceeb; opacity: 0.6"/>
   </g>
   <g id="patch_43">
    <path d="M 483.238358 242.56 
L 485.77912 242.56 
L 485.77912 165.383684 
L 483.238358 165.383684 
z
" clip-path="url(#pf1edf83d98)" style="fill: #87ceeb; opacity: 0.6"/>
   </g>
   <g id="patch_44">
    <path d="M 487.472962 242.56 
L 490.013724 242.56 
L 490.013724 165.548006 
L 487.472962 165.548006 
z
" clip-path="url(#pf1edf83d98)" style="fill: #87ceeb; opacity: 0.6"/>
   </g>
   <g id="patch_45">
    <path d="M 491.707566 242.56 
L 494.248328 242.56 
L 494.248328 165.703617 
L 491.707566 165.703617 
z
" clip-path="url(#pf1edf83d98)" style="fill: #87ceeb; opacity: 0.6"/>
   </g>
   <g id="patch_46">
    <path d="M 495.94217 242.56 
L 498.482933 242.56 
L 498.482933 165.851191 
L 495.94217 165.851191 
z
" clip-path="url(#pf1edf83d98)" style="fill: #87ceeb; opacity: 0.6"/>
   </g>
   <g id="patch_47">
    <path d="M 500.176774 242.56 
L 502.717537 242.56 
L 502.717537 165.991335 
L 500.176774 165.991335 
z
" clip-path="url(#pf1edf83d98)" style="fill: #87ceeb; opacity: 0.6"/>
   </g>
   <g id="patch_48">
    <path d="M 504.411378 242.56 
L 506.952141 242.56 
L 506.952141 166.124596 
L 504.411378 166.124596 
z
" clip-path="url(#pf1edf83d98)" style="fill: #87ceeb; opacity: 0.6"/>
   </g>
   <g id="patch_49">
    <path d="M 508.645982 242.56 
L 511.186745 242.56 
L 511.186745 166.25147 
L 508.645982 166.25147 
z
" clip-path="url(#pf1edf83d98)" style="fill: #87ceeb; opacity: 0.6"/>
   </g>
   <g id="patch_50">
    <path d="M 512.880587 242.56 
L 515.421349 242.56 
L 515.421349 166.372404 
L 512.880587 166.372404 
z
" clip-path="url(#pf1edf83d98)" style="fill: #87ceeb; opacity: 0.6"/>
   </g>
   <g id="patch_51">
    <path d="M 517.115191 242.56 
L 519.655953 242.56 
L 519.655953 166.487807 
L 517.115191 166.487807 
z
" clip-path="url(#pf1edf83d98)" style="fill: #87ceeb; opacity: 0.6"/>
   </g>
   <g id="patch_52">
    <path d="M 521.349795 242.56 
L 523.890557 242.56 
L 523.890557 166.598049 
L 521.349795 166.598049 
z
" clip-path="url(#pf1edf83d98)" style="fill: #87ceeb; opacity: 0.6"/>
   </g>
   <g id="patch_53">
    <path d="M 525.584399 242.56 
L 528.125161 242.56 
L 528.125161 166.703469 
L 525.584399 166.703469 
z
" clip-path="url(#pf1edf83d98)" style="fill: #87ceeb; opacity: 0.6"/>
   </g>
   <g id="patch_54">
    <path d="M 529.819003 242.56 
L 532.359765 242.56 
L 532.359765 166.804376 
L 529.819003 166.804376 
z
" clip-path="url(#pf1edf83d98)" style="fill: #87ceeb; opacity: 0.6"/>
   </g>
   <g id="patch_55">
    <path d="M 534.053607 242.56 
L 536.59437 242.56 
L 536.59437 166.901055 
L 534.053607 166.901055 
z
" clip-path="url(#pf1edf83d98)" style="fill: #87ceeb; opacity: 0.6"/>
   </g>
   <g id="patch_56">
    <path d="M 538.288211 242.56 
L 540.828974 242.56 
L 540.828974 166.993765 
L 538.288211 166.993765 
z
" clip-path="url(#pf1edf83d98)" style="fill: #87ceeb; opacity: 0.6"/>
   </g>
   <g id="patch_57">
    <path d="M 542.522815 242.56 
L 545.063578 242.56 
L 545.063578 167.082746 
L 542.522815 167.082746 
z
" clip-path="url(#pf1edf83d98)" style="fill: #87ceeb; opacity: 0.6"/>
   </g>
   <g id="patch_58">
    <path d="M 546.757419 242.56 
L 549.298182 242.56 
L 549.298182 167.168219 
L 546.757419 167.168219 
z
" clip-path="url(#pf1edf83d98)" style="fill: #87ceeb; opacity: 0.6"/>
   </g>
   <g id="patch_59">
    <path d="M 339.261818 46.381333 
L 341.802581 46.381333 
L 341.802581 37.758095 
L 339.261818 37.758095 
z
" clip-path="url(#pf1edf83d98)" style="fill: #ff8c00; opacity: 0.6"/>
   </g>
   <g id="patch_60">
    <path d="M 343.496422 92.280974 
L 346.037185 92.280974 
L 346.037185 60.707916 
L 343.496422 60.707916 
z
" clip-path="url(#pf1edf83d98)" style="fill: #ff8c00; opacity: 0.6"/>
   </g>
   <g id="patch_61">
    <path d="M 347.731026 113.530808 
L 350.271789 113.530808 
L 350.271789 71.332832 
L 347.731026 71.332832 
z
" clip-path="url(#pf1edf83d98)" style="fill: #ff8c00; opacity: 0.6"/>
   </g>
   <g id="patch_62">
    <path d="M 351.96563 125.784361 
L 354.506393 125.784361 
L 354.506393 77.459609 
L 351.96563 77.459609 
z
" clip-path="url(#pf1edf83d98)" style="fill: #ff8c00; opacity: 0.6"/>
   </g>
   <g id="patch_63">
    <path d="M 356.200235 133.756553 
L 358.740997 133.756553 
L 358.740997 81.445705 
L 356.200235 81.445705 
z
" clip-path="url(#pf1edf83d98)" style="fill: #ff8c00; opacity: 0.6"/>
   </g>
   <g id="patch_64">
    <path d="M 360.434839 139.357529 
L 362.975601 139.357529 
L 362.975601 84.246193 
L 360.434839 84.246193 
z
" clip-path="url(#pf1edf83d98)" style="fill: #ff8c00; opacity: 0.6"/>
   </g>
   <g id="patch_65">
    <path d="M 364.669443 143.508252 
L 367.210205 143.508252 
L 367.210205 86.321554 
L 364.669443 86.321554 
z
" clip-path="url(#pf1edf83d98)" style="fill: #ff8c00; opacity: 0.6"/>
   </g>
   <g id="patch_66">
    <path d="M 368.904047 146.707426 
L 371.444809 146.707426 
L 371.444809 87.921141 
L 368.904047 87.921141 
z
" clip-path="url(#pf1edf83d98)" style="fill: #ff8c00; opacity: 0.6"/>
   </g>
   <g id="patch_67">
    <path d="M 373.138651 149.248613 
L 375.679413 149.248613 
L 375.679413 89.191735 
L 373.138651 89.191735 
z
" clip-path="url(#pf1edf83d98)" style="fill: #ff8c00; opacity: 0.6"/>
   </g>
   <g id="patch_68">
    <path d="M 377.373255 151.315882 
L 379.914018 151.315882 
L 379.914018 90.225369 
L 377.373255 90.225369 
z
" clip-path="url(#pf1edf83d98)" style="fill: #ff8c00; opacity: 0.6"/>
   </g>
   <g id="patch_69">
    <path d="M 381.607859 153.030499 
L 384.148622 153.030499 
L 384.148622 91.082678 
L 381.607859 91.082678 
z
" clip-path="url(#pf1edf83d98)" style="fill: #ff8c00; opacity: 0.6"/>
   </g>
   <g id="patch_70">
    <path d="M 385.842463 154.475609 
L 388.383226 154.475609 
L 388.383226 91.805233 
L 385.842463 91.805233 
z
" clip-path="url(#pf1edf83d98)" style="fill: #ff8c00; opacity: 0.6"/>
   </g>
   <g id="patch_71">
    <path d="M 390.077067 155.710126 
L 392.61783 155.710126 
L 392.61783 92.422492 
L 390.077067 92.422492 
z
" clip-path="url(#pf1edf83d98)" style="fill: #ff8c00; opacity: 0.6"/>
   </g>
   <g id="patch_72">
    <path d="M 394.311672 156.776956 
L 396.852434 156.776956 
L 396.852434 92.955907 
L 394.311672 92.955907 
z
" clip-path="url(#pf1edf83d98)" style="fill: #ff8c00; opacity: 0.6"/>
   </g>
   <g id="patch_73">
    <path d="M 398.546276 157.708094 
L 401.087038 157.708094 
L 401.087038 93.421475 
L 398.546276 93.421475 
z
" clip-path="url(#pf1edf83d98)" style="fill: #ff8c00; opacity: 0.6"/>
   </g>
   <g id="patch_74">
    <path d="M 402.78088 158.527878 
L 405.321642 158.527878 
L 405.321642 93.831368 
L 402.78088 93.831368 
z
" clip-path="url(#pf1edf83d98)" style="fill: #ff8c00; opacity: 0.6"/>
   </g>
   <g id="patch_75">
    <path d="M 407.015484 159.255158 
L 409.556246 159.255158 
L 409.556246 94.195008 
L 407.015484 94.195008 
z
" clip-path="url(#pf1edf83d98)" style="fill: #ff8c00; opacity: 0.6"/>
   </g>
   <g id="patch_76">
    <path d="M 411.250088 159.904754 
L 413.79085 159.904754 
L 413.79085 94.519806 
L 411.250088 94.519806 
z
" clip-path="url(#pf1edf83d98)" style="fill: #ff8c00; opacity: 0.6"/>
   </g>
   <g id="patch_77">
    <path d="M 415.484692 160.488482 
L 418.025455 160.488482 
L 418.025455 94.81167 
L 415.484692 94.81167 
z
" clip-path="url(#pf1edf83d98)" style="fill: #ff8c00; opacity: 0.6"/>
   </g>
   <g id="patch_78">
    <path d="M 419.719296 161.015877 
L 422.260059 161.015877 
L 422.260059 95.075367 
L 419.719296 95.075367 
z
" clip-path="url(#pf1edf83d98)" style="fill: #ff8c00; opacity: 0.6"/>
   </g>
   <g id="patch_79">
    <path d="M 423.9539 161.494718 
L 426.494663 161.494718 
L 426.494663 95.314788 
L 423.9539 95.314788 
z
" clip-path="url(#pf1edf83d98)" style="fill: #ff8c00; opacity: 0.6"/>
   </g>
   <g id="patch_80">
    <path d="M 428.188504 161.931415 
L 430.729267 161.931415 
L 430.729267 95.533136 
L 428.188504 95.533136 
z
" clip-path="url(#pf1edf83d98)" style="fill: #ff8c00; opacity: 0.6"/>
   </g>
   <g id="patch_81">
    <path d="M 432.423109 162.331298 
L 434.963871 162.331298 
L 434.963871 95.733078 
L 432.423109 95.733078 
z
" clip-path="url(#pf1edf83d98)" style="fill: #ff8c00; opacity: 0.6"/>
   </g>
   <g id="patch_82">
    <path d="M 436.657713 162.698833 
L 439.198475 162.698833 
L 439.198475 95.916845 
L 436.657713 95.916845 
z
" clip-path="url(#pf1edf83d98)" style="fill: #ff8c00; opacity: 0.6"/>
   </g>
   <g id="patch_83">
    <path d="M 440.892317 163.037793 
L 443.433079 163.037793 
L 443.433079 96.086325 
L 440.892317 96.086325 
z
" clip-path="url(#pf1edf83d98)" style="fill: #ff8c00; opacity: 0.6"/>
   </g>
   <g id="patch_84">
    <path d="M 445.126921 163.351386 
L 447.667683 163.351386 
L 447.667683 96.243121 
L 445.126921 96.243121 
z
" clip-path="url(#pf1edf83d98)" style="fill: #ff8c00; opacity: 0.6"/>
   </g>
   <g id="patch_85">
    <path d="M 449.361525 163.642356 
L 451.902287 163.642356 
L 451.902287 96.388606 
L 449.361525 96.388606 
z
" clip-path="url(#pf1edf83d98)" style="fill: #ff8c00; opacity: 0.6"/>
   </g>
   <g id="patch_86">
    <path d="M 453.596129 163.913066 
L 456.136891 163.913066 
L 456.136891 96.523962 
L 453.596129 96.523962 
z
" clip-path="url(#pf1edf83d98)" style="fill: #ff8c00; opacity: 0.6"/>
   </g>
   <g id="patch_87">
    <path d="M 457.830733 164.165562 
L 460.371496 164.165562 
L 460.371496 96.65021 
L 457.830733 96.65021 
z
" clip-path="url(#pf1edf83d98)" style="fill: #ff8c00; opacity: 0.6"/>
   </g>
   <g id="patch_88">
    <path d="M 462.065337 164.401622 
L 464.6061 164.401622 
L 464.6061 96.768239 
L 462.065337 96.768239 
z
" clip-path="url(#pf1edf83d98)" style="fill: #ff8c00; opacity: 0.6"/>
   </g>
   <g id="patch_89">
    <path d="M 466.299941 164.622799 
L 468.840704 164.622799 
L 468.840704 96.878828 
L 466.299941 96.878828 
z
" clip-path="url(#pf1edf83d98)" style="fill: #ff8c00; opacity: 0.6"/>
   </g>
   <g id="patch_90">
    <path d="M 470.534545 164.830459 
L 473.075308 164.830459 
L 473.075308 96.982658 
L 470.534545 96.982658 
z
" clip-path="url(#pf1edf83d98)" style="fill: #ff8c00; opacity: 0.6"/>
   </g>
   <g id="patch_91">
    <path d="M 474.76915 165.025803 
L 477.309912 165.025803 
L 477.309912 97.08033 
L 474.76915 97.08033 
z
" clip-path="url(#pf1edf83d98)" style="fill: #ff8c00; opacity: 0.6"/>
   </g>
   <g id="patch_92">
    <path d="M 479.003754 165.209897 
L 481.544516 165.209897 
L 481.544516 97.172377 
L 479.003754 97.172377 
z
" clip-path="url(#pf1edf83d98)" style="fill: #ff8c00; opacity: 0.6"/>
   </g>
   <g id="patch_93">
    <path d="M 483.238358 165.383684 
L 485.77912 165.383684 
L 485.77912 97.25927 
L 483.238358 97.25927 
z
" clip-path="url(#pf1edf83d98)" style="fill: #ff8c00; opacity: 0.6"/>
   </g>
   <g id="patch_94">
    <path d="M 487.472962 165.548006 
L 490.013724 165.548006 
L 490.013724 97.341432 
L 487.472962 97.341432 
z
" clip-path="url(#pf1edf83d98)" style="fill: #ff8c00; opacity: 0.6"/>
   </g>
   <g id="patch_95">
    <path d="M 491.707566 165.703617 
L 494.248328 165.703617 
L 494.248328 97.419237 
L 491.707566 97.419237 
z
" clip-path="url(#pf1edf83d98)" style="fill: #ff8c00; opacity: 0.6"/>
   </g>
   <g id="patch_96">
    <path d="M 495.94217 165.851191 
L 498.482933 165.851191 
L 498.482933 97.493024 
L 495.94217 97.493024 
z
" clip-path="url(#pf1edf83d98)" style="fill: #ff8c00; opacity: 0.6"/>
   </g>
   <g id="patch_97">
    <path d="M 500.176774 165.991335 
L 502.717537 165.991335 
L 502.717537 97.563096 
L 500.176774 97.563096 
z
" clip-path="url(#pf1edf83d98)" style="fill: #ff8c00; opacity: 0.6"/>
   </g>
   <g id="patch_98">
    <path d="M 504.411378 166.124596 
L 506.952141 166.124596 
L 506.952141 97.629727 
L 504.411378 97.629727 
z
" clip-path="url(#pf1edf83d98)" style="fill: #ff8c00; opacity: 0.6"/>
   </g>
   <g id="patch_99">
    <path d="M 508.645982 166.25147 
L 511.186745 166.25147 
L 511.186745 97.693163 
L 508.645982 97.693163 
z
" clip-path="url(#pf1edf83d98)" style="fill: #ff8c00; opacity: 0.6"/>
   </g>
   <g id="patch_100">
    <path d="M 512.880587 166.372404 
L 515.421349 166.372404 
L 515.421349 97.753631 
L 512.880587 97.753631 
z
" clip-path="url(#pf1edf83d98)" style="fill: #ff8c00; opacity: 0.6"/>
   </g>
   <g id="patch_101">
    <path d="M 517.115191 166.487807 
L 519.655953 166.487807 
L 519.655953 97.811332 
L 517.115191 97.811332 
z
" clip-path="url(#pf1edf83d98)" style="fill: #ff8c00; opacity: 0.6"/>
   </g>
   <g id="patch_102">
    <path d="M 521.349795 166.598049 
L 523.890557 166.598049 
L 523.890557 97.866453 
L 521.349795 97.866453 
z
" clip-path="url(#pf1edf83d98)" style="fill: #ff8c00; opacity: 0.6"/>
   </g>
   <g id="patch_103">
    <path d="M 525.584399 166.703469 
L 528.125161 166.703469 
L 528.125161 97.919163 
L 525.584399 97.919163 
z
" clip-path="url(#pf1edf83d98)" style="fill: #ff8c00; opacity: 0.6"/>
   </g>
   <g id="patch_104">
    <path d="M 529.819003 166.804376 
L 532.359765 166.804376 
L 532.359765 97.969617 
L 529.819003 97.969617 
z
" clip-path="url(#pf1edf83d98)" style="fill: #ff8c00; opacity: 0.6"/>
   </g>
   <g id="patch_105">
    <path d="M 534.053607 166.901055 
L 536.59437 166.901055 
L 536.59437 98.017956 
L 534.053607 98.017956 
z
" clip-path="url(#pf1edf83d98)" style="fill: #ff8c00; opacity: 0.6"/>
   </g>
   <g id="patch_106">
    <path d="M 538.288211 166.993765 
L 540.828974 166.993765 
L 540.828974 98.064311 
L 538.288211 98.064311 
z
" clip-path="url(#pf1edf83d98)" style="fill: #ff8c00; opacity: 0.6"/>
   </g>
   <g id="patch_107">
    <path d="M 542.522815 167.082746 
L 545.063578 167.082746 
L 545.063578 98.108802 
L 542.522815 98.108802 
z
" clip-path="url(#pf1edf83d98)" style="fill: #ff8c00; opacity: 0.6"/>
   </g>
   <g id="patch_108">
    <path d="M 546.757419 167.168219 
L 549.298182 167.168219 
L 549.298182 98.151538 
L 546.757419 98.151538 
z
" clip-path="url(#pf1edf83d98)" style="fill: #ff8c00; opacity: 0.6"/>
   </g>
   <g id="patch_109">
    <path d="M 339.261818 37.758095 
L 341.802581 37.758095 
L 341.802581 26.979048 
L 339.261818 26.979048 
z
" clip-path="url(#pf1edf83d98)" style="fill: #708090; opacity: 0.6"/>
   </g>
   <g id="patch_110">
    <path d="M 343.496422 60.707916 
L 346.037185 60.707916 
L 346.037185 34.279288 
L 343.496422 34.279288 
z
" clip-path="url(#pf1edf83d98)" style="fill: #708090; opacity: 0.6"/>
   </g>
   <g id="patch_111">
    <path d="M 347.731026 71.332832 
L 350.271789 71.332832 
L 350.271789 35.698569 
L 347.731026 35.698569 
z
" clip-path="url(#pf1edf83d98)" style="fill: #708090; opacity: 0.6"/>
   </g>
   <g id="patch_112">
    <path d="M 351.96563 77.459609 
L 354.506393 77.459609 
L 354.506393 35.763098 
L 351.96563 35.763098 
z
" clip-path="url(#pf1edf83d98)" style="fill: #708090; opacity: 0.6"/>
   </g>
   <g id="patch_113">
    <path d="M 356.200235 81.445705 
L 358.740997 81.445705 
L 358.740997 35.455102 
L 356.200235 35.455102 
z
" clip-path="url(#pf1edf83d98)" style="fill: #708090; opacity: 0.6"/>
   </g>
   <g id="patch_114">
    <path d="M 360.434839 84.246193 
L 362.975601 84.246193 
L 362.975601 35.054539 
L 360.434839 35.054539 
z
" clip-path="url(#pf1edf83d98)" style="fill: #708090; opacity: 0.6"/>
   </g>
   <g id="patch_115">
    <path d="M 364.669443 86.321554 
L 367.210205 86.321554 
L 367.210205 34.651668 
L 364.669443 34.651668 
z
" clip-path="url(#pf1edf83d98)" style="fill: #708090; opacity: 0.6"/>
   </g>
   <g id="patch_116">
    <path d="M 368.904047 87.921141 
L 371.444809 87.921141 
L 371.444809 34.275852 
L 368.904047 34.275852 
z
" clip-path="url(#pf1edf83d98)" style="fill: #708090; opacity: 0.6"/>
   </g>
   <g id="patch_117">
    <path d="M 373.138651 89.191735 
L 375.679413 89.191735 
L 375.679413 33.934933 
L 373.138651 33.934933 
z
" clip-path="url(#pf1edf83d98)" style="fill: #708090; opacity: 0.6"/>
   </g>
   <g id="patch_118">
    <path d="M 377.373255 90.225369 
L 379.914018 90.225369 
L 379.914018 33.628876 
L 377.373255 33.628876 
z
" clip-path="url(#pf1edf83d98)" style="fill: #708090; opacity: 0.6"/>
   </g>
   <g id="patch_119">
    <path d="M 381.607859 91.082678 
L 384.148622 91.082678 
L 384.148622 33.35489 
L 381.607859 33.35489 
z
" clip-path="url(#pf1edf83d98)" style="fill: #708090; opacity: 0.6"/>
   </g>
   <g id="patch_120">
    <path d="M 385.842463 91.805233 
L 388.383226 91.805233 
L 388.383226 33.10943 
L 385.842463 33.10943 
z
" clip-path="url(#pf1edf83d98)" style="fill: #708090; opacity: 0.6"/>
   </g>
   <g id="patch_121">
    <path d="M 390.077067 92.422492 
L 392.61783 92.422492 
L 392.61783 32.888982 
L 390.077067 32.888982 
z
" clip-path="url(#pf1edf83d98)" style="fill: #708090; opacity: 0.6"/>
   </g>
   <g id="patch_122">
    <path d="M 394.311672 92.955907 
L 396.852434 92.955907 
L 396.852434 32.690349 
L 394.311672 32.690349 
z
" clip-path="url(#pf1edf83d98)" style="fill: #708090; opacity: 0.6"/>
   </g>
   <g id="patch_123">
    <path d="M 398.546276 93.421475 
L 401.087038 93.421475 
L 401.087038 32.510722 
L 398.546276 32.510722 
z
" clip-path="url(#pf1edf83d98)" style="fill: #708090; opacity: 0.6"/>
   </g>
   <g id="patch_124">
    <path d="M 402.78088 93.831368 
L 405.321642 93.831368 
L 405.321642 32.34768 
L 402.78088 32.34768 
z
" clip-path="url(#pf1edf83d98)" style="fill: #708090; opacity: 0.6"/>
   </g>
   <g id="patch_125">
    <path d="M 407.015484 94.195008 
L 409.556246 94.195008 
L 409.556246 32.199152 
L 407.015484 32.199152 
z
" clip-path="url(#pf1edf83d98)" style="fill: #708090; opacity: 0.6"/>
   </g>
   <g id="patch_126">
    <path d="M 411.250088 94.519806 
L 413.79085 94.519806 
L 413.79085 32.063367 
L 411.250088 32.063367 
z
" clip-path="url(#pf1edf83d98)" style="fill: #708090; opacity: 0.6"/>
   </g>
   <g id="patch_127">
    <path d="M 415.484692 94.81167 
L 418.025455 94.81167 
L 418.025455 31.938814 
L 415.484692 31.938814 
z
" clip-path="url(#pf1edf83d98)" style="fill: #708090; opacity: 0.6"/>
   </g>
   <g id="patch_128">
    <path d="M 419.719296 95.075367 
L 422.260059 95.075367 
L 422.260059 31.824197 
L 419.719296 31.824197 
z
" clip-path="url(#pf1edf83d98)" style="fill: #708090; opacity: 0.6"/>
   </g>
   <g id="patch_129">
    <path d="M 423.9539 95.314788 
L 426.494663 95.314788 
L 426.494663 31.718407 
L 423.9539 31.718407 
z
" clip-path="url(#pf1edf83d98)" style="fill: #708090; opacity: 0.6"/>
   </g>
   <g id="patch_130">
    <path d="M 428.188504 95.533136 
L 430.729267 95.533136 
L 430.729267 31.620484 
L 428.188504 31.620484 
z
" clip-path="url(#pf1edf83d98)" style="fill: #708090; opacity: 0.6"/>
   </g>
   <g id="patch_131">
    <path d="M 432.423109 95.733078 
L 434.963871 95.733078 
L 434.963871 31.529601 
L 432.423109 31.529601 
z
" clip-path="url(#pf1edf83d98)" style="fill: #708090; opacity: 0.6"/>
   </g>
   <g id="patch_132">
    <path d="M 436.657713 95.916845 
L 439.198475 95.916845 
L 439.198475 31.445039 
L 436.657713 31.445039 
z
" clip-path="url(#pf1edf83d98)" style="fill: #708090; opacity: 0.6"/>
   </g>
   <g id="patch_133">
    <path d="M 440.892317 96.086325 
L 443.433079 96.086325 
L 443.433079 31.366171 
L 440.892317 31.366171 
z
" clip-path="url(#pf1edf83d98)" style="fill: #708090; opacity: 0.6"/>
   </g>
   <g id="patch_134">
    <path d="M 445.126921 96.243121 
L 447.667683 96.243121 
L 447.667683 31.29245 
L 445.126921 31.29245 
z
" clip-path="url(#pf1edf83d98)" style="fill: #708090; opacity: 0.6"/>
   </g>
   <g id="patch_135">
    <path d="M 449.361525 96.388606 
L 451.902287 96.388606 
L 451.902287 31.223394 
L 449.361525 31.223394 
z
" clip-path="url(#pf1edf83d98)" style="fill: #708090; opacity: 0.6"/>
   </g>
   <g id="patch_136">
    <path d="M 453.596129 96.523962 
L 456.136891 96.523962 
L 456.136891 31.158579 
L 453.596129 31.158579 
z
" clip-path="url(#pf1edf83d98)" style="fill: #708090; opacity: 0.6"/>
   </g>
   <g id="patch_137">
    <path d="M 457.830733 96.65021 
L 460.371496 96.65021 
L 460.371496 31.097631 
L 457.830733 31.097631 
z
" clip-path="url(#pf1edf83d98)" style="fill: #708090; opacity: 0.6"/>
   </g>
   <g id="patch_138">
    <path d="M 462.065337 96.768239 
L 464.6061 96.768239 
L 464.6061 31.040217 
L 462.065337 31.040217 
z
" clip-path="url(#pf1edf83d98)" style="fill: #708090; opacity: 0.6"/>
   </g>
   <g id="patch_139">
    <path d="M 466.299941 96.878828 
L 468.840704 96.878828 
L 468.840704 30.986041 
L 466.299941 30.986041 
z
" clip-path="url(#pf1edf83d98)" style="fill: #708090; opacity: 0.6"/>
   </g>
   <g id="patch_140">
    <path d="M 470.534545 96.982658 
L 473.075308 96.982658 
L 473.075308 30.93484 
L 470.534545 30.93484 
z
" clip-path="url(#pf1edf83d98)" style="fill: #708090; opacity: 0.6"/>
   </g>
   <g id="patch_141">
    <path d="M 474.76915 97.08033 
L 477.309912 97.08033 
L 477.309912 30.886376 
L 474.76915 30.886376 
z
" clip-path="url(#pf1edf83d98)" style="fill: #708090; opacity: 0.6"/>
   </g>
   <g id="patch_142">
    <path d="M 479.003754 97.172377 
L 481.544516 97.172377 
L 481.544516 30.840437 
L 479.003754 30.840437 
z
" clip-path="url(#pf1edf83d98)" style="fill: #708090; opacity: 0.6"/>
   </g>
   <g id="patch_143">
    <path d="M 483.238358 97.25927 
L 485.77912 97.25927 
L 485.77912 30.796833 
L 483.238358 30.796833 
z
" clip-path="url(#pf1edf83d98)" style="fill: #708090; opacity: 0.6"/>
   </g>
   <g id="patch_144">
    <path d="M 487.472962 97.341432 
L 490.013724 97.341432 
L 490.013724 30.75539 
L 487.472962 30.75539 
z
" clip-path="url(#pf1edf83d98)" style="fill: #708090; opacity: 0.6"/>
   </g>
   <g id="patch_145">
    <path d="M 491.707566 97.419237 
L 494.248328 97.419237 
L 494.248328 30.715954 
L 491.707566 30.715954 
z
" clip-path="url(#pf1edf83d98)" style="fill: #708090; opacity: 0.6"/>
   </g>
   <g id="patch_146">
    <path d="M 495.94217 97.493024 
L 498.482933 97.493024 
L 498.482933 30.678383 
L 495.94217 30.678383 
z
" clip-path="url(#pf1edf83d98)" style="fill: #708090; opacity: 0.6"/>
   </g>
   <g id="patch_147">
    <path d="M 500.176774 97.563096 
L 502.717537 97.563096 
L 502.717537 30.642547 
L 500.176774 30.642547 
z
" clip-path="url(#pf1edf83d98)" style="fill: #708090; opacity: 0.6"/>
   </g>
   <g id="patch_148">
    <path d="M 504.411378 97.629727 
L 506.952141 97.629727 
L 506.952141 30.608331 
L 504.411378 30.608331 
z
" clip-path="url(#pf1edf83d98)" style="fill: #708090; opacity: 0.6"/>
   </g>
   <g id="patch_149">
    <path d="M 508.645982 97.693163 
L 511.186745 97.693163 
L 511.186745 30.575627 
L 508.645982 30.575627 
z
" clip-path="url(#pf1edf83d98)" style="fill: #708090; opacity: 0.6"/>
   </g>
   <g id="patch_150">
    <path d="M 512.880587 97.753631 
L 515.421349 97.753631 
L 515.421349 30.544337 
L 512.880587 30.544337 
z
" clip-path="url(#pf1edf83d98)" style="fill: #708090; opacity: 0.6"/>
   </g>
   <g id="patch_151">
    <path d="M 517.115191 97.811332 
L 519.655953 97.811332 
L 519.655953 30.514373 
L 517.115191 30.514373 
z
" clip-path="url(#pf1edf83d98)" style="fill: #708090; opacity: 0.6"/>
   </g>
   <g id="patch_152">
    <path d="M 521.349795 97.866453 
L 523.890557 97.866453 
L 523.890557 30.485652 
L 521.349795 30.485652 
z
" clip-path="url(#pf1edf83d98)" style="fill: #708090; opacity: 0.6"/>
   </g>
   <g id="patch_153">
    <path d="M 525.584399 97.919163 
L 528.125161 97.919163 
L 528.125161 30.458099 
L 525.584399 30.458099 
z
" clip-path="url(#pf1edf83d98)" style="fill: #708090; opacity: 0.6"/>
   </g>
   <g id="patch_154">
    <path d="M 529.819003 97.969617 
L 532.359765 97.969617 
L 532.359765 30.431644 
L 529.819003 30.431644 
z
" clip-path="url(#pf1edf83d98)" style="fill: #708090; opacity: 0.6"/>
   </g>
   <g id="patch_155">
    <path d="M 534.053607 98.017956 
L 536.59437 98.017956 
L 536.59437 30.406222 
L 534.053607 30.406222 
z
" clip-path="url(#pf1edf83d98)" style="fill: #708090; opacity: 0.6"/>
   </g>
   <g id="patch_156">
    <path d="M 538.288211 98.064311 
L 540.828974 98.064311 
L 540.828974 30.381775 
L 538.288211 30.381775 
z
" clip-path="url(#pf1edf83d98)" style="fill: #708090; opacity: 0.6"/>
   </g>
   <g id="patch_157">
    <path d="M 542.522815 98.108802 
L 545.063578 98.108802 
L 545.063578 30.358249 
L 542.522815 30.358249 
z
" clip-path="url(#pf1edf83d98)" style="fill: #708090; opacity: 0.6"/>
   </g>
   <g id="patch_158">
    <path d="M 546.757419 98.151538 
L 549.298182 98.151538 
L 549.298182 30.335591 
L 546.757419 30.335591 
z
" clip-path="url(#pf1edf83d98)" style="fill: #708090; opacity: 0.6"/>
   </g>
   <g id="matplotlib.axis_3">
    <g id="xtick_4">
     <g id="line2d_18">
      <g>
       <use xlink:href="#mb4ef13f993" x="340.532199" y="242.56" style="stroke: #000000; stroke-width: 0.8"/>
      </g>
     </g>
     <g id="text_14">
      <!-- 0 -->
      <g transform="translate(338.032199 256.50375) scale(0.1 -0.1)">
       <use xlink:href="#TimesNewRomanPSMT-30"/>
      </g>
     </g>
    </g>
    <g id="xtick_5">
     <g id="line2d_19">
      <g>
       <use xlink:href="#mb4ef13f993" x="425.224282" y="242.56" style="stroke: #000000; stroke-width: 0.8"/>
      </g>
     </g>
     <g id="text_15">
      <!-- 20 -->
      <g transform="translate(420.224282 256.50375) scale(0.1 -0.1)">
       <use xlink:href="#TimesNewRomanPSMT-32"/>
       <use xlink:href="#TimesNewRomanPSMT-30" x="50"/>
      </g>
     </g>
    </g>
    <g id="xtick_6">
     <g id="line2d_20">
      <g>
       <use xlink:href="#mb4ef13f993" x="509.916364" y="242.56" style="stroke: #000000; stroke-width: 0.8"/>
      </g>
     </g>
     <g id="text_16">
      <!-- 40 -->
      <g transform="translate(504.916364 256.50375) scale(0.1 -0.1)">
       <use xlink:href="#TimesNewRomanPSMT-34"/>
       <use xlink:href="#TimesNewRomanPSMT-30" x="50"/>
      </g>
     </g>
    </g>
    <g id="text_17">
     <!-- Diffusion Steps -->
     <g transform="translate(413.1175 269.586563) scale(0.1 -0.1)">
      <use xlink:href="#TimesNewRomanPSMT-44"/>
      <use xlink:href="#TimesNewRomanPSMT-69" x="72.216797"/>
      <use xlink:href="#TimesNewRomanPSMT-66" x="100"/>
      <use xlink:href="#TimesNewRomanPSMT-66" x="131.550781"/>
      <use xlink:href="#TimesNewRomanPSMT-75" x="164.851562"/>
      <use xlink:href="#TimesNewRomanPSMT-73" x="214.851562"/>
      <use xlink:href="#TimesNewRomanPSMT-69" x="253.767578"/>
      <use xlink:href="#TimesNewRomanPSMT-6f" x="281.550781"/>
      <use xlink:href="#TimesNewRomanPSMT-6e" x="331.550781"/>
      <use xlink:href="#TimesNewRomanPSMT-20" x="381.550781"/>
      <use xlink:href="#TimesNewRomanPSMT-53" x="406.550781"/>
      <use xlink:href="#TimesNewRomanPSMT-74" x="462.166016"/>
      <use xlink:href="#TimesNewRomanPSMT-65" x="489.949219"/>
      <use xlink:href="#TimesNewRomanPSMT-70" x="534.333984"/>
      <use xlink:href="#TimesNewRomanPSMT-73" x="584.333984"/>
     </g>
    </g>
   </g>
   <g id="matplotlib.axis_4">
    <g id="ytick_6">
     <g id="line2d_21">
      <g>
       <use xlink:href="#m23406a2aa2" x="328.76" y="242.56" style="stroke: #000000; stroke-width: 0.8"/>
      </g>
     </g>
     <g id="text_18">
      <!-- 0.0 -->
      <g transform="translate(309.26 246.031875) scale(0.1 -0.1)">
       <use xlink:href="#TimesNewRomanPSMT-30"/>
       <use xlink:href="#TimesNewRomanPSMT-2e" x="50"/>
       <use xlink:href="#TimesNewRomanPSMT-30" x="75"/>
      </g>
     </g>
    </g>
    <g id="ytick_7">
     <g id="line2d_22">
      <g>
       <use xlink:href="#m23406a2aa2" x="328.76" y="199.44381" style="stroke: #000000; stroke-width: 0.8"/>
      </g>
     </g>
     <g id="text_19">
      <!-- 0.2 -->
      <g transform="translate(309.26 202.915685) scale(0.1 -0.1)">
       <use xlink:href="#TimesNewRomanPSMT-30"/>
       <use xlink:href="#TimesNewRomanPSMT-2e" x="50"/>
       <use xlink:href="#TimesNewRomanPSMT-32" x="75"/>
      </g>
     </g>
    </g>
    <g id="ytick_8">
     <g id="line2d_23">
      <g>
       <use xlink:href="#m23406a2aa2" x="328.76" y="156.327619" style="stroke: #000000; stroke-width: 0.8"/>
      </g>
     </g>
     <g id="text_20">
      <!-- 0.4 -->
      <g transform="translate(309.26 159.799494) scale(0.1 -0.1)">
       <use xlink:href="#TimesNewRomanPSMT-30"/>
       <use xlink:href="#TimesNewRomanPSMT-2e" x="50"/>
       <use xlink:href="#TimesNewRomanPSMT-34" x="75"/>
      </g>
     </g>
    </g>
    <g id="ytick_9">
     <g id="line2d_24">
      <g>
       <use xlink:href="#m23406a2aa2" x="328.76" y="113.211429" style="stroke: #000000; stroke-width: 0.8"/>
      </g>
     </g>
     <g id="text_21">
      <!-- 0.6 -->
      <g transform="translate(309.26 116.683304) scale(0.1 -0.1)">
       <use xlink:href="#TimesNewRomanPSMT-30"/>
       <use xlink:href="#TimesNewRomanPSMT-2e" x="50"/>
       <use xlink:href="#TimesNewRomanPSMT-36" x="75"/>
      </g>
     </g>
    </g>
    <g id="ytick_10">
     <g id="line2d_25">
      <g>
       <use xlink:href="#m23406a2aa2" x="328.76" y="70.095238" style="stroke: #000000; stroke-width: 0.8"/>
      </g>
     </g>
     <g id="text_22">
      <!-- 0.8 -->
      <g transform="translate(309.26 73.567113) scale(0.1 -0.1)">
       <use xlink:href="#TimesNewRomanPSMT-30"/>
       <use xlink:href="#TimesNewRomanPSMT-2e" x="50"/>
       <use xlink:href="#TimesNewRomanPSMT-38" x="75"/>
      </g>
     </g>
    </g>
    <g id="ytick_11">
     <g id="line2d_26">
      <g>
       <use xlink:href="#m23406a2aa2" x="328.76" y="26.979048" style="stroke: #000000; stroke-width: 0.8"/>
      </g>
     </g>
     <g id="text_23">
      <!-- 1.0 -->
      <g transform="translate(309.26 30.450923) scale(0.1 -0.1)">
       <defs>
        <path id="TimesNewRomanPSMT-31" d="M 750 3822 
L 1781 4325 
L 1884 4325 
L 1884 747 
Q 1884 391 1914 303 
Q 1944 216 2037 169 
Q 2131 122 2419 116 
L 2419 0 
L 825 0 
L 825 116 
Q 1125 122 1212 167 
Q 1300 213 1334 289 
Q 1369 366 1369 747 
L 1369 3034 
Q 1369 3497 1338 3628 
Q 1316 3728 1258 3775 
Q 1200 3822 1119 3822 
Q 1003 3822 797 3725 
L 750 3822 
z
" transform="scale(0.015625)"/>
       </defs>
       <use xlink:href="#TimesNewRomanPSMT-31"/>
       <use xlink:href="#TimesNewRomanPSMT-2e" x="50"/>
       <use xlink:href="#TimesNewRomanPSMT-30" x="75"/>
      </g>
     </g>
    </g>
    <g id="text_24">
     <!-- Membership Distrubition -->
     <g transform="translate(303.120937 180.071406) rotate(-90) scale(0.1 -0.1)">
      <use xlink:href="#TimesNewRomanPSMT-4d"/>
      <use xlink:href="#TimesNewRomanPSMT-65" x="88.916016"/>
      <use xlink:href="#TimesNewRomanPSMT-6d" x="133.300781"/>
      <use xlink:href="#TimesNewRomanPSMT-62" x="211.083984"/>
      <use xlink:href="#TimesNewRomanPSMT-65" x="261.083984"/>
      <use xlink:href="#TimesNewRomanPSMT-72" x="305.46875"/>
      <use xlink:href="#TimesNewRomanPSMT-73" x="338.769531"/>
      <use xlink:href="#TimesNewRomanPSMT-68" x="377.685547"/>
      <use xlink:href="#TimesNewRomanPSMT-69" x="427.685547"/>
      <use xlink:href="#TimesNewRomanPSMT-70" x="455.46875"/>
      <use xlink:href="#TimesNewRomanPSMT-20" x="505.46875"/>
      <use xlink:href="#TimesNewRomanPSMT-44" x="530.46875"/>
      <use xlink:href="#TimesNewRomanPSMT-69" x="602.685547"/>
      <use xlink:href="#TimesNewRomanPSMT-73" x="630.46875"/>
      <use xlink:href="#TimesNewRomanPSMT-74" x="669.384766"/>
      <use xlink:href="#TimesNewRomanPSMT-72" x="697.167969"/>
      <use xlink:href="#TimesNewRomanPSMT-75" x="730.46875"/>
      <use xlink:href="#TimesNewRomanPSMT-62" x="780.46875"/>
      <use xlink:href="#TimesNewRomanPSMT-69" x="830.46875"/>
      <use xlink:href="#TimesNewRomanPSMT-74" x="858.251953"/>
      <use xlink:href="#TimesNewRomanPSMT-69" x="886.035156"/>
      <use xlink:href="#TimesNewRomanPSMT-6f" x="913.818359"/>
      <use xlink:href="#TimesNewRomanPSMT-6e" x="963.818359"/>
     </g>
    </g>
   </g>
   <g id="patch_159">
    <path d="M 328.76 242.56 
L 328.76 16.2 
" style="fill: none; stroke: #000000; stroke-width: 0.8; stroke-linejoin: miter; stroke-linecap: square"/>
   </g>
   <g id="patch_160">
    <path d="M 559.8 242.56 
L 559.8 16.2 
" style="fill: none; stroke: #000000; stroke-width: 0.8; stroke-linejoin: miter; stroke-linecap: square"/>
   </g>
   <g id="patch_161">
    <path d="M 328.76 242.56 
L 559.8 242.56 
" style="fill: none; stroke: #000000; stroke-width: 0.8; stroke-linejoin: miter; stroke-linecap: square"/>
   </g>
   <g id="patch_162">
    <path d="M 328.76 16.2 
L 559.8 16.2 
" style="fill: none; stroke: #000000; stroke-width: 0.8; stroke-linejoin: miter; stroke-linecap: square"/>
   </g>
  </g>
 </g>
 <defs>
  <clipPath id="pd65a6a977d">
   <rect x="48.86" y="16.2" width="231.04" height="226.36"/>
  </clipPath>
  <clipPath id="pf1edf83d98">
   <rect x="328.76" y="16.2" width="231.04" height="226.36"/>
  </clipPath>
 </defs>
</svg>
