<?xml version="1.0" encoding="utf-8" standalone="no"?>
<!DOCTYPE svg PUBLIC "-//W3C//DTD SVG 1.1//EN"
  "http://www.w3.org/Graphics/SVG/1.1/DTD/svg11.dtd">
<svg xmlns:xlink="http://www.w3.org/1999/xlink" width="576pt" height="288pt" viewBox="0 0 576 288" xmlns="http://www.w3.org/2000/svg" version="1.1">
 <metadata>
  <rdf:RDF xmlns:dc="http://purl.org/dc/elements/1.1/" xmlns:cc="http://creativecommons.org/ns#" xmlns:rdf="http://www.w3.org/1999/02/22-rdf-syntax-ns#">
   <cc:Work>
    <dc:type rdf:resource="http://purl.org/dc/dcmitype/StillImage"/>
    <dc:date>2025-05-28T16:14:21.981079</dc:date>
    <dc:format>image/svg+xml</dc:format>
    <dc:creator>
     <cc:Agent>
      <dc:title>Matplotlib v3.7.5, https://matplotlib.org/</dc:title>
     </cc:Agent>
    </dc:creator>
   </cc:Work>
  </rdf:RDF>
 </metadata>
 <defs>
  <style type="text/css">*{stroke-linejoin: round; stroke-linecap: butt}</style>
 </defs>
 <g id="figure_1">
  <g id="patch_1">
   <path d="M 0 288 
L 576 288 
L 576 0 
L 0 0 
z
" style="fill: #ffffff"/>
  </g>
  <g id="axes_1">
   <g id="patch_2">
    <path d="M 59.6 233.44 
L 279.9 233.44 
L 279.9 16.2 
L 59.6 16.2 
z
" style="fill: #ffffff"/>
   </g>
   <g id="PathCollection_1">
    <defs>
     <path id="m86dbb915df" d="M 0 2.236068 
C 0.593012 2.236068 1.161816 2.000462 1.581139 1.581139 
C 2.000462 1.161816 2.236068 0.593012 2.236068 0 
C 2.236068 -0.593012 2.000462 -1.161816 1.581139 -1.581139 
C 1.161816 -2.000462 0.593012 -2.236068 0 -2.236068 
C -0.593012 -2.236068 -1.161816 -2.000462 -1.581139 -1.581139 
C -2.000462 -1.161816 -2.236068 -0.593012 -2.236068 0 
C -2.236068 0.593012 -2.000462 1.161816 -1.581139 1.581139 
C -1.161816 2.000462 -0.593012 2.236068 0 2.236068 
z
" style="stroke: #87ceeb"/>
    </defs>
    <g clip-path="url(#pad8614c7da)">
     <use xlink:href="#m86dbb915df" x="69.613636" y="26.074545" style="fill: #87ceeb; stroke: #87ceeb"/>
     <use xlink:href="#m86dbb915df" x="73.700835" y="74.405654" style="fill: #87ceeb; stroke: #87ceeb"/>
     <use xlink:href="#m86dbb915df" x="77.788033" y="96.781167" style="fill: #87ceeb; stroke: #87ceeb"/>
     <use xlink:href="#m86dbb915df" x="81.875232" y="109.683835" style="fill: #87ceeb; stroke: #87ceeb"/>
     <use xlink:href="#m86dbb915df" x="85.96243" y="118.078342" style="fill: #87ceeb; stroke: #87ceeb"/>
     <use xlink:href="#m86dbb915df" x="90.049629" y="123.976022" style="fill: #87ceeb; stroke: #87ceeb"/>
     <use xlink:href="#m86dbb915df" x="94.136827" y="128.346623" style="fill: #87ceeb; stroke: #87ceeb"/>
     <use xlink:href="#m86dbb915df" x="98.224026" y="131.715269" style="fill: #87ceeb; stroke: #87ceeb"/>
     <use xlink:href="#m86dbb915df" x="102.311224" y="134.391072" style="fill: #87ceeb; stroke: #87ceeb"/>
     <use xlink:href="#m86dbb915df" x="106.398423" y="136.567852" style="fill: #87ceeb; stroke: #87ceeb"/>
     <use xlink:href="#m86dbb915df" x="110.485622" y="138.373298" style="fill: #87ceeb; stroke: #87ceeb"/>
     <use xlink:href="#m86dbb915df" x="114.57282" y="139.894961" style="fill: #87ceeb; stroke: #87ceeb"/>
     <use xlink:href="#m86dbb915df" x="118.660019" y="141.194874" style="fill: #87ceeb; stroke: #87ceeb"/>
     <use xlink:href="#m86dbb915df" x="122.747217" y="142.318219" style="fill: #87ceeb; stroke: #87ceeb"/>
     <use xlink:href="#m86dbb915df" x="126.834416" y="143.298682" style="fill: #87ceeb; stroke: #87ceeb"/>
     <use xlink:href="#m86dbb915df" x="130.921614" y="144.161893" style="fill: #87ceeb; stroke: #87ceeb"/>
     <use xlink:href="#m86dbb915df" x="135.008813" y="144.9277" style="fill: #87ceeb; stroke: #87ceeb"/>
     <use xlink:href="#m86dbb915df" x="139.096011" y="145.611707" style="fill: #87ceeb; stroke: #87ceeb"/>
     <use xlink:href="#m86dbb915df" x="143.18321" y="146.226357" style="fill: #87ceeb; stroke: #87ceeb"/>
     <use xlink:href="#m86dbb915df" x="147.270408" y="146.78169" style="fill: #87ceeb; stroke: #87ceeb"/>
     <use xlink:href="#m86dbb915df" x="151.357607" y="147.285897" style="fill: #87ceeb; stroke: #87ceeb"/>
     <use xlink:href="#m86dbb915df" x="155.444805" y="147.745728" style="fill: #87ceeb; stroke: #87ceeb"/>
     <use xlink:href="#m86dbb915df" x="159.532004" y="148.166794" style="fill: #87ceeb; stroke: #87ceeb"/>
     <use xlink:href="#m86dbb915df" x="163.619202" y="148.553798" style="fill: #87ceeb; stroke: #87ceeb"/>
     <use xlink:href="#m86dbb915df" x="167.706401" y="148.910714" style="fill: #87ceeb; stroke: #87ceeb"/>
     <use xlink:href="#m86dbb915df" x="171.793599" y="149.240919" style="fill: #87ceeb; stroke: #87ceeb"/>
     <use xlink:href="#m86dbb915df" x="175.880798" y="149.547303" style="fill: #87ceeb; stroke: #87ceeb"/>
     <use xlink:href="#m86dbb915df" x="179.967996" y="149.832354" style="fill: #87ceeb; stroke: #87ceeb"/>
     <use xlink:href="#m86dbb915df" x="184.055195" y="150.098225" style="fill: #87ceeb; stroke: #87ceeb"/>
     <use xlink:href="#m86dbb915df" x="188.142393" y="150.34679" style="fill: #87ceeb; stroke: #87ceeb"/>
     <use xlink:href="#m86dbb915df" x="192.229592" y="150.579684" style="fill: #87ceeb; stroke: #87ceeb"/>
     <use xlink:href="#m86dbb915df" x="196.31679" y="150.798344" style="fill: #87ceeb; stroke: #87ceeb"/>
     <use xlink:href="#m86dbb915df" x="200.403989" y="151.004037" style="fill: #87ceeb; stroke: #87ceeb"/>
     <use xlink:href="#m86dbb915df" x="204.491187" y="151.197882" style="fill: #87ceeb; stroke: #87ceeb"/>
     <use xlink:href="#m86dbb915df" x="208.578386" y="151.380875" style="fill: #87ceeb; stroke: #87ceeb"/>
     <use xlink:href="#m86dbb915df" x="212.665584" y="151.553902" style="fill: #87ceeb; stroke: #87ceeb"/>
     <use xlink:href="#m86dbb915df" x="216.752783" y="151.717756" style="fill: #87ceeb; stroke: #87ceeb"/>
     <use xlink:href="#m86dbb915df" x="220.839981" y="151.873148" style="fill: #87ceeb; stroke: #87ceeb"/>
     <use xlink:href="#m86dbb915df" x="224.92718" y="152.020715" style="fill: #87ceeb; stroke: #87ceeb"/>
     <use xlink:href="#m86dbb915df" x="229.014378" y="152.161036" style="fill: #87ceeb; stroke: #87ceeb"/>
     <use xlink:href="#m86dbb915df" x="233.101577" y="152.294631" style="fill: #87ceeb; stroke: #87ceeb"/>
     <use xlink:href="#m86dbb915df" x="237.188776" y="152.421971" style="fill: #87ceeb; stroke: #87ceeb"/>
     <use xlink:href="#m86dbb915df" x="241.275974" y="152.543487" style="fill: #87ceeb; stroke: #87ceeb"/>
     <use xlink:href="#m86dbb915df" x="245.363173" y="152.659569" style="fill: #87ceeb; stroke: #87ceeb"/>
     <use xlink:href="#m86dbb915df" x="249.450371" y="152.770574" style="fill: #87ceeb; stroke: #87ceeb"/>
     <use xlink:href="#m86dbb915df" x="253.53757" y="152.876827" style="fill: #87ceeb; stroke: #87ceeb"/>
     <use xlink:href="#m86dbb915df" x="257.624768" y="152.978627" style="fill: #87ceeb; stroke: #87ceeb"/>
     <use xlink:href="#m86dbb915df" x="261.711967" y="153.076248" style="fill: #87ceeb; stroke: #87ceeb"/>
     <use xlink:href="#m86dbb915df" x="265.799165" y="153.169943" style="fill: #87ceeb; stroke: #87ceeb"/>
     <use xlink:href="#m86dbb915df" x="269.886364" y="153.259944" style="fill: #87ceeb; stroke: #87ceeb"/>
    </g>
   </g>
   <g id="PathCollection_2">
    <defs>
     <path id="m68b8bc43d1" d="M 0 2.236068 
C 0.593012 2.236068 1.161816 2.000462 1.581139 1.581139 
C 2.000462 1.161816 2.236068 0.593012 2.236068 0 
C 2.236068 -0.593012 2.000462 -1.161816 1.581139 -1.581139 
C 1.161816 -2.000462 0.593012 -2.236068 0 -2.236068 
C -0.593012 -2.236068 -1.161816 -2.000462 -1.581139 -1.581139 
C -2.000462 -1.161816 -2.236068 -0.593012 -2.236068 0 
C -2.236068 0.593012 -2.000462 1.161816 -1.581139 1.581139 
C -1.161816 2.000462 -0.593012 2.236068 0 2.236068 
z
" style="stroke: #ff8c00"/>
    </defs>
    <g clip-path="url(#pad8614c7da)">
     <use xlink:href="#m68b8bc43d1" x="69.613636" y="223.565455" style="fill: #ff8c00; stroke: #ff8c00"/>
     <use xlink:href="#m68b8bc43d1" x="73.700835" y="199.3999" style="fill: #ff8c00; stroke: #ff8c00"/>
     <use xlink:href="#m68b8bc43d1" x="77.788033" y="188.212144" style="fill: #ff8c00; stroke: #ff8c00"/>
     <use xlink:href="#m68b8bc43d1" x="81.875232" y="181.76081" style="fill: #ff8c00; stroke: #ff8c00"/>
     <use xlink:href="#m68b8bc43d1" x="85.96243" y="177.563556" style="fill: #ff8c00; stroke: #ff8c00"/>
     <use xlink:href="#m68b8bc43d1" x="90.049629" y="174.614716" style="fill: #ff8c00; stroke: #ff8c00"/>
     <use xlink:href="#m68b8bc43d1" x="94.136827" y="172.429416" style="fill: #ff8c00; stroke: #ff8c00"/>
     <use xlink:href="#m68b8bc43d1" x="98.224026" y="170.745093" style="fill: #ff8c00; stroke: #ff8c00"/>
     <use xlink:href="#m68b8bc43d1" x="102.311224" y="169.407191" style="fill: #ff8c00; stroke: #ff8c00"/>
     <use xlink:href="#m68b8bc43d1" x="106.398423" y="168.318802" style="fill: #ff8c00; stroke: #ff8c00"/>
     <use xlink:href="#m68b8bc43d1" x="110.485622" y="167.416078" style="fill: #ff8c00; stroke: #ff8c00"/>
     <use xlink:href="#m68b8bc43d1" x="114.57282" y="166.655247" style="fill: #ff8c00; stroke: #ff8c00"/>
     <use xlink:href="#m68b8bc43d1" x="118.660019" y="166.00529" style="fill: #ff8c00; stroke: #ff8c00"/>
     <use xlink:href="#m68b8bc43d1" x="122.747217" y="165.443618" style="fill: #ff8c00; stroke: #ff8c00"/>
     <use xlink:href="#m68b8bc43d1" x="126.834416" y="164.953386" style="fill: #ff8c00; stroke: #ff8c00"/>
     <use xlink:href="#m68b8bc43d1" x="130.921614" y="164.521781" style="fill: #ff8c00; stroke: #ff8c00"/>
     <use xlink:href="#m68b8bc43d1" x="135.008813" y="164.138877" style="fill: #ff8c00; stroke: #ff8c00"/>
     <use xlink:href="#m68b8bc43d1" x="139.096011" y="163.796874" style="fill: #ff8c00; stroke: #ff8c00"/>
     <use xlink:href="#m68b8bc43d1" x="143.18321" y="163.489549" style="fill: #ff8c00; stroke: #ff8c00"/>
     <use xlink:href="#m68b8bc43d1" x="147.270408" y="163.211882" style="fill: #ff8c00; stroke: #ff8c00"/>
     <use xlink:href="#m68b8bc43d1" x="151.357607" y="162.959779" style="fill: #ff8c00; stroke: #ff8c00"/>
     <use xlink:href="#m68b8bc43d1" x="155.444805" y="162.729863" style="fill: #ff8c00; stroke: #ff8c00"/>
     <use xlink:href="#m68b8bc43d1" x="159.532004" y="162.519331" style="fill: #ff8c00; stroke: #ff8c00"/>
     <use xlink:href="#m68b8bc43d1" x="163.619202" y="162.325828" style="fill: #ff8c00; stroke: #ff8c00"/>
     <use xlink:href="#m68b8bc43d1" x="167.706401" y="162.14737" style="fill: #ff8c00; stroke: #ff8c00"/>
     <use xlink:href="#m68b8bc43d1" x="171.793599" y="161.982268" style="fill: #ff8c00; stroke: #ff8c00"/>
     <use xlink:href="#m68b8bc43d1" x="175.880798" y="161.829076" style="fill: #ff8c00; stroke: #ff8c00"/>
     <use xlink:href="#m68b8bc43d1" x="179.967996" y="161.68655" style="fill: #ff8c00; stroke: #ff8c00"/>
     <use xlink:href="#m68b8bc43d1" x="184.055195" y="161.553615" style="fill: #ff8c00; stroke: #ff8c00"/>
     <use xlink:href="#m68b8bc43d1" x="188.142393" y="161.429332" style="fill: #ff8c00; stroke: #ff8c00"/>
     <use xlink:href="#m68b8bc43d1" x="192.229592" y="161.312885" style="fill: #ff8c00; stroke: #ff8c00"/>
     <use xlink:href="#m68b8bc43d1" x="196.31679" y="161.203555" style="fill: #ff8c00; stroke: #ff8c00"/>
     <use xlink:href="#m68b8bc43d1" x="200.403989" y="161.100709" style="fill: #ff8c00; stroke: #ff8c00"/>
     <use xlink:href="#m68b8bc43d1" x="204.491187" y="161.003786" style="fill: #ff8c00; stroke: #ff8c00"/>
     <use xlink:href="#m68b8bc43d1" x="208.578386" y="160.91229" style="fill: #ff8c00; stroke: #ff8c00"/>
     <use xlink:href="#m68b8bc43d1" x="212.665584" y="160.825776" style="fill: #ff8c00; stroke: #ff8c00"/>
     <use xlink:href="#m68b8bc43d1" x="216.752783" y="160.743849" style="fill: #ff8c00; stroke: #ff8c00"/>
     <use xlink:href="#m68b8bc43d1" x="220.839981" y="160.666153" style="fill: #ff8c00; stroke: #ff8c00"/>
     <use xlink:href="#m68b8bc43d1" x="224.92718" y="160.59237" style="fill: #ff8c00; stroke: #ff8c00"/>
     <use xlink:href="#m68b8bc43d1" x="229.014378" y="160.522209" style="fill: #ff8c00; stroke: #ff8c00"/>
     <use xlink:href="#m68b8bc43d1" x="233.101577" y="160.455412" style="fill: #ff8c00; stroke: #ff8c00"/>
     <use xlink:href="#m68b8bc43d1" x="237.188776" y="160.391742" style="fill: #ff8c00; stroke: #ff8c00"/>
     <use xlink:href="#m68b8bc43d1" x="241.275974" y="160.330984" style="fill: #ff8c00; stroke: #ff8c00"/>
     <use xlink:href="#m68b8bc43d1" x="245.363173" y="160.272943" style="fill: #ff8c00; stroke: #ff8c00"/>
     <use xlink:href="#m68b8bc43d1" x="249.450371" y="160.21744" style="fill: #ff8c00; stroke: #ff8c00"/>
     <use xlink:href="#m68b8bc43d1" x="253.53757" y="160.164314" style="fill: #ff8c00; stroke: #ff8c00"/>
     <use xlink:href="#m68b8bc43d1" x="257.624768" y="160.113414" style="fill: #ff8c00; stroke: #ff8c00"/>
     <use xlink:href="#m68b8bc43d1" x="261.711967" y="160.064603" style="fill: #ff8c00; stroke: #ff8c00"/>
     <use xlink:href="#m68b8bc43d1" x="265.799165" y="160.017756" style="fill: #ff8c00; stroke: #ff8c00"/>
     <use xlink:href="#m68b8bc43d1" x="269.886364" y="159.972755" style="fill: #ff8c00; stroke: #ff8c00"/>
    </g>
   </g>
   <g id="PathCollection_3">
    <defs>
     <path id="m466dd1f9c4" d="M 0 2.236068 
C 0.593012 2.236068 1.161816 2.000462 1.581139 1.581139 
C 2.000462 1.161816 2.236068 0.593012 2.236068 0 
C 2.236068 -0.593012 2.000462 -1.161816 1.581139 -1.581139 
C 1.161816 -2.000462 0.593012 -2.236068 0 -2.236068 
C -0.593012 -2.236068 -1.161816 -2.000462 -1.581139 -1.581139 
C -2.000462 -1.161816 -2.236068 -0.593012 -2.236068 0 
C -2.236068 0.593012 -2.000462 1.161816 -1.581139 1.581139 
C -1.161816 2.000462 -0.593012 2.236068 0 2.236068 
z
" style="stroke: #708090"/>
    </defs>
    <g clip-path="url(#pad8614c7da)">
     <use xlink:href="#m466dd1f9c4" x="69.613636" y="221.295444" style="fill: #708090; stroke: #708090"/>
     <use xlink:href="#m466dd1f9c4" x="73.700835" y="204.81685" style="fill: #708090; stroke: #708090"/>
     <use xlink:href="#m466dd1f9c4" x="77.788033" y="195.123559" style="fill: #708090; stroke: #708090"/>
     <use xlink:href="#m466dd1f9c4" x="81.875232" y="188.740172" style="fill: #708090; stroke: #708090"/>
     <use xlink:href="#m466dd1f9c4" x="85.96243" y="184.218607" style="fill: #708090; stroke: #708090"/>
     <use xlink:href="#m466dd1f9c4" x="90.049629" y="180.847985" style="fill: #708090; stroke: #708090"/>
     <use xlink:href="#m466dd1f9c4" x="94.136827" y="178.238472" style="fill: #708090; stroke: #708090"/>
     <use xlink:href="#m466dd1f9c4" x="98.224026" y="176.158425" style="fill: #708090; stroke: #708090"/>
     <use xlink:href="#m466dd1f9c4" x="102.311224" y="174.461544" style="fill: #708090; stroke: #708090"/>
     <use xlink:href="#m466dd1f9c4" x="106.398423" y="173.050885" style="fill: #708090; stroke: #708090"/>
     <use xlink:href="#m466dd1f9c4" x="110.485622" y="171.859661" style="fill: #708090; stroke: #708090"/>
     <use xlink:href="#m466dd1f9c4" x="114.57282" y="170.840366" style="fill: #708090; stroke: #708090"/>
     <use xlink:href="#m466dd1f9c4" x="118.660019" y="169.958285" style="fill: #708090; stroke: #708090"/>
     <use xlink:href="#m466dd1f9c4" x="122.747217" y="169.187456" style="fill: #708090; stroke: #708090"/>
     <use xlink:href="#m466dd1f9c4" x="126.834416" y="168.508082" style="fill: #708090; stroke: #708090"/>
     <use xlink:href="#m466dd1f9c4" x="130.921614" y="167.904798" style="fill: #708090; stroke: #708090"/>
     <use xlink:href="#m466dd1f9c4" x="135.008813" y="167.365499" style="fill: #708090; stroke: #708090"/>
     <use xlink:href="#m466dd1f9c4" x="139.096011" y="166.880517" style="fill: #708090; stroke: #708090"/>
     <use xlink:href="#m466dd1f9c4" x="143.18321" y="166.442041" style="fill: #708090; stroke: #708090"/>
     <use xlink:href="#m466dd1f9c4" x="147.270408" y="166.043686" style="fill: #708090; stroke: #708090"/>
     <use xlink:href="#m466dd1f9c4" x="151.357607" y="165.680188" style="fill: #708090; stroke: #708090"/>
     <use xlink:href="#m466dd1f9c4" x="155.444805" y="165.347163" style="fill: #708090; stroke: #708090"/>
     <use xlink:href="#m466dd1f9c4" x="159.532004" y="165.040932" style="fill: #708090; stroke: #708090"/>
     <use xlink:href="#m466dd1f9c4" x="163.619202" y="164.758388" style="fill: #708090; stroke: #708090"/>
     <use xlink:href="#m466dd1f9c4" x="167.706401" y="164.496885" style="fill: #708090; stroke: #708090"/>
     <use xlink:href="#m466dd1f9c4" x="171.793599" y="164.254156" style="fill: #708090; stroke: #708090"/>
     <use xlink:href="#m466dd1f9c4" x="175.880798" y="164.02825" style="fill: #708090; stroke: #708090"/>
     <use xlink:href="#m466dd1f9c4" x="179.967996" y="163.817476" style="fill: #708090; stroke: #708090"/>
     <use xlink:href="#m466dd1f9c4" x="184.055195" y="163.620364" style="fill: #708090; stroke: #708090"/>
     <use xlink:href="#m466dd1f9c4" x="188.142393" y="163.435626" style="fill: #708090; stroke: #708090"/>
     <use xlink:href="#m466dd1f9c4" x="192.229592" y="163.262133" style="fill: #708090; stroke: #708090"/>
     <use xlink:href="#m466dd1f9c4" x="196.31679" y="163.098889" style="fill: #708090; stroke: #708090"/>
     <use xlink:href="#m466dd1f9c4" x="200.403989" y="162.945012" style="fill: #708090; stroke: #708090"/>
     <use xlink:href="#m466dd1f9c4" x="204.491187" y="162.799717" style="fill: #708090; stroke: #708090"/>
     <use xlink:href="#m466dd1f9c4" x="208.578386" y="162.662306" style="fill: #708090; stroke: #708090"/>
     <use xlink:href="#m466dd1f9c4" x="212.665584" y="162.532155" style="fill: #708090; stroke: #708090"/>
     <use xlink:href="#m466dd1f9c4" x="216.752783" y="162.408702" style="fill: #708090; stroke: #708090"/>
     <use xlink:href="#m466dd1f9c4" x="220.839981" y="162.291445" style="fill: #708090; stroke: #708090"/>
     <use xlink:href="#m466dd1f9c4" x="224.92718" y="162.179927" style="fill: #708090; stroke: #708090"/>
     <use xlink:href="#m466dd1f9c4" x="229.014378" y="162.073738" style="fill: #708090; stroke: #708090"/>
     <use xlink:href="#m466dd1f9c4" x="233.101577" y="161.972504" style="fill: #708090; stroke: #708090"/>
     <use xlink:href="#m466dd1f9c4" x="237.188776" y="161.875887" style="fill: #708090; stroke: #708090"/>
     <use xlink:href="#m466dd1f9c4" x="241.275974" y="161.783578" style="fill: #708090; stroke: #708090"/>
     <use xlink:href="#m466dd1f9c4" x="245.363173" y="161.695294" style="fill: #708090; stroke: #708090"/>
     <use xlink:href="#m466dd1f9c4" x="249.450371" y="161.610779" style="fill: #708090; stroke: #708090"/>
     <use xlink:href="#m466dd1f9c4" x="253.53757" y="161.529796" style="fill: #708090; stroke: #708090"/>
     <use xlink:href="#m466dd1f9c4" x="257.624768" y="161.452128" style="fill: #708090; stroke: #708090"/>
     <use xlink:href="#m466dd1f9c4" x="261.711967" y="161.377575" style="fill: #708090; stroke: #708090"/>
     <use xlink:href="#m466dd1f9c4" x="265.799165" y="161.305954" style="fill: #708090; stroke: #708090"/>
     <use xlink:href="#m466dd1f9c4" x="269.886364" y="161.237096" style="fill: #708090; stroke: #708090"/>
    </g>
   </g>
   <g id="matplotlib.axis_1">
    <g id="xtick_1">
     <g id="line2d_1">
      <path d="M 69.613636 233.44 
L 69.613636 16.2 
" clip-path="url(#pad8614c7da)" style="fill: none; stroke: #b0b0b0; stroke-width: 0.8; stroke-linecap: square"/>
     </g>
     <g id="line2d_2">
      <defs>
       <path id="m2087de5975" d="M 0 0 
L 0 3.5 
" style="stroke: #000000; stroke-width: 0.8"/>
      </defs>
      <g>
       <use xlink:href="#m2087de5975" x="69.613636" y="233.44" style="stroke: #000000; stroke-width: 0.8"/>
      </g>
     </g>
     <g id="text_1">
      <!-- 0 -->
      <g transform="translate(65.863636 250.855625) scale(0.15 -0.15)">
       <defs>
        <path id="TimesNewRomanPSMT-30" d="M 231 2094 
Q 231 2819 450 3342 
Q 669 3866 1031 4122 
Q 1313 4325 1613 4325 
Q 2100 4325 2488 3828 
Q 2972 3213 2972 2159 
Q 2972 1422 2759 906 
Q 2547 391 2217 158 
Q 1888 -75 1581 -75 
Q 975 -75 572 641 
Q 231 1244 231 2094 
z
M 844 2016 
Q 844 1141 1059 588 
Q 1238 122 1591 122 
Q 1759 122 1940 273 
Q 2122 425 2216 781 
Q 2359 1319 2359 2297 
Q 2359 3022 2209 3506 
Q 2097 3866 1919 4016 
Q 1791 4119 1609 4119 
Q 1397 4119 1231 3928 
Q 1006 3669 925 3112 
Q 844 2556 844 2016 
z
" transform="scale(0.015625)"/>
       </defs>
       <use xlink:href="#TimesNewRomanPSMT-30"/>
      </g>
     </g>
    </g>
    <g id="xtick_2">
     <g id="line2d_3">
      <path d="M 151.357607 233.44 
L 151.357607 16.2 
" clip-path="url(#pad8614c7da)" style="fill: none; stroke: #b0b0b0; stroke-width: 0.8; stroke-linecap: square"/>
     </g>
     <g id="line2d_4">
      <g>
       <use xlink:href="#m2087de5975" x="151.357607" y="233.44" style="stroke: #000000; stroke-width: 0.8"/>
      </g>
     </g>
     <g id="text_2">
      <!-- 20 -->
      <g transform="translate(143.857607 250.855625) scale(0.15 -0.15)">
       <defs>
        <path id="TimesNewRomanPSMT-32" d="M 2934 816 
L 2638 0 
L 138 0 
L 138 116 
Q 1241 1122 1691 1759 
Q 2141 2397 2141 2925 
Q 2141 3328 1894 3587 
Q 1647 3847 1303 3847 
Q 991 3847 742 3664 
Q 494 3481 375 3128 
L 259 3128 
Q 338 3706 661 4015 
Q 984 4325 1469 4325 
Q 1984 4325 2329 3994 
Q 2675 3663 2675 3213 
Q 2675 2891 2525 2569 
Q 2294 2063 1775 1497 
Q 997 647 803 472 
L 1909 472 
Q 2247 472 2383 497 
Q 2519 522 2628 598 
Q 2738 675 2819 816 
L 2934 816 
z
" transform="scale(0.015625)"/>
       </defs>
       <use xlink:href="#TimesNewRomanPSMT-32"/>
       <use xlink:href="#TimesNewRomanPSMT-30" x="50"/>
      </g>
     </g>
    </g>
    <g id="xtick_3">
     <g id="line2d_5">
      <path d="M 233.101577 233.44 
L 233.101577 16.2 
" clip-path="url(#pad8614c7da)" style="fill: none; stroke: #b0b0b0; stroke-width: 0.8; stroke-linecap: square"/>
     </g>
     <g id="line2d_6">
      <g>
       <use xlink:href="#m2087de5975" x="233.101577" y="233.44" style="stroke: #000000; stroke-width: 0.8"/>
      </g>
     </g>
     <g id="text_3">
      <!-- 40 -->
      <g transform="translate(225.601577 250.855625) scale(0.15 -0.15)">
       <defs>
        <path id="TimesNewRomanPSMT-34" d="M 2978 1563 
L 2978 1119 
L 2409 1119 
L 2409 0 
L 1894 0 
L 1894 1119 
L 100 1119 
L 100 1519 
L 2066 4325 
L 2409 4325 
L 2409 1563 
L 2978 1563 
z
M 1894 1563 
L 1894 3666 
L 406 1563 
L 1894 1563 
z
" transform="scale(0.015625)"/>
       </defs>
       <use xlink:href="#TimesNewRomanPSMT-34"/>
       <use xlink:href="#TimesNewRomanPSMT-30" x="50"/>
      </g>
     </g>
    </g>
    <g id="text_4">
     <!-- Diffusion Steps -->
     <g transform="translate(123.00625 268.479844) scale(0.15 -0.15)">
      <defs>
       <path id="TimesNewRomanPSMT-44" d="M 109 0 
L 109 116 
L 269 116 
Q 538 116 650 288 
Q 719 391 719 750 
L 719 3488 
Q 719 3884 631 3984 
Q 509 4122 269 4122 
L 109 4122 
L 109 4238 
L 1834 4238 
Q 2784 4238 3279 4022 
Q 3775 3806 4076 3303 
Q 4378 2800 4378 2141 
Q 4378 1256 3841 663 
Q 3238 0 2003 0 
L 109 0 
z
M 1319 306 
Q 1716 219 1984 219 
Q 2709 219 3187 728 
Q 3666 1238 3666 2109 
Q 3666 2988 3187 3494 
Q 2709 4000 1959 4000 
Q 1678 4000 1319 3909 
L 1319 306 
z
" transform="scale(0.015625)"/>
       <path id="TimesNewRomanPSMT-69" d="M 928 4444 
Q 1059 4444 1151 4351 
Q 1244 4259 1244 4128 
Q 1244 3997 1151 3903 
Q 1059 3809 928 3809 
Q 797 3809 703 3903 
Q 609 3997 609 4128 
Q 609 4259 701 4351 
Q 794 4444 928 4444 
z
M 1188 2947 
L 1188 647 
Q 1188 378 1227 289 
Q 1266 200 1342 156 
Q 1419 113 1622 113 
L 1622 0 
L 231 0 
L 231 113 
Q 441 113 512 153 
Q 584 194 626 287 
Q 669 381 669 647 
L 669 1750 
Q 669 2216 641 2353 
Q 619 2453 572 2492 
Q 525 2531 444 2531 
Q 356 2531 231 2484 
L 188 2597 
L 1050 2947 
L 1188 2947 
z
" transform="scale(0.015625)"/>
       <path id="TimesNewRomanPSMT-66" d="M 1319 2638 
L 1319 756 
Q 1319 356 1406 250 
Q 1522 113 1716 113 
L 1975 113 
L 1975 0 
L 266 0 
L 266 113 
L 394 113 
Q 519 113 622 175 
Q 725 238 764 344 
Q 803 450 803 756 
L 803 2638 
L 247 2638 
L 247 2863 
L 803 2863 
L 803 3050 
Q 803 3478 940 3775 
Q 1078 4072 1361 4255 
Q 1644 4438 1997 4438 
Q 2325 4438 2600 4225 
Q 2781 4084 2781 3909 
Q 2781 3816 2700 3733 
Q 2619 3650 2525 3650 
Q 2453 3650 2373 3701 
Q 2294 3753 2178 3923 
Q 2063 4094 1966 4153 
Q 1869 4213 1750 4213 
Q 1606 4213 1506 4136 
Q 1406 4059 1362 3898 
Q 1319 3738 1319 3069 
L 1319 2863 
L 2056 2863 
L 2056 2638 
L 1319 2638 
z
" transform="scale(0.015625)"/>
       <path id="TimesNewRomanPSMT-75" d="M 2709 2863 
L 2709 1128 
Q 2709 631 2732 520 
Q 2756 409 2807 365 
Q 2859 322 2928 322 
Q 3025 322 3147 375 
L 3191 266 
L 2334 -88 
L 2194 -88 
L 2194 519 
Q 1825 119 1631 15 
Q 1438 -88 1222 -88 
Q 981 -88 804 51 
Q 628 191 559 409 
Q 491 628 491 1028 
L 491 2306 
Q 491 2509 447 2587 
Q 403 2666 317 2708 
Q 231 2750 6 2747 
L 6 2863 
L 1009 2863 
L 1009 947 
Q 1009 547 1148 422 
Q 1288 297 1484 297 
Q 1619 297 1789 381 
Q 1959 466 2194 703 
L 2194 2325 
Q 2194 2569 2105 2655 
Q 2016 2741 1734 2747 
L 1734 2863 
L 2709 2863 
z
" transform="scale(0.015625)"/>
       <path id="TimesNewRomanPSMT-73" d="M 2050 2947 
L 2050 1972 
L 1947 1972 
Q 1828 2431 1642 2597 
Q 1456 2763 1169 2763 
Q 950 2763 815 2647 
Q 681 2531 681 2391 
Q 681 2216 781 2091 
Q 878 1963 1175 1819 
L 1631 1597 
Q 2266 1288 2266 781 
Q 2266 391 1970 151 
Q 1675 -88 1309 -88 
Q 1047 -88 709 6 
Q 606 38 541 38 
Q 469 38 428 -44 
L 325 -44 
L 325 978 
L 428 978 
Q 516 541 762 319 
Q 1009 97 1316 97 
Q 1531 97 1667 223 
Q 1803 350 1803 528 
Q 1803 744 1651 891 
Q 1500 1038 1047 1263 
Q 594 1488 453 1669 
Q 313 1847 313 2119 
Q 313 2472 555 2709 
Q 797 2947 1181 2947 
Q 1350 2947 1591 2875 
Q 1750 2828 1803 2828 
Q 1853 2828 1881 2850 
Q 1909 2872 1947 2947 
L 2050 2947 
z
" transform="scale(0.015625)"/>
       <path id="TimesNewRomanPSMT-6f" d="M 1600 2947 
Q 2250 2947 2644 2453 
Q 2978 2031 2978 1484 
Q 2978 1100 2793 706 
Q 2609 313 2286 112 
Q 1963 -88 1566 -88 
Q 919 -88 538 428 
Q 216 863 216 1403 
Q 216 1797 411 2186 
Q 606 2575 925 2761 
Q 1244 2947 1600 2947 
z
M 1503 2744 
Q 1338 2744 1170 2645 
Q 1003 2547 900 2300 
Q 797 2053 797 1666 
Q 797 1041 1045 587 
Q 1294 134 1700 134 
Q 2003 134 2200 384 
Q 2397 634 2397 1244 
Q 2397 2006 2069 2444 
Q 1847 2744 1503 2744 
z
" transform="scale(0.015625)"/>
       <path id="TimesNewRomanPSMT-6e" d="M 1034 2341 
Q 1538 2947 1994 2947 
Q 2228 2947 2397 2830 
Q 2566 2713 2666 2444 
Q 2734 2256 2734 1869 
L 2734 647 
Q 2734 375 2778 278 
Q 2813 200 2889 156 
Q 2966 113 3172 113 
L 3172 0 
L 1756 0 
L 1756 113 
L 1816 113 
Q 2016 113 2095 173 
Q 2175 234 2206 353 
Q 2219 400 2219 647 
L 2219 1819 
Q 2219 2209 2117 2386 
Q 2016 2563 1775 2563 
Q 1403 2563 1034 2156 
L 1034 647 
Q 1034 356 1069 288 
Q 1113 197 1189 155 
Q 1266 113 1500 113 
L 1500 0 
L 84 0 
L 84 113 
L 147 113 
Q 366 113 442 223 
Q 519 334 519 647 
L 519 1709 
Q 519 2225 495 2337 
Q 472 2450 423 2490 
Q 375 2531 294 2531 
Q 206 2531 84 2484 
L 38 2597 
L 900 2947 
L 1034 2947 
L 1034 2341 
z
" transform="scale(0.015625)"/>
       <path id="TimesNewRomanPSMT-20" transform="scale(0.015625)"/>
       <path id="TimesNewRomanPSMT-53" d="M 2934 4334 
L 2934 2869 
L 2819 2869 
Q 2763 3291 2617 3541 
Q 2472 3791 2203 3937 
Q 1934 4084 1647 4084 
Q 1322 4084 1109 3886 
Q 897 3688 897 3434 
Q 897 3241 1031 3081 
Q 1225 2847 1953 2456 
Q 2547 2138 2764 1967 
Q 2981 1797 3098 1565 
Q 3216 1334 3216 1081 
Q 3216 600 2842 251 
Q 2469 -97 1881 -97 
Q 1697 -97 1534 -69 
Q 1438 -53 1133 45 
Q 828 144 747 144 
Q 669 144 623 97 
Q 578 50 556 -97 
L 441 -97 
L 441 1356 
L 556 1356 
Q 638 900 775 673 
Q 913 447 1195 297 
Q 1478 147 1816 147 
Q 2206 147 2432 353 
Q 2659 559 2659 841 
Q 2659 997 2573 1156 
Q 2488 1316 2306 1453 
Q 2184 1547 1640 1851 
Q 1097 2156 867 2337 
Q 638 2519 519 2737 
Q 400 2956 400 3219 
Q 400 3675 750 4004 
Q 1100 4334 1641 4334 
Q 1978 4334 2356 4169 
Q 2531 4091 2603 4091 
Q 2684 4091 2736 4139 
Q 2788 4188 2819 4334 
L 2934 4334 
z
" transform="scale(0.015625)"/>
       <path id="TimesNewRomanPSMT-74" d="M 1031 3803 
L 1031 2863 
L 1700 2863 
L 1700 2644 
L 1031 2644 
L 1031 788 
Q 1031 509 1111 412 
Q 1191 316 1316 316 
Q 1419 316 1516 380 
Q 1613 444 1666 569 
L 1788 569 
Q 1678 263 1478 108 
Q 1278 -47 1066 -47 
Q 922 -47 784 33 
Q 647 113 581 261 
Q 516 409 516 719 
L 516 2644 
L 63 2644 
L 63 2747 
Q 234 2816 414 2980 
Q 594 3144 734 3369 
Q 806 3488 934 3803 
L 1031 3803 
z
" transform="scale(0.015625)"/>
       <path id="TimesNewRomanPSMT-65" d="M 681 1784 
Q 678 1147 991 784 
Q 1303 422 1725 422 
Q 2006 422 2214 576 
Q 2422 731 2563 1106 
L 2659 1044 
Q 2594 616 2278 264 
Q 1963 -88 1488 -88 
Q 972 -88 605 314 
Q 238 716 238 1394 
Q 238 2128 614 2539 
Q 991 2950 1559 2950 
Q 2041 2950 2350 2633 
Q 2659 2316 2659 1784 
L 681 1784 
z
M 681 1966 
L 2006 1966 
Q 1991 2241 1941 2353 
Q 1863 2528 1708 2628 
Q 1553 2728 1384 2728 
Q 1125 2728 920 2526 
Q 716 2325 681 1966 
z
" transform="scale(0.015625)"/>
       <path id="TimesNewRomanPSMT-70" d="M -6 2578 
L 875 2934 
L 994 2934 
L 994 2266 
Q 1216 2644 1439 2795 
Q 1663 2947 1909 2947 
Q 2341 2947 2628 2609 
Q 2981 2197 2981 1534 
Q 2981 794 2556 309 
Q 2206 -88 1675 -88 
Q 1444 -88 1275 -22 
Q 1150 25 994 166 
L 994 -706 
Q 994 -1000 1030 -1079 
Q 1066 -1159 1155 -1206 
Q 1244 -1253 1478 -1253 
L 1478 -1369 
L -22 -1369 
L -22 -1253 
L 56 -1253 
Q 228 -1256 350 -1188 
Q 409 -1153 442 -1076 
Q 475 -1000 475 -688 
L 475 2019 
Q 475 2297 450 2372 
Q 425 2447 370 2484 
Q 316 2522 222 2522 
Q 147 2522 31 2478 
L -6 2578 
z
M 994 2081 
L 994 1013 
Q 994 666 1022 556 
Q 1066 375 1236 237 
Q 1406 100 1666 100 
Q 1978 100 2172 344 
Q 2425 663 2425 1241 
Q 2425 1897 2138 2250 
Q 1938 2494 1663 2494 
Q 1513 2494 1366 2419 
Q 1253 2363 994 2081 
z
" transform="scale(0.015625)"/>
      </defs>
      <use xlink:href="#TimesNewRomanPSMT-44"/>
      <use xlink:href="#TimesNewRomanPSMT-69" x="72.216797"/>
      <use xlink:href="#TimesNewRomanPSMT-66" x="100"/>
      <use xlink:href="#TimesNewRomanPSMT-66" x="131.550781"/>
      <use xlink:href="#TimesNewRomanPSMT-75" x="164.851562"/>
      <use xlink:href="#TimesNewRomanPSMT-73" x="214.851562"/>
      <use xlink:href="#TimesNewRomanPSMT-69" x="253.767578"/>
      <use xlink:href="#TimesNewRomanPSMT-6f" x="281.550781"/>
      <use xlink:href="#TimesNewRomanPSMT-6e" x="331.550781"/>
      <use xlink:href="#TimesNewRomanPSMT-20" x="381.550781"/>
      <use xlink:href="#TimesNewRomanPSMT-53" x="406.550781"/>
      <use xlink:href="#TimesNewRomanPSMT-74" x="462.166016"/>
      <use xlink:href="#TimesNewRomanPSMT-65" x="489.949219"/>
      <use xlink:href="#TimesNewRomanPSMT-70" x="534.333984"/>
      <use xlink:href="#TimesNewRomanPSMT-73" x="584.333984"/>
     </g>
    </g>
   </g>
   <g id="matplotlib.axis_2">
    <g id="ytick_1">
     <g id="line2d_7">
      <path d="M 59.6 232.645496 
L 279.9 232.645496 
" clip-path="url(#pad8614c7da)" style="fill: none; stroke: #b0b0b0; stroke-width: 0.8; stroke-linecap: square"/>
     </g>
     <g id="line2d_8">
      <defs>
       <path id="m108096e06d" d="M 0 0 
L -3.5 0 
" style="stroke: #000000; stroke-width: 0.8"/>
      </defs>
      <g>
       <use xlink:href="#m108096e06d" x="59.6" y="232.645496" style="stroke: #000000; stroke-width: 0.8"/>
      </g>
     </g>
     <g id="text_5">
      <!-- 0.0 -->
      <g transform="translate(33.85 237.853309) scale(0.15 -0.15)">
       <defs>
        <path id="TimesNewRomanPSMT-2e" d="M 800 606 
Q 947 606 1047 504 
Q 1147 403 1147 259 
Q 1147 116 1045 14 
Q 944 -88 800 -88 
Q 656 -88 554 14 
Q 453 116 453 259 
Q 453 406 554 506 
Q 656 606 800 606 
z
" transform="scale(0.015625)"/>
       </defs>
       <use xlink:href="#TimesNewRomanPSMT-30"/>
       <use xlink:href="#TimesNewRomanPSMT-2e" x="50"/>
       <use xlink:href="#TimesNewRomanPSMT-30" x="75"/>
      </g>
     </g>
    </g>
    <g id="ytick_2">
     <g id="line2d_9">
      <path d="M 59.6 187.245287 
L 279.9 187.245287 
" clip-path="url(#pad8614c7da)" style="fill: none; stroke: #b0b0b0; stroke-width: 0.8; stroke-linecap: square"/>
     </g>
     <g id="line2d_10">
      <g>
       <use xlink:href="#m108096e06d" x="59.6" y="187.245287" style="stroke: #000000; stroke-width: 0.8"/>
      </g>
     </g>
     <g id="text_6">
      <!-- 0.2 -->
      <g transform="translate(33.85 192.4531) scale(0.15 -0.15)">
       <use xlink:href="#TimesNewRomanPSMT-30"/>
       <use xlink:href="#TimesNewRomanPSMT-2e" x="50"/>
       <use xlink:href="#TimesNewRomanPSMT-32" x="75"/>
      </g>
     </g>
    </g>
    <g id="ytick_3">
     <g id="line2d_11">
      <path d="M 59.6 141.845078 
L 279.9 141.845078 
" clip-path="url(#pad8614c7da)" style="fill: none; stroke: #b0b0b0; stroke-width: 0.8; stroke-linecap: square"/>
     </g>
     <g id="line2d_12">
      <g>
       <use xlink:href="#m108096e06d" x="59.6" y="141.845078" style="stroke: #000000; stroke-width: 0.8"/>
      </g>
     </g>
     <g id="text_7">
      <!-- 0.4 -->
      <g transform="translate(33.85 147.052891) scale(0.15 -0.15)">
       <use xlink:href="#TimesNewRomanPSMT-30"/>
       <use xlink:href="#TimesNewRomanPSMT-2e" x="50"/>
       <use xlink:href="#TimesNewRomanPSMT-34" x="75"/>
      </g>
     </g>
    </g>
    <g id="ytick_4">
     <g id="line2d_13">
      <path d="M 59.6 96.444869 
L 279.9 96.444869 
" clip-path="url(#pad8614c7da)" style="fill: none; stroke: #b0b0b0; stroke-width: 0.8; stroke-linecap: square"/>
     </g>
     <g id="line2d_14">
      <g>
       <use xlink:href="#m108096e06d" x="59.6" y="96.444869" style="stroke: #000000; stroke-width: 0.8"/>
      </g>
     </g>
     <g id="text_8">
      <!-- 0.6 -->
      <g transform="translate(33.85 101.652682) scale(0.15 -0.15)">
       <defs>
        <path id="TimesNewRomanPSMT-36" d="M 2869 4325 
L 2869 4209 
Q 2456 4169 2195 4045 
Q 1934 3922 1679 3669 
Q 1425 3416 1258 3105 
Q 1091 2794 978 2366 
Q 1428 2675 1881 2675 
Q 2316 2675 2634 2325 
Q 2953 1975 2953 1425 
Q 2953 894 2631 456 
Q 2244 -75 1606 -75 
Q 1172 -75 869 213 
Q 275 772 275 1663 
Q 275 2231 503 2743 
Q 731 3256 1154 3653 
Q 1578 4050 1965 4187 
Q 2353 4325 2688 4325 
L 2869 4325 
z
M 925 2138 
Q 869 1716 869 1456 
Q 869 1156 980 804 
Q 1091 453 1309 247 
Q 1469 100 1697 100 
Q 1969 100 2183 356 
Q 2397 613 2397 1088 
Q 2397 1622 2184 2012 
Q 1972 2403 1581 2403 
Q 1463 2403 1327 2353 
Q 1191 2303 925 2138 
z
" transform="scale(0.015625)"/>
       </defs>
       <use xlink:href="#TimesNewRomanPSMT-30"/>
       <use xlink:href="#TimesNewRomanPSMT-2e" x="50"/>
       <use xlink:href="#TimesNewRomanPSMT-36" x="75"/>
      </g>
     </g>
    </g>
    <g id="ytick_5">
     <g id="line2d_15">
      <path d="M 59.6 51.04466 
L 279.9 51.04466 
" clip-path="url(#pad8614c7da)" style="fill: none; stroke: #b0b0b0; stroke-width: 0.8; stroke-linecap: square"/>
     </g>
     <g id="line2d_16">
      <g>
       <use xlink:href="#m108096e06d" x="59.6" y="51.04466" style="stroke: #000000; stroke-width: 0.8"/>
      </g>
     </g>
     <g id="text_9">
      <!-- 0.8 -->
      <g transform="translate(33.85 56.252473) scale(0.15 -0.15)">
       <defs>
        <path id="TimesNewRomanPSMT-38" d="M 1228 2134 
Q 725 2547 579 2797 
Q 434 3047 434 3316 
Q 434 3728 753 4026 
Q 1072 4325 1600 4325 
Q 2113 4325 2425 4047 
Q 2738 3769 2738 3413 
Q 2738 3175 2569 2928 
Q 2400 2681 1866 2347 
Q 2416 1922 2594 1678 
Q 2831 1359 2831 1006 
Q 2831 559 2490 242 
Q 2150 -75 1597 -75 
Q 994 -75 656 303 
Q 388 606 388 966 
Q 388 1247 577 1523 
Q 766 1800 1228 2134 
z
M 1719 2469 
Q 2094 2806 2194 3001 
Q 2294 3197 2294 3444 
Q 2294 3772 2109 3958 
Q 1925 4144 1606 4144 
Q 1288 4144 1088 3959 
Q 888 3775 888 3528 
Q 888 3366 970 3203 
Q 1053 3041 1206 2894 
L 1719 2469 
z
M 1375 2016 
Q 1116 1797 991 1539 
Q 866 1281 866 981 
Q 866 578 1086 336 
Q 1306 94 1647 94 
Q 1984 94 2187 284 
Q 2391 475 2391 747 
Q 2391 972 2272 1150 
Q 2050 1481 1375 2016 
z
" transform="scale(0.015625)"/>
       </defs>
       <use xlink:href="#TimesNewRomanPSMT-30"/>
       <use xlink:href="#TimesNewRomanPSMT-2e" x="50"/>
       <use xlink:href="#TimesNewRomanPSMT-38" x="75"/>
      </g>
     </g>
    </g>
    <g id="text_10">
     <!-- Membership Degree -->
     <g transform="translate(26.613281 186.257891) rotate(-90) scale(0.15 -0.15)">
      <defs>
       <path id="TimesNewRomanPSMT-4d" d="M 2619 0 
L 981 3566 
L 981 734 
Q 981 344 1066 247 
Q 1181 116 1431 116 
L 1581 116 
L 1581 0 
L 106 0 
L 106 116 
L 256 116 
Q 525 116 638 278 
Q 706 378 706 734 
L 706 3503 
Q 706 3784 644 3909 
Q 600 4000 483 4061 
Q 366 4122 106 4122 
L 106 4238 
L 1306 4238 
L 2844 922 
L 4356 4238 
L 5556 4238 
L 5556 4122 
L 5409 4122 
Q 5138 4122 5025 3959 
Q 4956 3859 4956 3503 
L 4956 734 
Q 4956 344 5044 247 
Q 5159 116 5409 116 
L 5556 116 
L 5556 0 
L 3756 0 
L 3756 116 
L 3906 116 
Q 4178 116 4288 278 
Q 4356 378 4356 734 
L 4356 3566 
L 2722 0 
L 2619 0 
z
" transform="scale(0.015625)"/>
       <path id="TimesNewRomanPSMT-6d" d="M 1050 2338 
Q 1363 2650 1419 2697 
Q 1559 2816 1721 2881 
Q 1884 2947 2044 2947 
Q 2313 2947 2506 2790 
Q 2700 2634 2766 2338 
Q 3088 2713 3309 2830 
Q 3531 2947 3766 2947 
Q 3994 2947 4170 2830 
Q 4347 2713 4450 2447 
Q 4519 2266 4519 1878 
L 4519 647 
Q 4519 378 4559 278 
Q 4591 209 4675 161 
Q 4759 113 4950 113 
L 4950 0 
L 3538 0 
L 3538 113 
L 3597 113 
Q 3781 113 3884 184 
Q 3956 234 3988 344 
Q 4000 397 4000 647 
L 4000 1878 
Q 4000 2228 3916 2372 
Q 3794 2572 3525 2572 
Q 3359 2572 3192 2489 
Q 3025 2406 2788 2181 
L 2781 2147 
L 2788 2013 
L 2788 647 
Q 2788 353 2820 281 
Q 2853 209 2943 161 
Q 3034 113 3253 113 
L 3253 0 
L 1806 0 
L 1806 113 
Q 2044 113 2133 169 
Q 2222 225 2256 338 
Q 2272 391 2272 647 
L 2272 1878 
Q 2272 2228 2169 2381 
Q 2031 2581 1784 2581 
Q 1616 2581 1450 2491 
Q 1191 2353 1050 2181 
L 1050 647 
Q 1050 366 1089 281 
Q 1128 197 1204 155 
Q 1281 113 1516 113 
L 1516 0 
L 100 0 
L 100 113 
Q 297 113 375 155 
Q 453 197 493 289 
Q 534 381 534 647 
L 534 1741 
Q 534 2213 506 2350 
Q 484 2453 437 2492 
Q 391 2531 309 2531 
Q 222 2531 100 2484 
L 53 2597 
L 916 2947 
L 1050 2947 
L 1050 2338 
z
" transform="scale(0.015625)"/>
       <path id="TimesNewRomanPSMT-62" d="M 984 2369 
Q 1400 2947 1881 2947 
Q 2322 2947 2650 2570 
Q 2978 2194 2978 1541 
Q 2978 778 2472 313 
Q 2038 -88 1503 -88 
Q 1253 -88 995 3 
Q 738 94 469 275 
L 469 3241 
Q 469 3728 445 3840 
Q 422 3953 372 3993 
Q 322 4034 247 4034 
Q 159 4034 28 3984 
L -16 4094 
L 844 4444 
L 984 4444 
L 984 2369 
z
M 984 2169 
L 984 456 
Q 1144 300 1314 220 
Q 1484 141 1663 141 
Q 1947 141 2192 453 
Q 2438 766 2438 1363 
Q 2438 1913 2192 2208 
Q 1947 2503 1634 2503 
Q 1469 2503 1303 2419 
Q 1178 2356 984 2169 
z
" transform="scale(0.015625)"/>
       <path id="TimesNewRomanPSMT-72" d="M 1038 2947 
L 1038 2303 
Q 1397 2947 1775 2947 
Q 1947 2947 2059 2842 
Q 2172 2738 2172 2600 
Q 2172 2478 2090 2393 
Q 2009 2309 1897 2309 
Q 1788 2309 1652 2417 
Q 1516 2525 1450 2525 
Q 1394 2525 1328 2463 
Q 1188 2334 1038 2041 
L 1038 669 
Q 1038 431 1097 309 
Q 1138 225 1241 169 
Q 1344 113 1538 113 
L 1538 0 
L 72 0 
L 72 113 
Q 291 113 397 181 
Q 475 231 506 341 
Q 522 394 522 644 
L 522 1753 
Q 522 2253 501 2348 
Q 481 2444 426 2487 
Q 372 2531 291 2531 
Q 194 2531 72 2484 
L 41 2597 
L 906 2947 
L 1038 2947 
z
" transform="scale(0.015625)"/>
       <path id="TimesNewRomanPSMT-68" d="M 1041 4444 
L 1041 2350 
Q 1388 2731 1591 2839 
Q 1794 2947 1997 2947 
Q 2241 2947 2416 2812 
Q 2591 2678 2675 2391 
Q 2734 2191 2734 1659 
L 2734 647 
Q 2734 375 2778 275 
Q 2809 200 2884 156 
Q 2959 113 3159 113 
L 3159 0 
L 1753 0 
L 1753 113 
L 1819 113 
Q 2019 113 2097 173 
Q 2175 234 2206 353 
Q 2216 403 2216 647 
L 2216 1659 
Q 2216 2128 2167 2275 
Q 2119 2422 2012 2495 
Q 1906 2569 1756 2569 
Q 1603 2569 1437 2487 
Q 1272 2406 1041 2159 
L 1041 647 
Q 1041 353 1073 281 
Q 1106 209 1195 161 
Q 1284 113 1503 113 
L 1503 0 
L 84 0 
L 84 113 
Q 275 113 384 172 
Q 447 203 484 290 
Q 522 378 522 647 
L 522 3238 
Q 522 3728 498 3840 
Q 475 3953 426 3993 
Q 378 4034 297 4034 
Q 231 4034 84 3984 
L 41 4094 
L 897 4444 
L 1041 4444 
z
" transform="scale(0.015625)"/>
       <path id="TimesNewRomanPSMT-67" d="M 966 1044 
Q 703 1172 562 1401 
Q 422 1631 422 1909 
Q 422 2334 742 2640 
Q 1063 2947 1563 2947 
Q 1972 2947 2272 2747 
L 2878 2747 
Q 3013 2747 3034 2739 
Q 3056 2731 3066 2713 
Q 3084 2684 3084 2613 
Q 3084 2531 3069 2500 
Q 3059 2484 3036 2475 
Q 3013 2466 2878 2466 
L 2506 2466 
Q 2681 2241 2681 1891 
Q 2681 1491 2375 1206 
Q 2069 922 1553 922 
Q 1341 922 1119 984 
Q 981 866 932 777 
Q 884 688 884 625 
Q 884 572 936 522 
Q 988 472 1138 450 
Q 1225 438 1575 428 
Q 2219 413 2409 384 
Q 2700 344 2873 169 
Q 3047 -6 3047 -263 
Q 3047 -616 2716 -925 
Q 2228 -1381 1444 -1381 
Q 841 -1381 425 -1109 
Q 191 -953 191 -784 
Q 191 -709 225 -634 
Q 278 -519 444 -313 
Q 466 -284 763 25 
Q 600 122 533 198 
Q 466 275 466 372 
Q 466 481 555 628 
Q 644 775 966 1044 
z
M 1509 2797 
Q 1278 2797 1122 2612 
Q 966 2428 966 2047 
Q 966 1553 1178 1281 
Q 1341 1075 1591 1075 
Q 1828 1075 1981 1253 
Q 2134 1431 2134 1813 
Q 2134 2309 1919 2591 
Q 1759 2797 1509 2797 
z
M 934 0 
Q 788 -159 713 -296 
Q 638 -434 638 -550 
Q 638 -700 819 -813 
Q 1131 -1006 1722 -1006 
Q 2284 -1006 2551 -807 
Q 2819 -609 2819 -384 
Q 2819 -222 2659 -153 
Q 2497 -84 2016 -72 
Q 1313 -53 934 0 
z
" transform="scale(0.015625)"/>
      </defs>
      <use xlink:href="#TimesNewRomanPSMT-4d"/>
      <use xlink:href="#TimesNewRomanPSMT-65" x="88.916016"/>
      <use xlink:href="#TimesNewRomanPSMT-6d" x="133.300781"/>
      <use xlink:href="#TimesNewRomanPSMT-62" x="211.083984"/>
      <use xlink:href="#TimesNewRomanPSMT-65" x="261.083984"/>
      <use xlink:href="#TimesNewRomanPSMT-72" x="305.46875"/>
      <use xlink:href="#TimesNewRomanPSMT-73" x="338.769531"/>
      <use xlink:href="#TimesNewRomanPSMT-68" x="377.685547"/>
      <use xlink:href="#TimesNewRomanPSMT-69" x="427.685547"/>
      <use xlink:href="#TimesNewRomanPSMT-70" x="455.46875"/>
      <use xlink:href="#TimesNewRomanPSMT-20" x="505.46875"/>
      <use xlink:href="#TimesNewRomanPSMT-44" x="530.46875"/>
      <use xlink:href="#TimesNewRomanPSMT-65" x="602.685547"/>
      <use xlink:href="#TimesNewRomanPSMT-67" x="647.070312"/>
      <use xlink:href="#TimesNewRomanPSMT-72" x="697.070312"/>
      <use xlink:href="#TimesNewRomanPSMT-65" x="730.371094"/>
      <use xlink:href="#TimesNewRomanPSMT-65" x="774.755859"/>
     </g>
    </g>
   </g>
   <g id="line2d_17">
    <path d="M 69.613636 157.735152 
L 73.700835 157.735152 
L 77.788033 157.735152 
L 81.875232 157.735152 
L 85.96243 157.735152 
L 90.049629 157.735152 
L 94.136827 157.735152 
L 98.224026 157.735152 
L 102.311224 157.735152 
L 106.398423 157.735152 
L 110.485622 157.735152 
L 114.57282 157.735152 
L 118.660019 157.735152 
L 122.747217 157.735152 
L 126.834416 157.735152 
L 130.921614 157.735152 
L 135.008813 157.735152 
L 139.096011 157.735152 
L 143.18321 157.735152 
L 147.270408 157.735152 
L 151.357607 157.735152 
L 155.444805 157.735152 
L 159.532004 157.735152 
L 163.619202 157.735152 
L 167.706401 157.735152 
L 171.793599 157.735152 
L 175.880798 157.735152 
L 179.967996 157.735152 
L 184.055195 157.735152 
L 188.142393 157.735152 
L 192.229592 157.735152 
L 196.31679 157.735152 
L 200.403989 157.735152 
L 204.491187 157.735152 
L 208.578386 157.735152 
L 212.665584 157.735152 
L 216.752783 157.735152 
L 220.839981 157.735152 
L 224.92718 157.735152 
L 229.014378 157.735152 
L 233.101577 157.735152 
L 237.188776 157.735152 
L 241.275974 157.735152 
L 245.363173 157.735152 
L 249.450371 157.735152 
L 253.53757 157.735152 
L 257.624768 157.735152 
L 261.711967 157.735152 
L 265.799165 157.735152 
L 269.886364 157.735152 
" clip-path="url(#pad8614c7da)" style="fill: none; stroke-dasharray: 3.7,1.6; stroke-dashoffset: 0; stroke: #ff0000"/>
   </g>
   <g id="patch_3">
    <path d="M 59.6 233.44 
L 59.6 16.2 
" style="fill: none; stroke: #000000; stroke-width: 0.8; stroke-linejoin: miter; stroke-linecap: square"/>
   </g>
   <g id="patch_4">
    <path d="M 279.9 233.44 
L 279.9 16.2 
" style="fill: none; stroke: #000000; stroke-width: 0.8; stroke-linejoin: miter; stroke-linecap: square"/>
   </g>
   <g id="patch_5">
    <path d="M 59.6 233.44 
L 279.9 233.44 
" style="fill: none; stroke: #000000; stroke-width: 0.8; stroke-linejoin: miter; stroke-linecap: square"/>
   </g>
   <g id="patch_6">
    <path d="M 59.6 16.2 
L 279.9 16.2 
" style="fill: none; stroke: #000000; stroke-width: 0.8; stroke-linejoin: miter; stroke-linecap: square"/>
   </g>
   <g id="legend_1">
    <g id="patch_7">
     <path d="M 162.260156 91.825781 
L 269.4 91.825781 
Q 272.4 91.825781 272.4 88.825781 
L 272.4 26.7 
Q 272.4 23.7 269.4 23.7 
L 162.260156 23.7 
Q 159.260156 23.7 159.260156 26.7 
L 159.260156 88.825781 
Q 159.260156 91.825781 162.260156 91.825781 
z
" style="fill: #ffffff; opacity: 0.8; stroke: #cccccc; stroke-linejoin: miter"/>
    </g>
    <g id="PathCollection_4">
     <g>
      <use xlink:href="#m86dbb915df" x="180.260156" y="36.2625" style="fill: #87ceeb; stroke: #87ceeb"/>
     </g>
    </g>
    <g id="text_11">
     <!-- landspace -->
     <g transform="translate(207.260156 40.2) scale(0.15 -0.15)">
      <defs>
       <path id="TimesNewRomanPSMT-6c" d="M 1184 4444 
L 1184 647 
Q 1184 378 1223 290 
Q 1263 203 1344 158 
Q 1425 113 1647 113 
L 1647 0 
L 244 0 
L 244 113 
Q 441 113 512 153 
Q 584 194 625 287 
Q 666 381 666 647 
L 666 3247 
Q 666 3731 644 3842 
Q 622 3953 573 3993 
Q 525 4034 450 4034 
Q 369 4034 244 3984 
L 191 4094 
L 1044 4444 
L 1184 4444 
z
" transform="scale(0.015625)"/>
       <path id="TimesNewRomanPSMT-61" d="M 1822 413 
Q 1381 72 1269 19 
Q 1100 -59 909 -59 
Q 613 -59 420 144 
Q 228 347 228 678 
Q 228 888 322 1041 
Q 450 1253 767 1440 
Q 1084 1628 1822 1897 
L 1822 2009 
Q 1822 2438 1686 2597 
Q 1550 2756 1291 2756 
Q 1094 2756 978 2650 
Q 859 2544 859 2406 
L 866 2225 
Q 866 2081 792 2003 
Q 719 1925 600 1925 
Q 484 1925 411 2006 
Q 338 2088 338 2228 
Q 338 2497 613 2722 
Q 888 2947 1384 2947 
Q 1766 2947 2009 2819 
Q 2194 2722 2281 2516 
Q 2338 2381 2338 1966 
L 2338 994 
Q 2338 584 2353 492 
Q 2369 400 2405 369 
Q 2441 338 2488 338 
Q 2538 338 2575 359 
Q 2641 400 2828 588 
L 2828 413 
Q 2478 -56 2159 -56 
Q 2006 -56 1915 50 
Q 1825 156 1822 413 
z
M 1822 616 
L 1822 1706 
Q 1350 1519 1213 1441 
Q 966 1303 859 1153 
Q 753 1003 753 825 
Q 753 600 887 451 
Q 1022 303 1197 303 
Q 1434 303 1822 616 
z
" transform="scale(0.015625)"/>
       <path id="TimesNewRomanPSMT-64" d="M 2222 322 
Q 2013 103 1813 7 
Q 1613 -88 1381 -88 
Q 913 -88 563 304 
Q 213 697 213 1313 
Q 213 1928 600 2439 
Q 988 2950 1597 2950 
Q 1975 2950 2222 2709 
L 2222 3238 
Q 2222 3728 2198 3840 
Q 2175 3953 2125 3993 
Q 2075 4034 2000 4034 
Q 1919 4034 1784 3984 
L 1744 4094 
L 2597 4444 
L 2738 4444 
L 2738 1134 
Q 2738 631 2761 520 
Q 2784 409 2836 365 
Q 2888 322 2956 322 
Q 3041 322 3181 375 
L 3216 266 
L 2366 -88 
L 2222 -88 
L 2222 322 
z
M 2222 541 
L 2222 2016 
Q 2203 2228 2109 2403 
Q 2016 2578 1861 2667 
Q 1706 2756 1559 2756 
Q 1284 2756 1069 2509 
Q 784 2184 784 1559 
Q 784 928 1059 592 
Q 1334 256 1672 256 
Q 1956 256 2222 541 
z
" transform="scale(0.015625)"/>
       <path id="TimesNewRomanPSMT-63" d="M 2631 1088 
Q 2516 522 2178 217 
Q 1841 -88 1431 -88 
Q 944 -88 581 321 
Q 219 731 219 1428 
Q 219 2103 620 2525 
Q 1022 2947 1584 2947 
Q 2006 2947 2278 2723 
Q 2550 2500 2550 2259 
Q 2550 2141 2473 2067 
Q 2397 1994 2259 1994 
Q 2075 1994 1981 2113 
Q 1928 2178 1911 2362 
Q 1894 2547 1784 2644 
Q 1675 2738 1481 2738 
Q 1169 2738 978 2506 
Q 725 2200 725 1697 
Q 725 1184 976 792 
Q 1228 400 1656 400 
Q 1963 400 2206 609 
Q 2378 753 2541 1131 
L 2631 1088 
z
" transform="scale(0.015625)"/>
      </defs>
      <use xlink:href="#TimesNewRomanPSMT-6c"/>
      <use xlink:href="#TimesNewRomanPSMT-61" x="27.783203"/>
      <use xlink:href="#TimesNewRomanPSMT-6e" x="72.167969"/>
      <use xlink:href="#TimesNewRomanPSMT-64" x="122.167969"/>
      <use xlink:href="#TimesNewRomanPSMT-73" x="172.167969"/>
      <use xlink:href="#TimesNewRomanPSMT-70" x="211.083984"/>
      <use xlink:href="#TimesNewRomanPSMT-61" x="261.083984"/>
      <use xlink:href="#TimesNewRomanPSMT-63" x="305.46875"/>
      <use xlink:href="#TimesNewRomanPSMT-65" x="349.853516"/>
     </g>
    </g>
    <g id="PathCollection_5">
     <g>
      <use xlink:href="#m68b8bc43d1" x="180.260156" y="57.471094" style="fill: #ff8c00; stroke: #ff8c00"/>
     </g>
    </g>
    <g id="text_12">
     <!-- animal -->
     <g transform="translate(207.260156 61.408594) scale(0.15 -0.15)">
      <use xlink:href="#TimesNewRomanPSMT-61"/>
      <use xlink:href="#TimesNewRomanPSMT-6e" x="44.384766"/>
      <use xlink:href="#TimesNewRomanPSMT-69" x="94.384766"/>
      <use xlink:href="#TimesNewRomanPSMT-6d" x="122.167969"/>
      <use xlink:href="#TimesNewRomanPSMT-61" x="199.951172"/>
      <use xlink:href="#TimesNewRomanPSMT-6c" x="244.335938"/>
     </g>
    </g>
    <g id="PathCollection_6">
     <g>
      <use xlink:href="#m466dd1f9c4" x="180.260156" y="78.679688" style="fill: #708090; stroke: #708090"/>
     </g>
    </g>
    <g id="text_13">
     <!-- human -->
     <g transform="translate(207.260156 82.617188) scale(0.15 -0.15)">
      <use xlink:href="#TimesNewRomanPSMT-68"/>
      <use xlink:href="#TimesNewRomanPSMT-75" x="50"/>
      <use xlink:href="#TimesNewRomanPSMT-6d" x="100"/>
      <use xlink:href="#TimesNewRomanPSMT-61" x="177.783203"/>
      <use xlink:href="#TimesNewRomanPSMT-6e" x="222.167969"/>
     </g>
    </g>
   </g>
  </g>
  <g id="axes_2">
   <g id="patch_8">
    <path d="M 339.5 233.44 
L 559.8 233.44 
L 559.8 16.2 
L 339.5 16.2 
z
" style="fill: #ffffff"/>
   </g>
   <g id="patch_9">
    <path d="M 349.513636 233.44 
L 351.93629 233.44 
L 351.93629 45.165333 
L 349.513636 45.165333 
z
" clip-path="url(#p62869720e1)" style="fill: #87ceeb; opacity: 0.6"/>
   </g>
   <g id="patch_10">
    <path d="M 353.551393 233.44 
L 355.974047 233.44 
L 355.974047 89.215687 
L 353.551393 89.215687 
z
" clip-path="url(#p62869720e1)" style="fill: #87ceeb; opacity: 0.6"/>
   </g>
   <g id="patch_11">
    <path d="M 357.58915 233.44 
L 360.011804 233.44 
L 360.011804 109.609369 
L 357.58915 109.609369 
z
" clip-path="url(#p62869720e1)" style="fill: #87ceeb; opacity: 0.6"/>
   </g>
   <g id="patch_12">
    <path d="M 361.626906 233.44 
L 364.04956 233.44 
L 364.04956 121.369229 
L 361.626906 121.369229 
z
" clip-path="url(#p62869720e1)" style="fill: #87ceeb; opacity: 0.6"/>
   </g>
   <g id="patch_13">
    <path d="M 365.664663 233.44 
L 368.087317 233.44 
L 368.087317 129.020223 
L 365.664663 129.020223 
z
" clip-path="url(#p62869720e1)" style="fill: #87ceeb; opacity: 0.6"/>
   </g>
   <g id="patch_14">
    <path d="M 369.702419 233.44 
L 372.125073 233.44 
L 372.125073 134.395536 
L 369.702419 134.395536 
z
" clip-path="url(#p62869720e1)" style="fill: #87ceeb; opacity: 0.6"/>
   </g>
   <g id="patch_15">
    <path d="M 373.740176 233.44 
L 376.16283 233.44 
L 376.16283 138.379027 
L 373.740176 138.379027 
z
" clip-path="url(#p62869720e1)" style="fill: #87ceeb; opacity: 0.6"/>
   </g>
   <g id="patch_16">
    <path d="M 377.777933 233.44 
L 380.200587 233.44 
L 380.200587 141.449307 
L 377.777933 141.449307 
z
" clip-path="url(#p62869720e1)" style="fill: #87ceeb; opacity: 0.6"/>
   </g>
   <g id="patch_17">
    <path d="M 381.815689 233.44 
L 384.238343 233.44 
L 384.238343 143.888111 
L 381.815689 143.888111 
z
" clip-path="url(#p62869720e1)" style="fill: #87ceeb; opacity: 0.6"/>
   </g>
   <g id="patch_18">
    <path d="M 385.853446 233.44 
L 388.2761 233.44 
L 388.2761 145.872089 
L 385.853446 145.872089 
z
" clip-path="url(#p62869720e1)" style="fill: #87ceeb; opacity: 0.6"/>
   </g>
   <g id="patch_19">
    <path d="M 389.891202 233.44 
L 392.313856 233.44 
L 392.313856 147.517625 
L 389.891202 147.517625 
z
" clip-path="url(#p62869720e1)" style="fill: #87ceeb; opacity: 0.6"/>
   </g>
   <g id="patch_20">
    <path d="M 393.928959 233.44 
L 396.351613 233.44 
L 396.351613 148.904512 
L 393.928959 148.904512 
z
" clip-path="url(#p62869720e1)" style="fill: #87ceeb; opacity: 0.6"/>
   </g>
   <g id="patch_21">
    <path d="M 397.966716 233.44 
L 400.38937 233.44 
L 400.38937 150.08929 
L 397.966716 150.08929 
z
" clip-path="url(#p62869720e1)" style="fill: #87ceeb; opacity: 0.6"/>
   </g>
   <g id="patch_22">
    <path d="M 402.004472 233.44 
L 404.427126 233.44 
L 404.427126 151.113138 
L 402.004472 151.113138 
z
" clip-path="url(#p62869720e1)" style="fill: #87ceeb; opacity: 0.6"/>
   </g>
   <g id="patch_23">
    <path d="M 406.042229 233.44 
L 408.464883 233.44 
L 408.464883 152.00676 
L 406.042229 152.00676 
z
" clip-path="url(#p62869720e1)" style="fill: #87ceeb; opacity: 0.6"/>
   </g>
   <g id="patch_24">
    <path d="M 410.079985 233.44 
L 412.502639 233.44 
L 412.502639 152.793516 
L 410.079985 152.793516 
z
" clip-path="url(#p62869720e1)" style="fill: #87ceeb; opacity: 0.6"/>
   </g>
   <g id="patch_25">
    <path d="M 414.117742 233.44 
L 416.540396 233.44 
L 416.540396 153.491494 
L 414.117742 153.491494 
z
" clip-path="url(#p62869720e1)" style="fill: #87ceeb; opacity: 0.6"/>
   </g>
   <g id="patch_26">
    <path d="M 418.155499 233.44 
L 420.578152 233.44 
L 420.578152 154.114918 
L 418.155499 154.114918 
z
" clip-path="url(#p62869720e1)" style="fill: #87ceeb; opacity: 0.6"/>
   </g>
   <g id="patch_27">
    <path d="M 422.193255 233.44 
L 424.615909 233.44 
L 424.615909 154.675128 
L 422.193255 154.675128 
z
" clip-path="url(#p62869720e1)" style="fill: #87ceeb; opacity: 0.6"/>
   </g>
   <g id="patch_28">
    <path d="M 426.231012 233.44 
L 428.653666 233.44 
L 428.653666 155.181274 
L 426.231012 155.181274 
z
" clip-path="url(#p62869720e1)" style="fill: #87ceeb; opacity: 0.6"/>
   </g>
   <g id="patch_29">
    <path d="M 430.268768 233.44 
L 432.691422 233.44 
L 432.691422 155.640822 
L 430.268768 155.640822 
z
" clip-path="url(#p62869720e1)" style="fill: #87ceeb; opacity: 0.6"/>
   </g>
   <g id="patch_30">
    <path d="M 434.306525 233.44 
L 436.729179 233.44 
L 436.729179 156.059925 
L 434.306525 156.059925 
z
" clip-path="url(#p62869720e1)" style="fill: #87ceeb; opacity: 0.6"/>
   </g>
   <g id="patch_31">
    <path d="M 438.344282 233.44 
L 440.766935 233.44 
L 440.766935 156.443697 
L 438.344282 156.443697 
z
" clip-path="url(#p62869720e1)" style="fill: #87ceeb; opacity: 0.6"/>
   </g>
   <g id="patch_32">
    <path d="M 442.382038 233.44 
L 444.804692 233.44 
L 444.804692 156.796424 
L 442.382038 156.796424 
z
" clip-path="url(#p62869720e1)" style="fill: #87ceeb; opacity: 0.6"/>
   </g>
   <g id="patch_33">
    <path d="M 446.419795 233.44 
L 448.842449 233.44 
L 448.842449 157.121727 
L 446.419795 157.121727 
z
" clip-path="url(#p62869720e1)" style="fill: #87ceeb; opacity: 0.6"/>
   </g>
   <g id="patch_34">
    <path d="M 450.457551 233.44 
L 452.880205 233.44 
L 452.880205 157.422685 
L 450.457551 157.422685 
z
" clip-path="url(#p62869720e1)" style="fill: #87ceeb; opacity: 0.6"/>
   </g>
   <g id="patch_35">
    <path d="M 454.495308 233.44 
L 456.917962 233.44 
L 456.917962 157.701932 
L 454.495308 157.701932 
z
" clip-path="url(#p62869720e1)" style="fill: #87ceeb; opacity: 0.6"/>
   </g>
   <g id="patch_36">
    <path d="M 458.533065 233.44 
L 460.955718 233.44 
L 460.955718 157.961736 
L 458.533065 157.961736 
z
" clip-path="url(#p62869720e1)" style="fill: #87ceeb; opacity: 0.6"/>
   </g>
   <g id="patch_37">
    <path d="M 462.570821 233.44 
L 464.993475 233.44 
L 464.993475 158.204059 
L 462.570821 158.204059 
z
" clip-path="url(#p62869720e1)" style="fill: #87ceeb; opacity: 0.6"/>
   </g>
   <g id="patch_38">
    <path d="M 466.608578 233.44 
L 469.031232 233.44 
L 469.031232 158.430607 
L 466.608578 158.430607 
z
" clip-path="url(#p62869720e1)" style="fill: #87ceeb; opacity: 0.6"/>
   </g>
   <g id="patch_39">
    <path d="M 470.646334 233.44 
L 473.068988 233.44 
L 473.068988 158.642874 
L 470.646334 158.642874 
z
" clip-path="url(#p62869720e1)" style="fill: #87ceeb; opacity: 0.6"/>
   </g>
   <g id="patch_40">
    <path d="M 474.684091 233.44 
L 477.106745 233.44 
L 477.106745 158.842167 
L 474.684091 158.842167 
z
" clip-path="url(#p62869720e1)" style="fill: #87ceeb; opacity: 0.6"/>
   </g>
   <g id="patch_41">
    <path d="M 478.721848 233.44 
L 481.144501 233.44 
L 481.144501 159.029641 
L 478.721848 159.029641 
z
" clip-path="url(#p62869720e1)" style="fill: #87ceeb; opacity: 0.6"/>
   </g>
   <g id="patch_42">
    <path d="M 482.759604 233.44 
L 485.182258 233.44 
L 485.182258 159.206317 
L 482.759604 159.206317 
z
" clip-path="url(#p62869720e1)" style="fill: #87ceeb; opacity: 0.6"/>
   </g>
   <g id="patch_43">
    <path d="M 486.797361 233.44 
L 489.220015 233.44 
L 489.220015 159.373102 
L 486.797361 159.373102 
z
" clip-path="url(#p62869720e1)" style="fill: #87ceeb; opacity: 0.6"/>
   </g>
   <g id="patch_44">
    <path d="M 490.835117 233.44 
L 493.257771 233.44 
L 493.257771 159.530804 
L 490.835117 159.530804 
z
" clip-path="url(#p62869720e1)" style="fill: #87ceeb; opacity: 0.6"/>
   </g>
   <g id="patch_45">
    <path d="M 494.872874 233.44 
L 497.295528 233.44 
L 497.295528 159.680146 
L 494.872874 159.680146 
z
" clip-path="url(#p62869720e1)" style="fill: #87ceeb; opacity: 0.6"/>
   </g>
   <g id="patch_46">
    <path d="M 498.91063 233.44 
L 501.333284 233.44 
L 501.333284 159.821774 
L 498.91063 159.821774 
z
" clip-path="url(#p62869720e1)" style="fill: #87ceeb; opacity: 0.6"/>
   </g>
   <g id="patch_47">
    <path d="M 502.948387 233.44 
L 505.371041 233.44 
L 505.371041 159.956271 
L 502.948387 159.956271 
z
" clip-path="url(#p62869720e1)" style="fill: #87ceeb; opacity: 0.6"/>
   </g>
   <g id="patch_48">
    <path d="M 506.986144 233.44 
L 509.408798 233.44 
L 509.408798 160.084163 
L 506.986144 160.084163 
z
" clip-path="url(#p62869720e1)" style="fill: #87ceeb; opacity: 0.6"/>
   </g>
   <g id="patch_49">
    <path d="M 511.0239 233.44 
L 513.446554 233.44 
L 513.446554 160.205925 
L 511.0239 160.205925 
z
" clip-path="url(#p62869720e1)" style="fill: #87ceeb; opacity: 0.6"/>
   </g>
   <g id="patch_50">
    <path d="M 515.061657 233.44 
L 517.484311 233.44 
L 517.484311 160.321987 
L 515.061657 160.321987 
z
" clip-path="url(#p62869720e1)" style="fill: #87ceeb; opacity: 0.6"/>
   </g>
   <g id="patch_51">
    <path d="M 519.099413 233.44 
L 521.522067 233.44 
L 521.522067 160.43274 
L 519.099413 160.43274 
z
" clip-path="url(#p62869720e1)" style="fill: #87ceeb; opacity: 0.6"/>
   </g>
   <g id="patch_52">
    <path d="M 523.13717 233.44 
L 525.559824 233.44 
L 525.559824 160.538541 
L 523.13717 160.538541 
z
" clip-path="url(#p62869720e1)" style="fill: #87ceeb; opacity: 0.6"/>
   </g>
   <g id="patch_53">
    <path d="M 527.174927 233.44 
L 529.597581 233.44 
L 529.597581 160.639713 
L 527.174927 160.639713 
z
" clip-path="url(#p62869720e1)" style="fill: #87ceeb; opacity: 0.6"/>
   </g>
   <g id="patch_54">
    <path d="M 531.212683 233.44 
L 533.635337 233.44 
L 533.635337 160.736555 
L 531.212683 160.736555 
z
" clip-path="url(#p62869720e1)" style="fill: #87ceeb; opacity: 0.6"/>
   </g>
   <g id="patch_55">
    <path d="M 535.25044 233.44 
L 537.673094 233.44 
L 537.673094 160.829339 
L 535.25044 160.829339 
z
" clip-path="url(#p62869720e1)" style="fill: #87ceeb; opacity: 0.6"/>
   </g>
   <g id="patch_56">
    <path d="M 539.288196 233.44 
L 541.71085 233.44 
L 541.71085 160.918314 
L 539.288196 160.918314 
z
" clip-path="url(#p62869720e1)" style="fill: #87ceeb; opacity: 0.6"/>
   </g>
   <g id="patch_57">
    <path d="M 543.325953 233.44 
L 545.748607 233.44 
L 545.748607 161.00371 
L 543.325953 161.00371 
z
" clip-path="url(#p62869720e1)" style="fill: #87ceeb; opacity: 0.6"/>
   </g>
   <g id="patch_58">
    <path d="M 547.36371 233.44 
L 549.786364 233.44 
L 549.786364 161.085739 
L 547.36371 161.085739 
z
" clip-path="url(#p62869720e1)" style="fill: #87ceeb; opacity: 0.6"/>
   </g>
   <g id="patch_59">
    <path d="M 349.513636 45.165333 
L 351.93629 45.165333 
L 351.93629 36.889524 
L 349.513636 36.889524 
z
" clip-path="url(#p62869720e1)" style="fill: #ff8c00; opacity: 0.6"/>
   </g>
   <g id="patch_60">
    <path d="M 353.551393 89.215687 
L 355.974047 89.215687 
L 355.974047 58.9147 
L 353.551393 58.9147 
z
" clip-path="url(#p62869720e1)" style="fill: #ff8c00; opacity: 0.6"/>
   </g>
   <g id="patch_61">
    <path d="M 357.58915 109.609369 
L 360.011804 109.609369 
L 360.011804 69.111541 
L 357.58915 69.111541 
z
" clip-path="url(#p62869720e1)" style="fill: #ff8c00; opacity: 0.6"/>
   </g>
   <g id="patch_62">
    <path d="M 361.626906 121.369229 
L 364.04956 121.369229 
L 364.04956 74.991472 
L 361.626906 74.991472 
z
" clip-path="url(#p62869720e1)" style="fill: #ff8c00; opacity: 0.6"/>
   </g>
   <g id="patch_63">
    <path d="M 365.664663 129.020223 
L 368.087317 129.020223 
L 368.087317 78.816968 
L 365.664663 78.816968 
z
" clip-path="url(#p62869720e1)" style="fill: #ff8c00; opacity: 0.6"/>
   </g>
   <g id="patch_64">
    <path d="M 369.702419 134.395536 
L 372.125073 134.395536 
L 372.125073 81.504625 
L 369.702419 81.504625 
z
" clip-path="url(#p62869720e1)" style="fill: #ff8c00; opacity: 0.6"/>
   </g>
   <g id="patch_65">
    <path d="M 373.740176 138.379027 
L 376.16283 138.379027 
L 376.16283 83.496371 
L 373.740176 83.496371 
z
" clip-path="url(#p62869720e1)" style="fill: #ff8c00; opacity: 0.6"/>
   </g>
   <g id="patch_66">
    <path d="M 377.777933 141.449307 
L 380.200587 141.449307 
L 380.200587 85.031511 
L 377.777933 85.031511 
z
" clip-path="url(#p62869720e1)" style="fill: #ff8c00; opacity: 0.6"/>
   </g>
   <g id="patch_67">
    <path d="M 381.815689 143.888111 
L 384.238343 143.888111 
L 384.238343 86.250913 
L 381.815689 86.250913 
z
" clip-path="url(#p62869720e1)" style="fill: #ff8c00; opacity: 0.6"/>
   </g>
   <g id="patch_68">
    <path d="M 385.853446 145.872089 
L 388.2761 145.872089 
L 388.2761 87.242902 
L 385.853446 87.242902 
z
" clip-path="url(#p62869720e1)" style="fill: #ff8c00; opacity: 0.6"/>
   </g>
   <g id="patch_69">
    <path d="M 389.891202 147.517625 
L 392.313856 147.517625 
L 392.313856 88.065669 
L 389.891202 88.065669 
z
" clip-path="url(#p62869720e1)" style="fill: #ff8c00; opacity: 0.6"/>
   </g>
   <g id="patch_70">
    <path d="M 393.928959 148.904512 
L 396.351613 148.904512 
L 396.351613 88.759113 
L 393.928959 88.759113 
z
" clip-path="url(#p62869720e1)" style="fill: #ff8c00; opacity: 0.6"/>
   </g>
   <g id="patch_71">
    <path d="M 397.966716 150.08929 
L 400.38937 150.08929 
L 400.38937 89.351502 
L 397.966716 89.351502 
z
" clip-path="url(#p62869720e1)" style="fill: #ff8c00; opacity: 0.6"/>
   </g>
   <g id="patch_72">
    <path d="M 402.004472 151.113138 
L 404.427126 151.113138 
L 404.427126 89.863426 
L 402.004472 89.863426 
z
" clip-path="url(#p62869720e1)" style="fill: #ff8c00; opacity: 0.6"/>
   </g>
   <g id="patch_73">
    <path d="M 406.042229 152.00676 
L 408.464883 152.00676 
L 408.464883 90.310237 
L 406.042229 90.310237 
z
" clip-path="url(#p62869720e1)" style="fill: #ff8c00; opacity: 0.6"/>
   </g>
   <g id="patch_74">
    <path d="M 410.079985 152.793516 
L 412.502639 152.793516 
L 412.502639 90.703615 
L 410.079985 90.703615 
z
" clip-path="url(#p62869720e1)" style="fill: #ff8c00; opacity: 0.6"/>
   </g>
   <g id="patch_75">
    <path d="M 414.117742 153.491494 
L 416.540396 153.491494 
L 416.540396 91.052604 
L 414.117742 91.052604 
z
" clip-path="url(#p62869720e1)" style="fill: #ff8c00; opacity: 0.6"/>
   </g>
   <g id="patch_76">
    <path d="M 418.155499 154.114918 
L 420.578152 154.114918 
L 420.578152 91.364316 
L 418.155499 91.364316 
z
" clip-path="url(#p62869720e1)" style="fill: #ff8c00; opacity: 0.6"/>
   </g>
   <g id="patch_77">
    <path d="M 422.193255 154.675128 
L 424.615909 154.675128 
L 424.615909 91.644421 
L 422.193255 91.644421 
z
" clip-path="url(#p62869720e1)" style="fill: #ff8c00; opacity: 0.6"/>
   </g>
   <g id="patch_78">
    <path d="M 426.231012 155.181274 
L 428.653666 155.181274 
L 428.653666 91.897494 
L 426.231012 91.897494 
z
" clip-path="url(#p62869720e1)" style="fill: #ff8c00; opacity: 0.6"/>
   </g>
   <g id="patch_79">
    <path d="M 430.268768 155.640822 
L 432.691422 155.640822 
L 432.691422 92.127268 
L 430.268768 92.127268 
z
" clip-path="url(#p62869720e1)" style="fill: #ff8c00; opacity: 0.6"/>
   </g>
   <g id="patch_80">
    <path d="M 434.306525 156.059925 
L 436.729179 156.059925 
L 436.729179 92.33682 
L 434.306525 92.33682 
z
" clip-path="url(#p62869720e1)" style="fill: #ff8c00; opacity: 0.6"/>
   </g>
   <g id="patch_81">
    <path d="M 438.344282 156.443697 
L 440.766935 156.443697 
L 440.766935 92.528705 
L 438.344282 92.528705 
z
" clip-path="url(#p62869720e1)" style="fill: #ff8c00; opacity: 0.6"/>
   </g>
   <g id="patch_82">
    <path d="M 442.382038 156.796424 
L 444.804692 156.796424 
L 444.804692 92.705069 
L 442.382038 92.705069 
z
" clip-path="url(#p62869720e1)" style="fill: #ff8c00; opacity: 0.6"/>
   </g>
   <g id="patch_83">
    <path d="M 446.419795 157.121727 
L 448.842449 157.121727 
L 448.842449 92.867721 
L 446.419795 92.867721 
z
" clip-path="url(#p62869720e1)" style="fill: #ff8c00; opacity: 0.6"/>
   </g>
   <g id="patch_84">
    <path d="M 450.457551 157.422685 
L 452.880205 157.422685 
L 452.880205 93.0182 
L 450.457551 93.0182 
z
" clip-path="url(#p62869720e1)" style="fill: #ff8c00; opacity: 0.6"/>
   </g>
   <g id="patch_85">
    <path d="M 454.495308 157.701932 
L 456.917962 157.701932 
L 456.917962 93.157823 
L 454.495308 93.157823 
z
" clip-path="url(#p62869720e1)" style="fill: #ff8c00; opacity: 0.6"/>
   </g>
   <g id="patch_86">
    <path d="M 458.533065 157.961736 
L 460.955718 157.961736 
L 460.955718 93.287725 
L 458.533065 93.287725 
z
" clip-path="url(#p62869720e1)" style="fill: #ff8c00; opacity: 0.6"/>
   </g>
   <g id="patch_87">
    <path d="M 462.570821 158.204059 
L 464.993475 158.204059 
L 464.993475 93.408887 
L 462.570821 93.408887 
z
" clip-path="url(#p62869720e1)" style="fill: #ff8c00; opacity: 0.6"/>
   </g>
   <g id="patch_88">
    <path d="M 466.608578 158.430607 
L 469.031232 158.430607 
L 469.031232 93.522161 
L 466.608578 93.522161 
z
" clip-path="url(#p62869720e1)" style="fill: #ff8c00; opacity: 0.6"/>
   </g>
   <g id="patch_89">
    <path d="M 470.646334 158.642874 
L 473.068988 158.642874 
L 473.068988 93.628294 
L 470.646334 93.628294 
z
" clip-path="url(#p62869720e1)" style="fill: #ff8c00; opacity: 0.6"/>
   </g>
   <g id="patch_90">
    <path d="M 474.684091 158.842167 
L 477.106745 158.842167 
L 477.106745 93.727941 
L 474.684091 93.727941 
z
" clip-path="url(#p62869720e1)" style="fill: #ff8c00; opacity: 0.6"/>
   </g>
   <g id="patch_91">
    <path d="M 478.721848 159.029641 
L 481.144501 159.029641 
L 481.144501 93.821678 
L 478.721848 93.821678 
z
" clip-path="url(#p62869720e1)" style="fill: #ff8c00; opacity: 0.6"/>
   </g>
   <g id="patch_92">
    <path d="M 482.759604 159.206317 
L 485.182258 159.206317 
L 485.182258 93.910016 
L 482.759604 93.910016 
z
" clip-path="url(#p62869720e1)" style="fill: #ff8c00; opacity: 0.6"/>
   </g>
   <g id="patch_93">
    <path d="M 486.797361 159.373102 
L 489.220015 159.373102 
L 489.220015 93.993408 
L 486.797361 93.993408 
z
" clip-path="url(#p62869720e1)" style="fill: #ff8c00; opacity: 0.6"/>
   </g>
   <g id="patch_94">
    <path d="M 490.835117 159.530804 
L 493.257771 159.530804 
L 493.257771 94.072259 
L 490.835117 94.072259 
z
" clip-path="url(#p62869720e1)" style="fill: #ff8c00; opacity: 0.6"/>
   </g>
   <g id="patch_95">
    <path d="M 494.872874 159.680146 
L 497.295528 159.680146 
L 497.295528 94.14693 
L 494.872874 94.14693 
z
" clip-path="url(#p62869720e1)" style="fill: #ff8c00; opacity: 0.6"/>
   </g>
   <g id="patch_96">
    <path d="M 498.91063 159.821774 
L 501.333284 159.821774 
L 501.333284 94.217744 
L 498.91063 94.217744 
z
" clip-path="url(#p62869720e1)" style="fill: #ff8c00; opacity: 0.6"/>
   </g>
   <g id="patch_97">
    <path d="M 502.948387 159.956271 
L 505.371041 159.956271 
L 505.371041 94.284993 
L 502.948387 94.284993 
z
" clip-path="url(#p62869720e1)" style="fill: #ff8c00; opacity: 0.6"/>
   </g>
   <g id="patch_98">
    <path d="M 506.986144 160.084163 
L 509.408798 160.084163 
L 509.408798 94.348939 
L 506.986144 94.348939 
z
" clip-path="url(#p62869720e1)" style="fill: #ff8c00; opacity: 0.6"/>
   </g>
   <g id="patch_99">
    <path d="M 511.0239 160.205925 
L 513.446554 160.205925 
L 513.446554 94.40982 
L 511.0239 94.40982 
z
" clip-path="url(#p62869720e1)" style="fill: #ff8c00; opacity: 0.6"/>
   </g>
   <g id="patch_100">
    <path d="M 515.061657 160.321987 
L 517.484311 160.321987 
L 517.484311 94.467851 
L 515.061657 94.467851 
z
" clip-path="url(#p62869720e1)" style="fill: #ff8c00; opacity: 0.6"/>
   </g>
   <g id="patch_101">
    <path d="M 519.099413 160.43274 
L 521.522067 160.43274 
L 521.522067 94.523227 
L 519.099413 94.523227 
z
" clip-path="url(#p62869720e1)" style="fill: #ff8c00; opacity: 0.6"/>
   </g>
   <g id="patch_102">
    <path d="M 523.13717 160.538541 
L 525.559824 160.538541 
L 525.559824 94.576127 
L 523.13717 94.576127 
z
" clip-path="url(#p62869720e1)" style="fill: #ff8c00; opacity: 0.6"/>
   </g>
   <g id="patch_103">
    <path d="M 527.174927 160.639713 
L 529.597581 160.639713 
L 529.597581 94.626714 
L 527.174927 94.626714 
z
" clip-path="url(#p62869720e1)" style="fill: #ff8c00; opacity: 0.6"/>
   </g>
   <g id="patch_104">
    <path d="M 531.212683 160.736555 
L 533.635337 160.736555 
L 533.635337 94.675135 
L 531.212683 94.675135 
z
" clip-path="url(#p62869720e1)" style="fill: #ff8c00; opacity: 0.6"/>
   </g>
   <g id="patch_105">
    <path d="M 535.25044 160.829339 
L 537.673094 160.829339 
L 537.673094 94.721527 
L 535.25044 94.721527 
z
" clip-path="url(#p62869720e1)" style="fill: #ff8c00; opacity: 0.6"/>
   </g>
   <g id="patch_106">
    <path d="M 539.288196 160.918314 
L 541.71085 160.918314 
L 541.71085 94.766014 
L 539.288196 94.766014 
z
" clip-path="url(#p62869720e1)" style="fill: #ff8c00; opacity: 0.6"/>
   </g>
   <g id="patch_107">
    <path d="M 543.325953 161.00371 
L 545.748607 161.00371 
L 545.748607 94.808712 
L 543.325953 94.808712 
z
" clip-path="url(#p62869720e1)" style="fill: #ff8c00; opacity: 0.6"/>
   </g>
   <g id="patch_108">
    <path d="M 547.36371 161.085739 
L 549.786364 161.085739 
L 549.786364 94.849727 
L 547.36371 94.849727 
z
" clip-path="url(#p62869720e1)" style="fill: #ff8c00; opacity: 0.6"/>
   </g>
   <g id="patch_109">
    <path d="M 349.513636 36.889524 
L 351.93629 36.889524 
L 351.93629 26.544762 
L 349.513636 26.544762 
z
" clip-path="url(#p62869720e1)" style="fill: #708090; opacity: 0.6"/>
   </g>
   <g id="patch_110">
    <path d="M 353.551393 58.9147 
L 355.974047 58.9147 
L 355.974047 33.550877 
L 353.551393 33.550877 
z
" clip-path="url(#p62869720e1)" style="fill: #708090; opacity: 0.6"/>
   </g>
   <g id="patch_111">
    <path d="M 357.58915 69.111541 
L 360.011804 69.111541 
L 360.011804 34.912976 
L 357.58915 34.912976 
z
" clip-path="url(#p62869720e1)" style="fill: #708090; opacity: 0.6"/>
   </g>
   <g id="patch_112">
    <path d="M 361.626906 74.991472 
L 364.04956 74.991472 
L 364.04956 34.974905 
L 361.626906 34.974905 
z
" clip-path="url(#p62869720e1)" style="fill: #708090; opacity: 0.6"/>
   </g>
   <g id="patch_113">
    <path d="M 365.664663 78.816968 
L 368.087317 78.816968 
L 368.087317 34.679318 
L 365.664663 34.679318 
z
" clip-path="url(#p62869720e1)" style="fill: #708090; opacity: 0.6"/>
   </g>
   <g id="patch_114">
    <path d="M 369.702419 81.504625 
L 372.125073 81.504625 
L 372.125073 34.294894 
L 369.702419 34.294894 
z
" clip-path="url(#p62869720e1)" style="fill: #708090; opacity: 0.6"/>
   </g>
   <g id="patch_115">
    <path d="M 373.740176 83.496371 
L 376.16283 83.496371 
L 376.16283 33.908254 
L 373.740176 33.908254 
z
" clip-path="url(#p62869720e1)" style="fill: #708090; opacity: 0.6"/>
   </g>
   <g id="patch_116">
    <path d="M 377.777933 85.031511 
L 380.200587 85.031511 
L 380.200587 33.54758 
L 377.777933 33.54758 
z
" clip-path="url(#p62869720e1)" style="fill: #708090; opacity: 0.6"/>
   </g>
   <g id="patch_117">
    <path d="M 381.815689 86.250913 
L 384.238343 86.250913 
L 384.238343 33.220396 
L 381.815689 33.220396 
z
" clip-path="url(#p62869720e1)" style="fill: #708090; opacity: 0.6"/>
   </g>
   <g id="patch_118">
    <path d="M 385.853446 87.242902 
L 388.2761 87.242902 
L 388.2761 32.92667 
L 385.853446 32.92667 
z
" clip-path="url(#p62869720e1)" style="fill: #708090; opacity: 0.6"/>
   </g>
   <g id="patch_119">
    <path d="M 389.891202 88.065669 
L 392.313856 88.065669 
L 392.313856 32.663722 
L 389.891202 32.663722 
z
" clip-path="url(#p62869720e1)" style="fill: #708090; opacity: 0.6"/>
   </g>
   <g id="patch_120">
    <path d="M 393.928959 88.759113 
L 396.351613 88.759113 
L 396.351613 32.428152 
L 393.928959 32.428152 
z
" clip-path="url(#p62869720e1)" style="fill: #708090; opacity: 0.6"/>
   </g>
   <g id="patch_121">
    <path d="M 397.966716 89.351502 
L 400.38937 89.351502 
L 400.38937 32.216587 
L 397.966716 32.216587 
z
" clip-path="url(#p62869720e1)" style="fill: #708090; opacity: 0.6"/>
   </g>
   <g id="patch_122">
    <path d="M 402.004472 89.863426 
L 404.427126 89.863426 
L 404.427126 32.025956 
L 402.004472 32.025956 
z
" clip-path="url(#p62869720e1)" style="fill: #708090; opacity: 0.6"/>
   </g>
   <g id="patch_123">
    <path d="M 406.042229 90.310237 
L 408.464883 90.310237 
L 408.464883 31.853566 
L 406.042229 31.853566 
z
" clip-path="url(#p62869720e1)" style="fill: #708090; opacity: 0.6"/>
   </g>
   <g id="patch_124">
    <path d="M 410.079985 90.703615 
L 412.502639 90.703615 
L 412.502639 31.697093 
L 410.079985 31.697093 
z
" clip-path="url(#p62869720e1)" style="fill: #708090; opacity: 0.6"/>
   </g>
   <g id="patch_125">
    <path d="M 414.117742 91.052604 
L 416.540396 91.052604 
L 416.540396 31.554549 
L 414.117742 31.554549 
z
" clip-path="url(#p62869720e1)" style="fill: #708090; opacity: 0.6"/>
   </g>
   <g id="patch_126">
    <path d="M 418.155499 91.364316 
L 420.578152 91.364316 
L 420.578152 31.424235 
L 418.155499 31.424235 
z
" clip-path="url(#p62869720e1)" style="fill: #708090; opacity: 0.6"/>
   </g>
   <g id="patch_127">
    <path d="M 422.193255 91.644421 
L 424.615909 91.644421 
L 424.615909 31.3047 
L 422.193255 31.3047 
z
" clip-path="url(#p62869720e1)" style="fill: #708090; opacity: 0.6"/>
   </g>
   <g id="patch_128">
    <path d="M 426.231012 91.897494 
L 428.653666 91.897494 
L 428.653666 31.194702 
L 426.231012 31.194702 
z
" clip-path="url(#p62869720e1)" style="fill: #708090; opacity: 0.6"/>
   </g>
   <g id="patch_129">
    <path d="M 430.268768 92.127268 
L 432.691422 92.127268 
L 432.691422 31.093173 
L 430.268768 31.093173 
z
" clip-path="url(#p62869720e1)" style="fill: #708090; opacity: 0.6"/>
   </g>
   <g id="patch_130">
    <path d="M 434.306525 92.33682 
L 436.729179 92.33682 
L 436.729179 30.999196 
L 434.306525 30.999196 
z
" clip-path="url(#p62869720e1)" style="fill: #708090; opacity: 0.6"/>
   </g>
   <g id="patch_131">
    <path d="M 438.344282 92.528705 
L 440.766935 92.528705 
L 440.766935 30.911974 
L 438.344282 30.911974 
z
" clip-path="url(#p62869720e1)" style="fill: #708090; opacity: 0.6"/>
   </g>
   <g id="patch_132">
    <path d="M 442.382038 92.705069 
L 444.804692 92.705069 
L 444.804692 30.830819 
L 442.382038 30.830819 
z
" clip-path="url(#p62869720e1)" style="fill: #708090; opacity: 0.6"/>
   </g>
   <g id="patch_133">
    <path d="M 446.419795 92.867721 
L 448.842449 92.867721 
L 448.842449 30.755129 
L 446.419795 30.755129 
z
" clip-path="url(#p62869720e1)" style="fill: #708090; opacity: 0.6"/>
   </g>
   <g id="patch_134">
    <path d="M 450.457551 93.0182 
L 452.880205 93.0182 
L 452.880205 30.684378 
L 450.457551 30.684378 
z
" clip-path="url(#p62869720e1)" style="fill: #708090; opacity: 0.6"/>
   </g>
   <g id="patch_135">
    <path d="M 454.495308 93.157823 
L 456.917962 93.157823 
L 456.917962 30.618104 
L 454.495308 30.618104 
z
" clip-path="url(#p62869720e1)" style="fill: #708090; opacity: 0.6"/>
   </g>
   <g id="patch_136">
    <path d="M 458.533065 93.287725 
L 460.955718 93.287725 
L 460.955718 30.555901 
L 458.533065 30.555901 
z
" clip-path="url(#p62869720e1)" style="fill: #708090; opacity: 0.6"/>
   </g>
   <g id="patch_137">
    <path d="M 462.570821 93.408887 
L 464.993475 93.408887 
L 464.993475 30.497409 
L 462.570821 30.497409 
z
" clip-path="url(#p62869720e1)" style="fill: #708090; opacity: 0.6"/>
   </g>
   <g id="patch_138">
    <path d="M 466.608578 93.522161 
L 469.031232 93.522161 
L 469.031232 30.442308 
L 466.608578 30.442308 
z
" clip-path="url(#p62869720e1)" style="fill: #708090; opacity: 0.6"/>
   </g>
   <g id="patch_139">
    <path d="M 470.646334 93.628294 
L 473.068988 93.628294 
L 473.068988 30.390315 
L 470.646334 30.390315 
z
" clip-path="url(#p62869720e1)" style="fill: #708090; opacity: 0.6"/>
   </g>
   <g id="patch_140">
    <path d="M 474.684091 93.727941 
L 477.106745 93.727941 
L 477.106745 30.341176 
L 474.684091 30.341176 
z
" clip-path="url(#p62869720e1)" style="fill: #708090; opacity: 0.6"/>
   </g>
   <g id="patch_141">
    <path d="M 478.721848 93.821678 
L 481.144501 93.821678 
L 481.144501 30.294664 
L 478.721848 30.294664 
z
" clip-path="url(#p62869720e1)" style="fill: #708090; opacity: 0.6"/>
   </g>
   <g id="patch_142">
    <path d="M 482.759604 93.910016 
L 485.182258 93.910016 
L 485.182258 30.250577 
L 482.759604 30.250577 
z
" clip-path="url(#p62869720e1)" style="fill: #708090; opacity: 0.6"/>
   </g>
   <g id="patch_143">
    <path d="M 486.797361 93.993408 
L 489.220015 93.993408 
L 489.220015 30.208729 
L 486.797361 30.208729 
z
" clip-path="url(#p62869720e1)" style="fill: #708090; opacity: 0.6"/>
   </g>
   <g id="patch_144">
    <path d="M 490.835117 94.072259 
L 493.257771 94.072259 
L 493.257771 30.168957 
L 490.835117 30.168957 
z
" clip-path="url(#p62869720e1)" style="fill: #708090; opacity: 0.6"/>
   </g>
   <g id="patch_145">
    <path d="M 494.872874 94.14693 
L 497.295528 94.14693 
L 497.295528 30.131109 
L 494.872874 30.131109 
z
" clip-path="url(#p62869720e1)" style="fill: #708090; opacity: 0.6"/>
   </g>
   <g id="patch_146">
    <path d="M 498.91063 94.217744 
L 501.333284 94.217744 
L 501.333284 30.095051 
L 498.91063 30.095051 
z
" clip-path="url(#p62869720e1)" style="fill: #708090; opacity: 0.6"/>
   </g>
   <g id="patch_147">
    <path d="M 502.948387 94.284993 
L 505.371041 94.284993 
L 505.371041 30.06066 
L 502.948387 30.06066 
z
" clip-path="url(#p62869720e1)" style="fill: #708090; opacity: 0.6"/>
   </g>
   <g id="patch_148">
    <path d="M 506.986144 94.348939 
L 509.408798 94.348939 
L 509.408798 30.027822 
L 506.986144 30.027822 
z
" clip-path="url(#p62869720e1)" style="fill: #708090; opacity: 0.6"/>
   </g>
   <g id="patch_149">
    <path d="M 511.0239 94.40982 
L 513.446554 94.40982 
L 513.446554 29.996436 
L 511.0239 29.996436 
z
" clip-path="url(#p62869720e1)" style="fill: #708090; opacity: 0.6"/>
   </g>
   <g id="patch_150">
    <path d="M 515.061657 94.467851 
L 517.484311 94.467851 
L 517.484311 29.966407 
L 515.061657 29.966407 
z
" clip-path="url(#p62869720e1)" style="fill: #708090; opacity: 0.6"/>
   </g>
   <g id="patch_151">
    <path d="M 519.099413 94.523227 
L 521.522067 94.523227 
L 521.522067 29.93765 
L 519.099413 29.93765 
z
" clip-path="url(#p62869720e1)" style="fill: #708090; opacity: 0.6"/>
   </g>
   <g id="patch_152">
    <path d="M 523.13717 94.576127 
L 525.559824 94.576127 
L 525.559824 29.910086 
L 523.13717 29.910086 
z
" clip-path="url(#p62869720e1)" style="fill: #708090; opacity: 0.6"/>
   </g>
   <g id="patch_153">
    <path d="M 527.174927 94.626714 
L 529.597581 94.626714 
L 529.597581 29.883643 
L 527.174927 29.883643 
z
" clip-path="url(#p62869720e1)" style="fill: #708090; opacity: 0.6"/>
   </g>
   <g id="patch_154">
    <path d="M 531.212683 94.675135 
L 533.635337 94.675135 
L 533.635337 29.858253 
L 531.212683 29.858253 
z
" clip-path="url(#p62869720e1)" style="fill: #708090; opacity: 0.6"/>
   </g>
   <g id="patch_155">
    <path d="M 535.25044 94.721527 
L 537.673094 94.721527 
L 537.673094 29.833856 
L 535.25044 29.833856 
z
" clip-path="url(#p62869720e1)" style="fill: #708090; opacity: 0.6"/>
   </g>
   <g id="patch_156">
    <path d="M 539.288196 94.766014 
L 541.71085 94.766014 
L 541.71085 29.810394 
L 539.288196 29.810394 
z
" clip-path="url(#p62869720e1)" style="fill: #708090; opacity: 0.6"/>
   </g>
   <g id="patch_157">
    <path d="M 543.325953 94.808712 
L 545.748607 94.808712 
L 545.748607 29.787816 
L 543.325953 29.787816 
z
" clip-path="url(#p62869720e1)" style="fill: #708090; opacity: 0.6"/>
   </g>
   <g id="patch_158">
    <path d="M 547.36371 94.849727 
L 549.786364 94.849727 
L 549.786364 29.766071 
L 547.36371 29.766071 
z
" clip-path="url(#p62869720e1)" style="fill: #708090; opacity: 0.6"/>
   </g>
   <g id="matplotlib.axis_3">
    <g id="xtick_4">
     <g id="line2d_18">
      <g>
       <use xlink:href="#m2087de5975" x="350.724963" y="233.44" style="stroke: #000000; stroke-width: 0.8"/>
      </g>
     </g>
     <g id="text_14">
      <!-- 0 -->
      <g transform="translate(346.974963 250.855625) scale(0.15 -0.15)">
       <use xlink:href="#TimesNewRomanPSMT-30"/>
      </g>
     </g>
    </g>
    <g id="xtick_5">
     <g id="line2d_19">
      <g>
       <use xlink:href="#m2087de5975" x="431.480095" y="233.44" style="stroke: #000000; stroke-width: 0.8"/>
      </g>
     </g>
     <g id="text_15">
      <!-- 20 -->
      <g transform="translate(423.980095 250.855625) scale(0.15 -0.15)">
       <use xlink:href="#TimesNewRomanPSMT-32"/>
       <use xlink:href="#TimesNewRomanPSMT-30" x="50"/>
      </g>
     </g>
    </g>
    <g id="xtick_6">
     <g id="line2d_20">
      <g>
       <use xlink:href="#m2087de5975" x="512.235227" y="233.44" style="stroke: #000000; stroke-width: 0.8"/>
      </g>
     </g>
     <g id="text_16">
      <!-- 40 -->
      <g transform="translate(504.735227 250.855625) scale(0.15 -0.15)">
       <use xlink:href="#TimesNewRomanPSMT-34"/>
       <use xlink:href="#TimesNewRomanPSMT-30" x="50"/>
      </g>
     </g>
    </g>
    <g id="text_17">
     <!-- Diffusion Steps -->
     <g transform="translate(402.90625 268.479844) scale(0.15 -0.15)">
      <use xlink:href="#TimesNewRomanPSMT-44"/>
      <use xlink:href="#TimesNewRomanPSMT-69" x="72.216797"/>
      <use xlink:href="#TimesNewRomanPSMT-66" x="100"/>
      <use xlink:href="#TimesNewRomanPSMT-66" x="131.550781"/>
      <use xlink:href="#TimesNewRomanPSMT-75" x="164.851562"/>
      <use xlink:href="#TimesNewRomanPSMT-73" x="214.851562"/>
      <use xlink:href="#TimesNewRomanPSMT-69" x="253.767578"/>
      <use xlink:href="#TimesNewRomanPSMT-6f" x="281.550781"/>
      <use xlink:href="#TimesNewRomanPSMT-6e" x="331.550781"/>
      <use xlink:href="#TimesNewRomanPSMT-20" x="381.550781"/>
      <use xlink:href="#TimesNewRomanPSMT-53" x="406.550781"/>
      <use xlink:href="#TimesNewRomanPSMT-74" x="462.166016"/>
      <use xlink:href="#TimesNewRomanPSMT-65" x="489.949219"/>
      <use xlink:href="#TimesNewRomanPSMT-70" x="534.333984"/>
      <use xlink:href="#TimesNewRomanPSMT-73" x="584.333984"/>
     </g>
    </g>
   </g>
   <g id="matplotlib.axis_4">
    <g id="ytick_6">
     <g id="line2d_21">
      <g>
       <use xlink:href="#m108096e06d" x="339.5" y="233.44" style="stroke: #000000; stroke-width: 0.8"/>
      </g>
     </g>
     <g id="text_18">
      <!-- 0.0 -->
      <g transform="translate(313.75 238.647813) scale(0.15 -0.15)">
       <use xlink:href="#TimesNewRomanPSMT-30"/>
       <use xlink:href="#TimesNewRomanPSMT-2e" x="50"/>
       <use xlink:href="#TimesNewRomanPSMT-30" x="75"/>
      </g>
     </g>
    </g>
    <g id="ytick_7">
     <g id="line2d_22">
      <g>
       <use xlink:href="#m108096e06d" x="339.5" y="192.060952" style="stroke: #000000; stroke-width: 0.8"/>
      </g>
     </g>
     <g id="text_19">
      <!-- 0.2 -->
      <g transform="translate(313.75 197.268765) scale(0.15 -0.15)">
       <use xlink:href="#TimesNewRomanPSMT-30"/>
       <use xlink:href="#TimesNewRomanPSMT-2e" x="50"/>
       <use xlink:href="#TimesNewRomanPSMT-32" x="75"/>
      </g>
     </g>
    </g>
    <g id="ytick_8">
     <g id="line2d_23">
      <g>
       <use xlink:href="#m108096e06d" x="339.5" y="150.681905" style="stroke: #000000; stroke-width: 0.8"/>
      </g>
     </g>
     <g id="text_20">
      <!-- 0.4 -->
      <g transform="translate(313.75 155.889717) scale(0.15 -0.15)">
       <use xlink:href="#TimesNewRomanPSMT-30"/>
       <use xlink:href="#TimesNewRomanPSMT-2e" x="50"/>
       <use xlink:href="#TimesNewRomanPSMT-34" x="75"/>
      </g>
     </g>
    </g>
    <g id="ytick_9">
     <g id="line2d_24">
      <g>
       <use xlink:href="#m108096e06d" x="339.5" y="109.302857" style="stroke: #000000; stroke-width: 0.8"/>
      </g>
     </g>
     <g id="text_21">
      <!-- 0.6 -->
      <g transform="translate(313.75 114.51067) scale(0.15 -0.15)">
       <use xlink:href="#TimesNewRomanPSMT-30"/>
       <use xlink:href="#TimesNewRomanPSMT-2e" x="50"/>
       <use xlink:href="#TimesNewRomanPSMT-36" x="75"/>
      </g>
     </g>
    </g>
    <g id="ytick_10">
     <g id="line2d_25">
      <g>
       <use xlink:href="#m108096e06d" x="339.5" y="67.92381" style="stroke: #000000; stroke-width: 0.8"/>
      </g>
     </g>
     <g id="text_22">
      <!-- 0.8 -->
      <g transform="translate(313.75 73.131622) scale(0.15 -0.15)">
       <use xlink:href="#TimesNewRomanPSMT-30"/>
       <use xlink:href="#TimesNewRomanPSMT-2e" x="50"/>
       <use xlink:href="#TimesNewRomanPSMT-38" x="75"/>
      </g>
     </g>
    </g>
    <g id="ytick_11">
     <g id="line2d_26">
      <g>
       <use xlink:href="#m108096e06d" x="339.5" y="26.544762" style="stroke: #000000; stroke-width: 0.8"/>
      </g>
     </g>
     <g id="text_23">
      <!-- 1.0 -->
      <g transform="translate(313.75 31.752574) scale(0.15 -0.15)">
       <defs>
        <path id="TimesNewRomanPSMT-31" d="M 750 3822 
L 1781 4325 
L 1884 4325 
L 1884 747 
Q 1884 391 1914 303 
Q 1944 216 2037 169 
Q 2131 122 2419 116 
L 2419 0 
L 825 0 
L 825 116 
Q 1125 122 1212 167 
Q 1300 213 1334 289 
Q 1369 366 1369 747 
L 1369 3034 
Q 1369 3497 1338 3628 
Q 1316 3728 1258 3775 
Q 1200 3822 1119 3822 
Q 1003 3822 797 3725 
L 750 3822 
z
" transform="scale(0.015625)"/>
       </defs>
       <use xlink:href="#TimesNewRomanPSMT-31"/>
       <use xlink:href="#TimesNewRomanPSMT-2e" x="50"/>
       <use xlink:href="#TimesNewRomanPSMT-30" x="75"/>
      </g>
     </g>
    </g>
    <g id="text_24">
     <!-- Membership Distrubition -->
     <g transform="translate(306.541406 200.857109) rotate(-90) scale(0.15 -0.15)">
      <use xlink:href="#TimesNewRomanPSMT-4d"/>
      <use xlink:href="#TimesNewRomanPSMT-65" x="88.916016"/>
      <use xlink:href="#TimesNewRomanPSMT-6d" x="133.300781"/>
      <use xlink:href="#TimesNewRomanPSMT-62" x="211.083984"/>
      <use xlink:href="#TimesNewRomanPSMT-65" x="261.083984"/>
      <use xlink:href="#TimesNewRomanPSMT-72" x="305.46875"/>
      <use xlink:href="#TimesNewRomanPSMT-73" x="338.769531"/>
      <use xlink:href="#TimesNewRomanPSMT-68" x="377.685547"/>
      <use xlink:href="#TimesNewRomanPSMT-69" x="427.685547"/>
      <use xlink:href="#TimesNewRomanPSMT-70" x="455.46875"/>
      <use xlink:href="#TimesNewRomanPSMT-20" x="505.46875"/>
      <use xlink:href="#TimesNewRomanPSMT-44" x="530.46875"/>
      <use xlink:href="#TimesNewRomanPSMT-69" x="602.685547"/>
      <use xlink:href="#TimesNewRomanPSMT-73" x="630.46875"/>
      <use xlink:href="#TimesNewRomanPSMT-74" x="669.384766"/>
      <use xlink:href="#TimesNewRomanPSMT-72" x="697.167969"/>
      <use xlink:href="#TimesNewRomanPSMT-75" x="730.46875"/>
      <use xlink:href="#TimesNewRomanPSMT-62" x="780.46875"/>
      <use xlink:href="#TimesNewRomanPSMT-69" x="830.46875"/>
      <use xlink:href="#TimesNewRomanPSMT-74" x="858.251953"/>
      <use xlink:href="#TimesNewRomanPSMT-69" x="886.035156"/>
      <use xlink:href="#TimesNewRomanPSMT-6f" x="913.818359"/>
      <use xlink:href="#TimesNewRomanPSMT-6e" x="963.818359"/>
     </g>
    </g>
   </g>
   <g id="patch_159">
    <path d="M 339.5 233.44 
L 339.5 16.2 
" style="fill: none; stroke: #000000; stroke-width: 0.8; stroke-linejoin: miter; stroke-linecap: square"/>
   </g>
   <g id="patch_160">
    <path d="M 559.8 233.44 
L 559.8 16.2 
" style="fill: none; stroke: #000000; stroke-width: 0.8; stroke-linejoin: miter; stroke-linecap: square"/>
   </g>
   <g id="patch_161">
    <path d="M 339.5 233.44 
L 559.8 233.44 
" style="fill: none; stroke: #000000; stroke-width: 0.8; stroke-linejoin: miter; stroke-linecap: square"/>
   </g>
   <g id="patch_162">
    <path d="M 339.5 16.2 
L 559.8 16.2 
" style="fill: none; stroke: #000000; stroke-width: 0.8; stroke-linejoin: miter; stroke-linecap: square"/>
   </g>
  </g>
 </g>
 <defs>
  <clipPath id="pad8614c7da">
   <rect x="59.6" y="16.2" width="220.3" height="217.24"/>
  </clipPath>
  <clipPath id="p62869720e1">
   <rect x="339.5" y="16.2" width="220.3" height="217.24"/>
  </clipPath>
 </defs>
</svg>
